<svg width="19" height="14" viewBox="0 0 19 14" fill="none" xmlns="http://www.w3.org/2000/svg">
<path d="M4.96834 10.0491L11.5108 2.57197C11.7472 2.30181 12.1579 2.27443 12.428 2.51083C12.6712 2.72358 12.7177 3.07748 12.5522 3.34308L12.4892 3.42803L5.48917 11.428C5.26634 11.6827 4.89144 11.7199 4.62487 11.531L4.54038 11.4596L1.54038 8.45962C1.28654 8.20578 1.28654 7.79422 1.54038 7.54038C1.76884 7.31192 2.12504 7.28908 2.37905 7.47184L2.45962 7.54038L4.96834 10.0491ZM9.96834 10.0491L16.5108 2.57197C16.7472 2.30181 17.1579 2.27443 17.428 2.51083C17.6712 2.72358 17.7177 3.07748 17.5522 3.34308L17.4892 3.42803L10.4892 11.428C10.2663 11.6827 9.89144 11.7199 9.62487 11.531L9.54038 11.4596L8.54038 10.4596C8.28654 10.2058 8.28654 9.79422 8.54038 9.54038C8.76884 9.31192 9.12504 9.28908 9.37905 9.47184L9.45962 9.54038L9.96834 10.0491Z" fill="black"/>
</svg>
