<svg width="24" height="24" viewBox="0 0 24 24" fill="none" xmlns="http://www.w3.org/2000/svg">
<path d="M4 2H18C20.1422 2 21.8911 3.68397 21.9951 5.80036L22 6V8C22 8.55228 21.5523 9 21 9C20.4872 9 20.0645 8.61396 20.0067 8.11662L20 8V6C20 4.94564 19.1841 4.08183 18.1493 4.00549L18 4H4C2.94564 4 2.08183 4.81588 2.00549 5.85074L2 6V14C2 15.0544 2.81588 15.9182 3.85074 15.9945L4 16H14C14.5523 16 15 16.4477 15 17C15 17.5128 14.614 17.9355 14.1166 17.9933L14 18H12V20H14C14.5128 20 14.9355 20.386 14.9933 20.8834L15 21C15 21.5128 14.614 21.9355 14.1166 21.9933L14 22H8C7.44772 22 7 21.5523 7 21C7 20.4872 7.38604 20.0645 7.88338 20.0067L8 20H10V18H4C1.8578 18 0.108921 16.316 0.00489531 14.1996L0 14V6C0 3.8578 1.68397 2.10892 3.80036 2.0049L4 2ZM22 11C23.1046 11 24 11.8954 24 13V20C24 21.1046 23.1046 22 22 22H19C17.8954 22 17 21.1046 17 20V13C17 11.8954 17.8954 11 19 11H22ZM22 13H19V20H22V13Z" fill="black"/>
</svg>
