<svg width="24" height="24" viewBox="0 0 24 24" fill="none" xmlns="http://www.w3.org/2000/svg">
<path d="M11.8834 4.00673L12 4C12.5128 4 12.9355 4.38604 12.9933 4.88338L13 5V11H19C19.5128 11 19.9355 11.386 19.9933 11.8834L20 12C20 12.5128 19.614 12.9355 19.1166 12.9933L19 13H13V19C13 19.5128 12.614 19.9355 12.1166 19.9933L12 20C11.4872 20 11.0645 19.614 11.0067 19.1166L11 19V13H5C4.48716 13 4.06449 12.614 4.00673 12.1166L4 12C4 11.4872 4.38604 11.0645 4.88338 11.0067L5 11H11V5C11 4.48716 11.386 4.06449 11.8834 4.00673Z" fill="black"/>
</svg>
