<svg width="24" height="24" viewBox="0 0 24 24" fill="none" xmlns="http://www.w3.org/2000/svg">
<path d="M18.9956 8.2459L20.1986 8.2459C22.4503 8.2459 23.781 10.7686 22.5095 12.6269L16.2482 21.7781C14.5623 24.242 10.706 22.7091 11.1716 19.7603L11.8042 15.754L10.6012 15.754C8.3495 15.754 7.0188 13.2312 8.2903 11.3729L14.5516 2.2218C16.2375 -0.2421 20.0938 1.2908 19.6282 4.2396L18.9956 8.2459ZM9.9409 12.5023C9.9409 12.5023 9.9409 12.5023 9.9409 12.5023C9.5777 13.0332 9.9579 13.754 10.6012 13.754L13.2085 13.754C13.2085 13.754 13.2085 13.754 13.2085 13.754C13.7001 13.754 14.0754 14.1932 13.9987 14.6788L13.2064 19.6969L13.1471 20.0722C13.1471 20.0722 13.1471 20.0722 13.1471 20.0722C13.0141 20.9146 14.1158 21.3527 14.5975 20.6488C14.5975 20.6488 14.5976 20.6487 14.5975 20.6488L20.8589 11.4976C20.8589 11.4976 20.8589 11.4976 20.8589 11.4976C21.2221 10.9666 20.842 10.2458 20.1986 10.2458C20.1986 10.2458 20.1986 10.2458 20.1986 10.2458L17.5913 10.2458C17.0997 10.2458 16.7244 9.8066 16.8011 9.3211C16.8011 9.3211 16.8011 9.3211 16.8011 9.3211L17.6527 3.9277C17.7857 3.0852 16.6839 2.6472 16.2022 3.3512L9.9409 12.5023Z" fill="black"/>
<path d="M6 16C6 15.4477 5.55228 15 5 15C4.44772 15 4 15.4477 4 16V18H2C1.44772 18 1 18.4477 1 19C1 19.5523 1.44772 20 2 20H4V22C4 22.5523 4.44772 23 5 23C5.55228 23 6 22.5523 6 22V20H8C8.55228 20 9 19.5523 9 19C9 18.4477 8.55228 18 8 18H6V16Z" fill="black"/>
</svg>
