<svg width="24" height="24" viewBox="0 0 24 24" fill="none" xmlns="http://www.w3.org/2000/svg">
<path d="M9 13C12.3229 13 14.753 13.8337 16.2224 15.5699C16.7245 16.1632 17 16.9153 17 17.6925V19C17 20.1046 16.1046 21 15 21H3C1.89543 21 1 20.1046 1 19V17.6925C1 16.9153 1.27552 16.1632 1.77762 15.5699C3.24698 13.8337 5.67709 13 9 13ZM18.8834 7.00673L19 7C19.5128 7 19.9355 7.38604 19.9933 7.88338L20 8V10H22C22.5128 10 22.9355 10.386 22.9933 10.8834L23 11C23 11.5128 22.614 11.9355 22.1166 11.9933L22 12H20V14C20 14.5128 19.614 14.9355 19.1166 14.9933L19 15C18.4872 15 18.0645 14.614 18.0067 14.1166L18 14V12H16C15.4872 12 15.0645 11.614 15.0067 11.1166L15 11C15 10.4872 15.386 10.0645 15.8834 10.0067L16 10H18V8C18 7.48716 18.386 7.06449 18.8834 7.00673ZM9 3C11.2091 3 13 4.79086 13 7C13 9.20914 11.2091 11 9 11C6.79086 11 5 9.20914 5 7C5 4.79086 6.79086 3 9 3Z" fill="black"/>
</svg>
