<svg width="24" height="24" viewBox="0 0 24 24" fill="none" xmlns="http://www.w3.org/2000/svg">
<path d="M11.7301 2.9999C11.389 3.0733 11.057 3.184 10.7401 3.3299L5.9701 4.9999C5.5768 5.1039 5.1999 5.2621 4.8501 5.4699C4.7252 5.578 4.629 5.7154 4.5701 5.8699C4.4862 6.2674 4.4626 6.6753 4.5001 7.0799L4.5001 12.3299C4.4064 13.5319 4.4873 14.7411 4.7401 15.9199C4.9386 16.5347 5.2545 17.1052 5.6701 17.5999C7.6467 16.6712 9.8179 16.2321 12.0001 16.3199C14.1823 16.2321 16.3535 16.6712 18.3301 17.5999C18.7487 17.1073 19.0649 16.5362 19.2601 15.9199C19.5129 14.7411 19.5938 13.5319 19.5001 12.3299L19.5001 7.0799C19.5386 6.672 19.515 6.2607 19.4301 5.8599C19.3712 5.7054 19.275 5.568 19.1501 5.4599C18.7998 5.2555 18.4229 5.1007 18.0301 4.9999L13.2701 3.3099C12.9491 3.1702 12.6138 3.0662 12.2701 2.9999C12.0914 2.9699 11.9088 2.9699 11.7301 2.9999ZM7.5001 18.9999L8.7701 19.7499L10.1001 20.5399C10.5657 20.8622 11.0739 21.118 11.6101 21.2999C11.8869 21.3594 12.1733 21.3594 12.4501 21.2999C12.9863 21.118 13.4945 20.8622 13.9601 20.5399L15.2901 19.7499L16.5001 18.9999C15.0412 18.5119 13.5077 18.2851 11.9701 18.3299C10.4525 18.2921 8.9399 18.5189 7.5001 18.9999ZM12.5001 0.9999C12.9653 1.0951 13.4181 1.2427 13.8501 1.4399L13.9301 1.4399L18.7501 3.2099L18.8801 3.2099C19.4651 3.3685 20.0148 3.6366 20.5001 3.9999C20.8538 4.3147 21.1279 4.7088 21.3001 5.1499C21.4731 5.7298 21.5408 6.3361 21.5001 6.9399L21.5001 12.4899C21.5914 13.8328 21.4767 15.1817 21.1601 16.4899C20.8631 17.4169 20.3761 18.2718 19.7301 18.9999C18.769 19.9388 17.6696 20.7246 16.4701 21.3299L16.3101 21.4199L14.9801 22.2099L14.8601 22.2799C14.2462 22.6926 13.5713 23.0064 12.8601 23.2099C12.3064 23.3288 11.7338 23.3288 11.1801 23.2099C10.4689 23.0064 9.794 22.6926 9.1801 22.2799L9.0601 22.2099L7.7301 21.4199L7.5701 21.3299C6.3565 20.7281 5.2433 19.9421 4.2701 18.9999C3.6265 18.2776 3.1396 17.4298 2.8401 16.5099C2.5235 15.2017 2.4088 13.8528 2.5001 12.5099L2.5001 6.9399C2.4594 6.3361 2.5271 5.7298 2.7001 5.1499C2.8866 4.7036 3.1782 4.3091 3.5501 3.9999C4.0282 3.6046 4.5783 3.3058 5.1701 3.1199L5.3001 3.1199L10.0701 1.4099L10.1501 1.4099C10.5833 1.223 11.0361 1.0855 11.5001 0.9999C11.8321 0.9571 12.1681 0.9571 12.5001 0.9999ZM12.0001 8.3199C11.6045 8.3199 11.2179 8.4372 10.889 8.6569C10.5601 8.8767 10.3037 9.189 10.1523 9.5545C10.001 9.92 9.9614 10.3221 10.0385 10.7101C10.1157 11.098 10.3062 11.4544 10.5859 11.7341C10.8656 12.0138 11.222 12.2043 11.6099 12.2815C11.9979 12.3586 12.4 12.319 12.7655 12.1677C13.1309 12.0163 13.4433 11.7599 13.663 11.431C13.8828 11.1021 14.0001 10.7155 14.0001 10.3199C14.0001 9.7894 13.7894 9.2807 13.4143 8.9057C13.0392 8.5306 12.5305 8.3199 12.0001 8.3199ZM8.0001 10.3199C8.0001 9.5287 8.2347 8.7554 8.6742 8.0976C9.1138 7.4398 9.7385 6.9271 10.4694 6.6243C11.2003 6.3216 12.0045 6.2424 12.7805 6.3967C13.5564 6.5511 14.2691 6.932 14.8285 7.4914C15.3879 8.0509 15.7689 8.7636 15.9232 9.5395C16.0776 10.3155 15.9984 11.1197 15.6956 11.8506C15.3929 12.5815 14.8802 13.2063 14.2224 13.6458C13.5646 14.0853 12.7912 14.3199 12.0001 14.3199C10.9392 14.3199 9.9218 13.8985 9.1717 13.1483C8.4215 12.3982 8.0001 11.3808 8.0001 10.3199Z" fill="black"/>
</svg>
