<svg width="24" height="24" viewBox="0 0 24 24" fill="none" xmlns="http://www.w3.org/2000/svg">
<path d="M18.9999 1.5C21.2716 1.5 22.8535 5.33945 22.035 9.91116C22.2962 10.6114 22.5371 11.3757 22.7129 12.0934L23.1145 12.0173C23.6572 11.9149 24.1802 12.2719 24.2825 12.8146C24.3776 13.3185 24.0767 13.8055 23.5986 13.9544L23.4853 13.9827L22.9977 14.074L22.9953 14.2423C22.9724 14.8422 22.8649 15.4301 22.684 15.9995L23.2999 16C23.8522 16 24.3001 16.4477 24.3001 17C24.3001 17.5128 23.9138 17.9355 23.4165 17.9933L23.2999 18L21.7064 17.9999C19.7419 20.93 15.8286 23 11.9999 23C8.17115 23 4.25787 20.93 2.29341 17.9999L0.699888 18C0.147603 18 -0.300293 17.5523 -0.300293 17C-0.300293 16.4872 0.0859281 16.0645 0.583267 16.0067L0.699888 16L1.31578 15.9995C1.11796 15.377 1.00802 14.7324 1.00032 14.0742L0.51448 13.9827C-0.0282289 13.8803 -0.385172 13.3573 -0.282774 12.8146C-0.18769 12.3106 0.270023 11.9669 0.769449 12.0023L0.885296 12.0173L1.28698 12.0936C1.46282 11.3759 1.70386 10.6114 1.96526 9.9106C1.20638 5.54207 3.0663 1.5 4.99989 1.5C5.40675 1.5 5.647 1.62466 6.05478 1.97668L6.32222 2.216L7.5373 3.37651L7.82875 3.64294C8.1213 3.90385 8.37031 4.10306 8.57455 4.23828L8.74719 4.34312L8.83687 4.38748C10.1174 4.09253 10.8178 4 11.9999 4C13.0699 4 13.7468 4.07594 14.8661 4.32281L15.1407 4.385L15.1855 4.36534L15.3042 4.30058C15.4923 4.18878 15.7248 4.01367 16.0013 3.777L16.1724 3.62763C16.3084 3.50681 16.4525 3.37419 16.6148 3.22114L17.6766 2.21257L17.9445 1.9747C18.3533 1.62465 18.5946 1.5 18.9999 1.5ZM19.1263 3.59926L19.0215 3.69283L18.0782 4.58915L17.6555 4.98365L17.3111 5.28918C16.256 6.20149 15.5357 6.59095 14.774 6.34984C13.5924 6.07588 13.0327 6 11.9999 6C10.9791 6 10.4224 6.07396 9.26746 6.34067C8.45185 6.5932 7.72828 6.204 6.69502 5.30923L6.33933 4.99266L6.00023 4.67619L5.00434 3.72138C4.77472 3.98797 4.54468 4.35153 4.34937 4.78572C3.75985 6.09626 3.57674 7.78754 3.9805 9.80792L4.03779 10.0946L3.83597 10.6187C3.61699 11.2092 3.41035 11.866 3.25729 12.4661L6.1853 13.0173C6.728 13.1197 7.08495 13.6427 6.98255 14.1854C6.88747 14.6894 6.42975 15.0331 5.93033 14.9977L5.81448 14.9827L3.0242 14.4565C3.07988 14.9814 3.22975 15.499 3.45886 15.9992L5.99989 16C6.55217 16 6.99989 16.4477 6.99989 17C6.99989 17.5128 6.61385 17.9355 6.11651 17.9933L5.99989 18L4.87483 17.9995C6.61771 19.7672 9.3384 21 11.9999 21C14.6614 21 17.3821 19.7672 19.1249 17.9995L17.9999 18C17.4476 18 16.9999 17.5523 16.9999 17C16.9999 16.4872 17.3859 16.0645 17.8833 16.0067L17.9999 16L20.5409 15.9992C20.77 15.499 20.9199 14.9814 20.9756 14.4565L18.1853 14.9827C17.6426 15.0851 17.1196 14.7281 17.0172 14.1854C16.9221 13.6815 17.2231 13.1945 17.7011 13.0456L17.8145 13.0173L20.7427 12.4662C20.5896 11.8656 20.3828 11.2083 20.1638 10.6178L19.962 10.0939L20.0193 9.80711C20.4359 7.72248 20.3209 5.99588 19.8214 4.74668C19.6135 4.22683 19.3583 3.86016 19.1865 3.66456L19.1263 3.59926ZM11.5693 14H12.4999L12.6062 14.0055L12.7174 14.0237L12.8244 14.0541L12.9308 14.0975L12.9862 14.126L13.0316 14.1528L13.1036 14.2027L13.2012 14.2868C13.2415 14.3273 13.2764 14.3679 13.3073 14.41L13.3508 14.4745C13.3708 14.5068 13.389 14.5403 13.4053 14.5749L13.4431 14.6675L13.4789 14.7953L13.4964 14.9136L13.4999 15L13.494 15.1104L13.4666 15.2567L13.4486 15.3162L13.0142 16.6193L13.0408 16.6984C13.1176 16.8758 13.2942 17 13.4999 17C13.776 17 13.9999 16.7761 13.9999 16.5C13.9999 15.9477 14.4476 15.5 14.9999 15.5C15.5522 15.5 15.9999 15.9477 15.9999 16.5C15.9999 17.8807 14.8806 19 13.4999 19C12.9366 19 12.4169 18.8137 11.9989 18.4995C11.582 18.814 11.0627 19 10.4999 19C9.11918 19 7.99989 17.8807 7.99989 16.5C7.99989 15.9477 8.4476 15.5 8.99989 15.5C9.55217 15.5 9.99989 15.9477 9.99989 16.5C9.99989 16.7761 10.2237 17 10.4999 17C10.7055 17 10.8822 16.8758 10.959 16.6984L10.9856 16.6193L10.5731 15.382C10.3898 14.8319 10.6871 14.2373 11.2372 14.0539L11.349 14.0242L11.4264 14.01L11.5693 14ZM15.4999 10C16.3283 10 16.9999 10.6716 16.9999 11.5C16.9999 12.3284 16.3283 13 15.4999 13C14.6715 13 13.9999 12.3284 13.9999 11.5C13.9999 10.6716 14.6715 10 15.4999 10ZM8.49989 10C9.32831 10 9.99989 10.6716 9.99989 11.5C9.99989 12.3284 9.32831 13 8.49989 13C7.67146 13 6.99989 12.3284 6.99989 11.5C6.99989 10.6716 7.67146 10 8.49989 10ZM15.216 4.40209L15.1407 4.385L15.1041 4.39939L15.1458 4.39545L15.1841 4.39712L15.216 4.40209Z" fill="black"/>
</svg>
