<svg width="20" height="20" viewBox="0 0 20 20" fill="none" xmlns="http://www.w3.org/2000/svg">
<path d="M14.7682 4.1857L19.2682 15.1857C19.4418 15.6099 19.2386 16.0946 18.8143 16.2681C18.39 16.4417 17.9054 16.2385 17.7318 15.8142L16.511 12.8299L11.4891 12.8299L10.2682 15.8142C10.0947 16.2385 9.61 16.4417 9.1858 16.2681C8.7615 16.0946 8.5582 15.6099 8.7318 15.1857L13.2318 4.1857C13.3594 3.8737 13.663 3.6699 14 3.6699C14.337 3.6699 14.6406 3.8737 14.7682 4.1857ZM15.8319 11.1699L14 6.692L12.1681 11.1699L15.8319 11.1699Z" fill="black"/>
<path fill-rule="evenodd" clip-rule="evenodd" d="M4.40957 6.4096C4.73566 6.08352 5.26436 6.08352 5.59044 6.4096L8.59044 9.40961C8.91653 9.73569 8.91653 10.2644 8.59044 10.5905L5.59044 13.5905C5.26436 13.9166 4.73566 13.9166 4.40957 13.5905C4.08349 13.2644 4.08349 12.7357 4.40957 12.4096L5.98414 10.835H0.999642C0.538485 10.835 0.164642 10.4612 0.164642 10C0.164642 9.53888 0.538485 9.16504 0.999642 9.16504H5.98414L4.40957 7.59047C4.08349 7.26439 4.08349 6.73569 4.40957 6.4096Z" fill="black"/>
</svg>
