<svg width="24" height="24" viewBox="0 0 24 24" fill="none" xmlns="http://www.w3.org/2000/svg">
<path d="M19.8834 16.0067L20 16C20.5128 16 20.9355 16.386 20.9933 16.8834L21 17V19H23C23.5128 19 23.9355 19.386 23.9933 19.8834L24 20C24 20.5128 23.614 20.9355 23.1166 20.9933L23 21H21V23C21 23.5128 20.614 23.9355 20.1166 23.9933L20 24C19.4872 24 19.0645 23.614 19.0067 23.1166L19 23V21H17C16.4872 21 16.0645 20.614 16.0067 20.1166L16 20C16 19.4872 16.386 19.0645 16.8834 19.0067L17 19H19V17C19 16.4872 19.386 16.0645 19.8834 16.0067ZM8.41421 2H13.5858C14.0573 2 14.5116 2.16649 14.8702 2.46691L15 2.58579L16.4142 4H18C19.5977 4 20.9037 5.24892 20.9949 6.82373L21 7V12C21 12.5523 20.5523 13 20 13C19.4872 13 19.0645 12.614 19.0067 12.1166L19 12V7C19 6.48716 18.614 6.06449 18.1166 6.00673L18 6H16.4142C15.9427 6 15.4884 5.83351 15.1298 5.53309L15 5.41421L13.5858 4H8.41421L7 5.41421C6.6666 5.74761 6.22762 5.95115 5.76164 5.99226L5.58579 6H4C3.48716 6 3.06449 6.38604 3.00673 6.88338L3 7V18C3 18.5128 3.38604 18.9355 3.88338 18.9933L4 19H13C13.5523 19 14 19.4477 14 20C14 20.5128 13.614 20.9355 13.1166 20.9933L13 21H4C2.40232 21 1.09634 19.7511 1.00509 18.1763L1 18V7C1 5.40232 2.24892 4.09634 3.82373 4.00509L4 4H5.58579L7 2.58579C7.3334 2.25239 7.77238 2.04885 8.23836 2.00774L8.41421 2ZM11 7C13.7614 7 16 9.23858 16 12C16 14.7614 13.7614 17 11 17C8.23858 17 6 14.7614 6 12C6 9.23858 8.23858 7 11 7ZM11 9C9.34315 9 8 10.3431 8 12C8 13.6569 9.34315 15 11 15C12.6569 15 14 13.6569 14 12C14 10.3431 12.6569 9 11 9Z" fill="black"/>
</svg>
