<svg width="24" height="24" viewBox="0 0 24 24" fill="none" xmlns="http://www.w3.org/2000/svg">
<path d="M14.5858 2C15.1162 2 15.6249 2.21071 16 2.58579L17.4142 4H19C20.6569 4 22 5.34315 22 7V18C22 19.6569 20.6569 21 19 21H5C3.34315 21 2 19.6569 2 18V7C2 5.34315 3.34315 4 5 4H6.58579L8 2.58579C8.37507 2.21071 8.88378 2 9.41421 2H14.5858ZM14.5858 4H9.41421L8 5.41421C7.62493 5.78929 7.11622 6 6.58579 6H5C4.44772 6 4 6.44772 4 7V18C4 18.5523 4.44772 19 5 19H19C19.5523 19 20 18.5523 20 18V7C20 6.44772 19.5523 6 19 6H17.4142C16.8838 6 16.3751 5.78929 16 5.41421L14.5858 4ZM12 7C14.7614 7 17 9.23858 17 12C17 14.7614 14.7614 17 12 17C9.23858 17 7 14.7614 7 12C7 9.23858 9.23858 7 12 7ZM12 9C10.3431 9 9 10.3431 9 12C9 13.6569 10.3431 15 12 15C13.6569 15 15 13.6569 15 12C15 10.3431 13.6569 9 12 9Z" fill="black"/>
</svg>
