<svg width="24" height="24" viewBox="0 0 24 24" fill="none" xmlns="http://www.w3.org/2000/svg">
<path d="M23 20C23 21.6569 21.6569 23 20 23C18.3431 23 17 21.6569 17 20H7C7 21.6569 5.65685 23 4 23C2.40232 23 1.09634 21.7511 1.00509 20.1763L1 20V12.9852C1 12.224 1.12415 11.468 1.36755 10.7468L3.14553 5.47868C3.83848 3.42546 5.58473 1.90544 7.71388 1.50216C9.476 1.16839 10.9005 1 12 1C13.0995 1 14.524 1.16839 16.2861 1.50215C18.4153 1.90542 20.1615 3.42544 20.8545 5.47866L22.6324 10.7468C22.8759 11.468 23 12.224 23 12.9852V20ZM2.99988 19.4648L3 20C3 20.5523 3.44772 21 4 21C4.51284 21 4.93551 20.614 4.99327 20.1166L5 20C4.27138 20 3.58825 19.8052 2.99988 19.4648ZM19 20C19 20.5523 19.4477 21 20 21C20.5523 21 21 20.5523 21 20L21.0011 19.4642C20.4125 19.805 19.729 20 19 20ZM20.7375 11.3863L20.5177 10.7366C20.1728 10.9098 19.7956 11.0158 19.4064 11.0464L19.1716 11.0556H4.82843C4.35659 11.0556 3.89621 10.9444 3.4823 10.7366L3.26254 11.3863C3.08868 11.9015 3 12.4415 3 12.9852V16C3 17.1046 3.89543 18 5 18H19C20.1046 18 21 17.1046 21 16V12.9852C21 12.4415 20.9113 11.9015 20.7375 11.3863ZM6.5 13C7.32843 13 8 13.6716 8 14.5C8 15.3284 7.32843 16 6.5 16C5.67157 16 5 15.3284 5 14.5C5 13.6716 5.67157 13 6.5 13ZM17.5 13C18.3284 13 19 13.6716 19 14.5C19 15.3284 18.3284 16 17.5 16C16.6716 16 16 15.3284 16 14.5C16 13.6716 16.6716 13 17.5 13ZM12 3C11.0448 3 9.73587 3.15473 8.08608 3.46722C6.66665 3.73607 5.50248 4.74942 5.04051 6.11823L4.14146 8.78224C4.29596 8.9283 4.49235 9.02073 4.70158 9.04748L4.82843 9.05556L12.1289 9.05543C12.5411 7.58128 13.8943 6.5 15.5 6.5C17.1057 6.5 18.4589 7.58128 18.8711 9.05543L19.1716 9.05556C19.3926 9.05556 19.6061 8.98239 19.7796 8.84947L19.857 8.78L18.9595 6.11822C18.4975 4.74941 17.3333 3.73606 15.9139 3.46721C14.2641 3.15473 12.9552 3 12 3ZM15.5 8.5C15.03 8.5 14.6105 8.71614 14.3355 9.05443H16.6645C16.3895 8.71614 15.97 8.5 15.5 8.5Z" fill="black"/>
</svg>
