<svg width="24" height="24" viewBox="0 0 24 24" fill="none" xmlns="http://www.w3.org/2000/svg">
<path d="M18.5 1.67871C19.8807 1.67871 21 2.798 21 4.17871V19.8218C21 20.4016 20.7984 20.9634 20.4298 21.411C19.5521 22.4768 17.9765 22.6293 16.9107 21.7516L12 17.7067V19.5002C12 21.0979 10.7511 22.4039 9.17627 22.4951L9 22.5002C7.40232 22.5002 6.09634 21.2513 6.00509 19.6765L6 19.5002L5.99981 16.9002C3.71767 16.4368 2 14.4191 2 12.0002C2 9.23881 4.23858 7.00024 7 7.00024H11.1412L16.9107 2.24889C17.3583 1.88027 17.9202 1.67871 18.5 1.67871ZM8 16.9997V19.5002C8 20.0525 8.44772 20.5002 9 20.5002C9.51284 20.5002 9.93551 20.1142 9.99327 19.6169L10 19.5002V16.9997H8ZM18.5 3.67871C18.384 3.67871 18.2717 3.71902 18.1821 3.79275L12.4126 8.5441C12.0546 8.83899 11.6051 9.00024 11.1412 9.00024H7C5.34315 9.00024 4 10.3434 4 12.0002C4 13.6571 5.34315 15.0002 7 15.0002H11.1412C11.6051 15.0002 12.0546 15.1615 12.4126 15.4564L18.1821 20.2077C18.3953 20.3833 18.7104 20.3528 18.886 20.1396C18.9597 20.0501 19 19.9377 19 19.8218V4.17871C19 3.90257 18.7761 3.67871 18.5 3.67871Z" fill="black"/>
</svg>
