<svg width="144" height="144" viewBox="0 0 144 144" fill="none" xmlns="http://www.w3.org/2000/svg">
<path d="M132 42C135.077 42 137.613 44.3162 137.96 47.3003L138 48V136.551C138 140.197 135.045 143.151 131.4 143.151C129.9 143.151 128.452 142.641 127.289 141.715L126.733 141.218L105.515 120H48.0001C44.6864 120 42.0001 117.314 42.0001 114C42.0001 110.923 44.3163 108.387 47.3004 108.04L48.0001 108H96.0003C112.133 108 125.291 95.2662 125.973 79.3013L126 78V48L126.04 47.3003C126.387 44.3162 128.923 42 132 42ZM96 6C105.941 6 114 14.0589 114 24V78C114 87.9411 105.941 96 96 96H38.4853L17.2669 117.218C14.6894 119.796 10.5106 119.796 7.9331 117.218C6.69536 115.981 6 114.302 6 112.551V24C6 14.0589 14.0589 6 24 6H96Z" fill="black"/>
</svg>
