<svg width="24" height="24" viewBox="0 0 24 24" fill="none" xmlns="http://www.w3.org/2000/svg">
<path d="M12 23C5.9249 23 1 18.0751 1 12C1 5.9249 5.9249 1 12 1C18.0751 1 23 5.9249 23 12C23 18.0751 18.0751 23 12 23ZM17.2071 9.7071C17.5976 9.3166 17.5976 8.6834 17.2071 8.2929C16.8166 7.9024 16.1834 7.9024 15.7929 8.2929L10.5 13.5858L8.7071 11.7929C8.3166 11.4024 7.6834 11.4024 7.2929 11.7929C6.9024 12.1834 6.9024 12.8166 7.2929 13.2071L9.7929 15.7071C10.1834 16.0976 10.8166 16.0976 11.2071 15.7071L17.2071 9.7071Z" fill="white"/>
</svg>
