<svg width="24" height="24" viewBox="0 0 24 24" fill="none" xmlns="http://www.w3.org/2000/svg">
<path d="M12 22C6.4771 22 2 17.5228 2 12C2 6.4771 6.4771 2 12 2C17.5228 2 22 6.4771 22 12C22 17.5228 17.5228 22 12 22ZM13 5.8889C13 5.3366 12.5523 4.8889 12 4.8889C11.4477 4.8889 11 5.3366 11 5.8889L11 11.9999C11 12.2652 11.1054 12.5195 11.2929 12.707L15.1818 16.596C15.5723 16.9865 16.2055 16.9865 16.596 16.596C16.9865 16.2055 16.9865 15.5723 16.596 15.1818L13 11.5857L13 5.8889Z" fill="black"/>
</svg>
