<svg width="24" height="24" viewBox="0 0 24 24" fill="none" xmlns="http://www.w3.org/2000/svg">
<path d="M2.7071 1.2929L3.6438 2.2295C3.7684 2.156 3.8956 2.0862 4.0251 2.0202C4.8384 1.6058 5.7338 1.4237 6.8073 1.336C7.8597 1.25 9.1677 1.25 10.8288 1.25L10.8288 1.25L10.8733 1.25L13.1266 1.25L13.1711 1.25L13.1711 1.25C14.8323 1.25 16.1402 1.25 17.1926 1.336C18.2661 1.4237 19.1615 1.6058 19.9748 2.0202C21.3045 2.6977 22.3856 3.7788 23.0631 5.1085C23.4779 5.9227 23.6598 6.8224 23.7474 7.9021C23.8333 8.9614 23.8333 10.28 23.8333 11.9558L23.8333 12L23.8333 12.0442C23.8333 13.72 23.8333 15.0386 23.7474 16.0979C23.6598 17.1776 23.4779 18.0773 23.0631 18.8915C22.7602 19.486 22.3766 20.0308 21.9262 20.512L22.7071 21.2929C23.0976 21.6834 23.0976 22.3166 22.7071 22.7071C22.3166 23.0976 21.6834 23.0976 21.2929 22.7071L11.2929 12.7071L1.2929 2.7071C0.9024 2.3166 0.9024 1.6834 1.2929 1.2929C1.6834 0.9024 2.3166 0.9024 2.7071 1.2929ZM5.1261 3.7119L12.1807 10.7665L12.1807 9.2917C12.1807 8.7943 12.5838 8.3911 13.0812 8.3911C13.5785 8.3911 13.9817 8.7943 13.9817 9.2917L13.9817 12.5675L15.7036 14.2894L15.7036 12L15.7036 10.1583L15.7036 10.1353L15.7036 10.1352L15.7036 10.1352L15.7036 10.1352L15.7036 10.1352L15.7036 10.1352L15.7036 10.1352C15.7036 10.004 15.7035 9.8572 15.714 9.7292C15.7259 9.5832 15.7558 9.3846 15.8608 9.1786C15.9991 8.9072 16.2197 8.6866 16.4911 8.5483C16.6971 8.4433 16.8957 8.4134 17.0417 8.4015C17.1696 8.391 17.3166 8.3911 17.4477 8.3911L17.4708 8.3911L19.3125 8.3911C19.8098 8.3911 20.213 8.7943 20.213 9.2917C20.213 9.789 19.8098 10.1922 19.3125 10.1922L17.5046 10.1922L17.5046 11.0995L19.3125 11.0995C19.8098 11.0995 20.213 11.5027 20.213 12C20.213 12.4974 19.8098 12.9005 19.3125 12.9005L17.5046 12.9005L17.5046 14.7083C17.5046 15.082 17.2771 15.4025 16.953 15.5388L20.5109 19.0967C20.8145 18.7638 21.074 18.3899 21.2811 17.9836C21.5274 17.5 21.6762 16.8942 21.7539 15.9362C21.8325 14.9672 21.8333 13.7297 21.8333 12C21.8333 10.2703 21.8325 9.0328 21.7539 8.0638C21.6762 7.1058 21.5274 6.5 21.2811 6.0164C20.7953 5.0631 20.0202 4.288 19.0668 3.8022C18.5824 3.5554 17.9796 3.4069 17.0298 3.3293C16.0683 3.2508 14.842 3.25 13.1266 3.25L10.8733 3.25C9.158 3.25 7.9316 3.2508 6.9702 3.3293C6.1424 3.397 5.5781 3.5184 5.1261 3.7119ZM17.6365 20.605L19.2982 22.2667C18.6664 22.4854 17.9771 22.5999 17.1926 22.664C16.1402 22.75 14.8323 22.75 13.1711 22.75L13.1266 22.75L10.8733 22.75L10.8288 22.75C9.1676 22.75 7.8597 22.75 6.8073 22.664C5.7338 22.5763 4.8384 22.3942 4.0251 21.9798C2.6954 21.3023 1.6143 20.2212 0.9368 18.8915C0.522 18.0773 0.3401 17.1776 0.2526 16.0979C0.1666 15.0386 0.1666 13.7201 0.1666 12.0443L0.1666 12.0443L0.1666 12L0.1666 11.9557L0.1666 11.9557C0.1666 10.2799 0.1666 8.9614 0.2526 7.9021C0.3401 6.8224 0.522 5.9227 0.9368 5.1085C1.0704 4.8463 1.2197 4.5937 1.3835 4.3521L2.8343 5.8028C2.7942 5.873 2.7557 5.9442 2.7189 6.0164C2.4725 6.5 2.3237 7.1058 2.246 8.0638C2.1674 9.0328 2.1666 10.2703 2.1666 12C2.1666 13.7297 2.1674 14.9672 2.246 15.9362C2.3237 16.8942 2.4725 17.5 2.7189 17.9836C3.2046 18.9369 3.9797 19.712 4.9331 20.1978C5.4175 20.4446 6.0204 20.5931 6.9702 20.6707C7.9316 20.7492 9.158 20.75 10.8733 20.75L13.1266 20.75C14.842 20.75 16.0683 20.7492 17.0298 20.6707C17.2497 20.6527 17.451 20.6309 17.6365 20.605ZM3.787 12C3.787 10.5815 4.6054 9.3541 5.7958 8.7643L7.2311 10.1996C6.3098 10.2828 5.588 11.0571 5.588 12C5.588 12.9984 6.3974 13.8078 7.3958 13.8078C7.9991 13.8078 8.5759 13.4809 8.8315 12.9005L8.4791 12.9005C7.9818 12.9005 7.5786 12.4973 7.5786 12C7.5786 11.607 7.8303 11.2728 8.1814 11.1499L10.5334 13.5019C10.0005 14.8738 8.6705 15.6088 7.3958 15.6088C5.4027 15.6088 3.787 13.9931 3.787 12Z" fill="white"/>
</svg>
