<svg width="24" height="24" viewBox="0 0 24 24" fill="none" xmlns="http://www.w3.org/2000/svg">
<path d="M3.7071 2.2929L8.975 7.5608L10.6195 3.6916C11.137 2.4739 12.8629 2.4739 13.3805 3.6916L15.3541 8.3354L20.4008 8.7624C21.7241 8.8744 22.2599 10.524 21.2549 11.3922L17.4245 14.7013L17.8242 16.41L21.7071 20.2929C22.0976 20.6834 22.0976 21.3166 21.7071 21.7071C21.3166 22.0976 20.6834 22.0976 20.2929 21.7071L11.2929 12.7071L2.2929 3.7071C1.9024 3.3166 1.9024 2.6834 2.2929 2.2929C2.6834 1.9024 3.3166 1.9024 3.7071 2.2929ZM10.5 9.0858L12.7071 11.2929L15.4495 14.0352C15.534 13.7881 15.6831 13.5627 15.8881 13.3856L19.0487 10.6552L14.8854 10.3029C14.3314 10.2561 13.8488 9.9066 13.6313 9.395L12 5.5566L10.5 9.0858ZM15.6977 18.5248L18.1853 21.0124C17.731 21.4706 16.9927 21.6385 16.3409 21.2463L12 18.6335L7.659 21.2463C6.5226 21.9303 5.1228 20.911 5.425 19.6194L6.5755 14.7013L2.745 11.3922C1.7401 10.524 2.2759 8.8744 3.5992 8.7624L5.7531 8.5802L7.6037 10.4308L4.9513 10.6552L8.1118 13.3856C8.534 13.7503 8.7189 14.3191 8.5918 14.8623L7.6421 18.9222L11.2265 16.7648C11.7024 16.4783 12.2976 16.4783 12.7735 16.7648L15.6977 18.5248Z" fill="white"/>
</svg>
