<svg width="24" height="24" viewBox="0 0 24 24" fill="none" xmlns="http://www.w3.org/2000/svg">
<path d="M4.4794 2C4.6328 2 4.7572 2.1198 4.7572 2.2676L4.7572 2.4167C4.7572 3.3371 5.6629 4.2104 6.5833 4.2104L6.7085 4.2104C6.8695 4.2104 7 4.3362 7 4.4913C7 4.6463 6.8695 4.7721 6.7085 4.7721L6.5833 4.7721C5.6629 4.7721 4.7572 5.6629 4.7572 6.5833L4.7572 6.7324C4.7572 6.8802 4.6328 7 4.4794 7C4.326 7 4.2016 6.8802 4.2016 6.7324L4.2016 6.5833C4.2016 5.6629 3.3371 4.7721 2.4167 4.7721L2.2915 4.7721C2.1305 4.7721 2 4.6463 2 4.4913C2 4.3362 2.1305 4.2104 2.2915 4.2104L2.4167 4.2104C3.3371 4.2104 4.2016 3.3371 4.2016 2.4167L4.2016 2.2676C4.2016 2.1198 4.326 2 4.4794 2ZM8.4877 6C8.5797 6 8.6543 6.0719 8.6543 6.1606L8.6543 6.25C8.6543 6.8023 9.1977 7.3263 9.75 7.3263L9.8251 7.3263C9.9217 7.3262 10 7.4017 10 7.4947C10 7.5878 9.9217 7.6632 9.8251 7.6632L9.75 7.6632C9.1977 7.6632 8.6543 8.1977 8.6543 8.75L8.6543 8.8394C8.6543 8.9281 8.5797 9 8.4877 9C8.3956 9 8.321 8.9281 8.321 8.8394L8.321 8.75C8.321 8.1977 7.8023 7.6632 7.25 7.6632L7.1749 7.6632C7.0783 7.6632 7 7.5878 7 7.4947C7 7.4017 7.0783 7.3263 7.1749 7.3263L7.25 7.3263C7.8023 7.3263 8.321 6.8023 8.321 6.25L8.321 6.1605C8.321 6.0719 8.3956 6 8.4877 6ZM16.3555 7.4175C16.3555 10.0266 15.4921 12.2569 13.8708 13.8344C12.2522 15.4092 9.9727 16.242 7.3086 16.242C6.3254 16.242 5.4118 16.1313 4.578 15.8967C5.9883 18.4721 8.6013 20 11.9053 20C16.8273 20 20.25 16.5285 20.25 11.8517C20.25 8.5129 18.4915 5.5903 15.9139 4.2909C16.1918 5.1497 16.3555 6.2962 16.3555 7.4175ZM13.9973 2.517C14.6088 1.841 15.4925 1.9509 16.059 2.1678L16.059 2.1677L16.0667 2.1707C19.8187 3.6423 22.25 7.5561 22.25 11.8517C22.25 17.6578 17.9071 22 11.9053 22C7.6259 22 4.1276 19.826 2.4617 16.13C2.1982 15.556 2.0801 14.6722 2.7302 14.0612L2.7329 14.0587C3.309 13.5212 4.0809 13.6135 4.5591 13.7824C4.5702 13.7863 4.5811 13.7904 4.592 13.7947C5.3263 14.0833 6.2245 14.242 7.3086 14.242C9.5548 14.242 11.2988 13.5464 12.4761 12.401C13.6505 11.2582 14.3555 9.5763 14.3555 7.4175C14.3555 6.1412 14.1047 5.0138 13.8671 4.5408L13.867 4.5409L13.8619 4.5305C13.6047 4.0034 13.4433 3.212 13.9556 2.5663C13.969 2.5494 13.9829 2.533 13.9973 2.517Z" fill="black"/>
</svg>
