<svg width="24" height="24" viewBox="0 0 24 24" fill="none" xmlns="http://www.w3.org/2000/svg">
<path fill-rule="evenodd" clip-rule="evenodd" d="M12 2.5C14.3137 2.5 16.4561 2.90873 18.0576 3.60938C18.8566 3.95897 19.5661 4.4008 20.0898 4.94238C20.6182 5.48894 21 6.18589 21 7V17C21 17.8141 20.6182 18.5111 20.0898 19.0576C19.5661 19.5992 18.8566 20.0411 18.0576 20.3906C16.4561 21.0913 14.3137 21.5 12 21.5C9.6863 21.5 7.54386 21.0913 5.94238 20.3906C5.14332 20.0411 4.43386 19.5992 3.91016 19.0576C3.38176 18.5111 3 17.8141 3 17V7C3 6.18589 3.38176 5.48894 3.91016 4.94238C4.43385 4.4008 5.14332 3.95897 5.94238 3.60938C7.54386 2.90873 9.6863 2.5 12 2.5ZM19 14.9072C18.7059 15.0848 18.3894 15.2454 18.0576 15.3906C16.4561 16.0913 14.3137 16.5 12 16.5C9.6863 16.5 7.54386 16.0913 5.94238 15.3906C5.61057 15.2454 5.29402 15.0848 5 14.9072V17C5 17.1524 5.06652 17.3762 5.34766 17.667C5.63356 17.9627 6.09569 18.2749 6.74414 18.5586C8.03809 19.1247 9.89549 19.5 12 19.5C14.1046 19.5 15.962 19.1247 17.2559 18.5586C17.9044 18.2749 18.3664 17.9627 18.6523 17.667C18.9334 17.3762 19 17.1524 19 17V14.9072ZM19 9.90723C18.7059 10.0848 18.3894 10.2454 18.0576 10.3906C16.4561 11.0913 14.3137 11.5 12 11.5C9.6863 11.5 7.54386 11.0913 5.94238 10.3906C5.61057 10.2454 5.29402 10.0848 5 9.90723V12C5 12.1524 5.06653 12.3762 5.34766 12.667C5.63356 12.9627 6.09569 13.2749 6.74414 13.5586C8.03809 14.1247 9.89549 14.5 12 14.5C14.1046 14.5 15.962 14.1247 17.2559 13.5586C17.9044 13.2749 18.3664 12.9627 18.6523 12.667C18.9334 12.3762 19 12.1524 19 12V9.90723ZM12 4.5C9.89549 4.5 8.03809 4.87533 6.74414 5.44141C6.09569 5.72511 5.63356 6.03729 5.34766 6.33301C5.06653 6.62386 5 6.84765 5 7C5 7.15235 5.06653 7.37614 5.34766 7.66699C5.63356 7.96271 6.09569 8.27489 6.74414 8.55859C8.03809 9.12467 9.89549 9.5 12 9.5C14.1046 9.5 15.962 9.12468 17.2559 8.55859C17.9044 8.27489 18.3664 7.96271 18.6523 7.66699C18.9334 7.37614 19 7.15236 19 7C19 6.84764 18.9334 6.62386 18.6523 6.33301C18.3664 6.03729 17.9044 5.72511 17.2559 5.44141C15.962 4.87532 14.1046 4.5 12 4.5Z" fill="black"/>
</svg>
