<svg width="24" height="24" viewBox="0 0 24 24" fill="none" xmlns="http://www.w3.org/2000/svg">
<path d="M18 6.5C18.5523 6.5 19 6.94772 19 7.5V18C19 19.6569 17.6569 21 16 21H8C6.34315 21 5 19.6569 5 18V7.5C5 6.94772 5.44772 6.5 6 6.5H18ZM10 2H14C14.221 2 14.4345 2.07316 14.608 2.20608L14.7071 2.29289L15.415 3H19C19.5128 3 19.9355 3.38604 19.9933 3.88338L20 4C20 4.51284 19.614 4.93551 19.1166 4.99327L19 5H5C4.44772 5 4 4.55228 4 4C4 3.48716 4.38604 3.06449 4.88338 3.00673L5 3H8.584L9.29289 2.29289C9.44917 2.13661 9.65185 2.0374 9.86856 2.00867L10 2Z" fill="black"/>
</svg>
