<svg width="24" height="24" viewBox="0 0 24 24" fill="none" xmlns="http://www.w3.org/2000/svg">
<path fill-rule="evenodd" clip-rule="evenodd" d="M10.4629 2.00002C11.3316 1.99976 11.9334 2.00009 12.5107 2.13869C13.0208 2.26118 13.5089 2.46325 13.9561 2.73732C14.4621 3.04749 14.887 3.4727 15.501 4.08693L15.582 4.16701L19.833 8.41799L19.9131 8.49904C20.5276 9.11316 20.9535 9.53868 21.2637 10.0449C21.5375 10.492 21.739 10.9795 21.8613 11.4893C21.9999 12.0666 22.0003 12.6684 22 13.5371V14.6426C22 15.7264 22.0002 16.6008 21.9424 17.3086C21.8828 18.0374 21.7567 18.6775 21.4551 19.2696C20.9758 20.2105 20.2103 20.9758 19.2695 21.4551C18.6773 21.7568 18.0373 21.8828 17.3086 21.9424C16.6008 22.0002 15.7264 22 14.6426 22H9.35742C8.27371 22 7.39925 22.0002 6.69141 21.9424C5.9627 21.8828 5.32266 21.7568 4.73047 21.4551C3.78966 20.9758 3.02429 20.2105 2.54492 19.2696C2.24327 18.6775 2.11716 18.0374 2.05762 17.3086C1.99978 16.6007 1.99999 15.7264 2 14.6426V9.35744C1.99999 8.27366 1.99978 7.39931 2.05762 6.69143C2.11716 5.96271 2.24325 5.3227 2.54492 4.73049C3.02429 3.78968 3.78966 3.02431 4.73047 2.54494C5.32266 2.2433 5.96271 2.11717 6.69141 2.05764C7.39928 1.99981 8.27367 2.00001 9.35742 2.00002H10.4629ZM9.40039 4.00002C8.26396 4.00002 7.47129 4.00042 6.85449 4.0508C6.24932 4.10025 5.90105 4.19298 5.6377 4.32717C5.07347 4.61473 4.61473 5.0735 4.32715 5.63771C4.19296 5.90106 4.10022 6.24934 4.05078 6.85451C4.0004 7.47132 4 8.26394 4 9.40041V14.5996C4 15.736 4.00041 16.5287 4.05078 17.1455C4.10022 17.7506 4.19296 18.0989 4.32715 18.3623C4.61472 18.9266 5.07345 19.3853 5.6377 19.6729C5.90105 19.8071 6.24932 19.8998 6.85449 19.9492C7.47129 19.9996 8.26395 20 9.40039 20H14.5996C15.736 20 16.5287 19.9996 17.1455 19.9492C17.7506 19.8998 18.0989 19.8071 18.3623 19.6729C18.9266 19.3853 19.3853 18.9266 19.6729 18.3623C19.8071 18.0989 19.8998 17.7506 19.9492 17.1455C19.9996 16.5287 20 15.736 20 14.5996V13.6514C20 13.3957 19.9998 13.1817 19.998 13H16.7588C15.9538 13 15.2892 13.0003 14.748 12.9561C14.186 12.9102 13.669 12.8118 13.1836 12.5645C12.4311 12.181 11.819 11.5689 11.4355 10.8164C11.1883 10.331 11.0898 9.81405 11.0439 9.25197C10.9997 8.71078 11 8.04619 11 7.24123V4.00197C10.8183 4.00019 10.6043 4.00002 10.3486 4.00002H9.40039ZM13 7.20021C13 8.05665 13.0013 8.63884 13.0381 9.08889C13.0739 9.5273 13.1381 9.75182 13.2178 9.90822C13.4095 10.2845 13.7156 10.5905 14.0918 10.7822C14.2482 10.8619 14.4727 10.9271 14.9111 10.9629C15.3612 10.9997 15.9434 11 16.7998 11H19.5C19.3292 10.7507 19.0657 10.4808 18.418 9.83303L14.167 5.58205C13.5192 4.93426 13.2493 4.67076 13 4.50002V7.20021Z" fill="black"/>
</svg>
