<svg width="24" height="24" viewBox="0 0 24 24" fill="none" xmlns="http://www.w3.org/2000/svg">
<path d="M5 19H19C19.5523 19 20 19.4477 20 20C20 20.5128 19.614 20.9355 19.1166 20.9933L19 21H5C4.44772 21 4 20.5523 4 20C4 19.4872 4.38604 19.0645 4.88338 19.0067L5 19ZM11.8834 3.00673L12 3C12.5128 3 12.9355 3.38604 12.9933 3.88338L13 4V13.585L16.2929 10.2929C16.6534 9.93241 17.2206 9.90468 17.6129 10.2097L17.7071 10.2929C18.0676 10.6534 18.0953 11.2206 17.7903 11.6129L17.7071 11.7071L12.7071 16.7071C12.3466 17.0676 11.7794 17.0953 11.3871 16.7903L11.2929 16.7071L6.29289 11.7071C5.90237 11.3166 5.90237 10.6834 6.29289 10.2929C6.65338 9.93241 7.22061 9.90468 7.6129 10.2097L7.70711 10.2929L11 13.585V4C11 3.48716 11.386 3.06449 11.8834 3.00673Z" fill="black"/>
</svg>
