<svg width="24" height="24" viewBox="0 0 24 24" fill="none" xmlns="http://www.w3.org/2000/svg">
<path d="M8.1756 1.43437C8.48831 0.979144 9.11085 0.863612 9.56607 1.17632C10.35 1.7148 11.0928 2.45743 11.7998 3.40009C12.0191 3.69247 12.2093 3.96888 12.3695 4.23173C12.5463 3.9405 12.7784 3.62355 13.0642 3.28058C14.0213 2.13205 15.3547 1.46523 17.0642 1.28013C16.8572 2.41978 16.4567 3.38328 15.8626 4.17062L16.0134 4.15056C17.4329 4.00185 18.651 4.26433 19.6356 5.06411L20.0196 5.39485C25.1925 9.99509 22.9757 20.7289 16.3161 22.9488L16.2163 22.9764C15.1852 23.205 14.5035 23.1605 13.658 22.8902L13.0685 22.6864C12.655 22.548 12.3938 22.5001 11.9999 22.5001C11.6062 22.5001 11.3451 22.5481 10.9318 22.6865L10.3415 22.8909C9.4958 23.1615 8.81354 23.2058 7.78252 22.9762L7.68363 22.9488C0.897904 20.6869 -1.2164 9.69252 4.44516 5.16808C6.25957 3.95848 7.75749 3.86171 9.83199 4.43706L10.1442 4.52649C9.5785 3.78446 9.00671 3.2185 8.43365 2.82484C7.97842 2.51213 7.86289 1.8896 8.1756 1.43437ZM5.62455 6.781C1.29601 10.2438 3.0091 19.231 8.26777 21.0351C8.88021 21.1668 9.21482 21.1503 9.71359 20.9921L9.90918 20.9261L10.3336 20.7778C10.9216 20.5834 11.3685 20.5001 11.9999 20.5001C12.6313 20.5001 13.078 20.5833 13.666 20.7774L14.2854 20.9912C14.7222 21.1296 15.0332 21.1598 15.5147 21.0772L15.7324 21.035L15.9607 20.9512C20.9334 19.0076 22.6248 10.4642 18.7008 6.89952L18.3795 6.62281C17.8238 6.18466 17.1372 6.04377 16.2218 6.13967C15.7702 6.18698 15.3185 6.2803 14.6609 6.45263L13.446 6.77623L13.0948 6.86332C12.6789 6.96142 12.4519 6.99121 12.1702 6.99826L11.8943 6.9994C11.4851 6.9933 11.2174 6.94626 10.5733 6.75391L9.5257 6.42977C7.83603 5.92669 6.85423 5.96552 5.62455 6.781Z" fill="black"/>
</svg>
