<svg width="24" height="24" viewBox="0 0 24 24" fill="none" xmlns="http://www.w3.org/2000/svg">
<path d="M19.4142 3L21 4.5858C21.781 5.3668 21.781 6.6332 21 7.4142L18.7071 9.7071L17.7071 10.7071L7.7071 20.7071C7.5196 20.8946 7.2652 21 7 21L4 21C3.7348 21 3.4804 20.8946 3.2929 20.7071C3.1054 20.5196 3 20.2652 3 20L3 17C3 16.7348 3.1054 16.4804 3.2929 16.2929L13.2929 6.2929L14.2929 5.2929C14.2932 5.2926 14.2936 5.2922 14.2939 5.2919L16.5858 3C17.3668 2.2189 18.6332 2.2189 19.4142 3ZM18 7.5858L19.5858 6L18 4.4142L16.4142 6L18 7.5858ZM15 7.4142L14.7071 7.7071L5 17.4142L5 19L6.5858 19L16.2929 9.2929L16.5858 9L15 7.4142Z" fill="black"/>
</svg>
