<svg width="24" height="24" viewBox="0 0 24 24" fill="none" xmlns="http://www.w3.org/2000/svg">
<path d="M3.0003 12.0013C3.0022 12.0151 3.0158 12.115 3.1049 12.3159C3.1976 12.5246 3.347 12.7869 3.56 13.0876C3.9854 13.6882 4.625 14.3866 5.446 15.0499C7.0923 16.3801 9.3783 17.5 12.0037 17.5C14.6525 17.5 16.9361 16.3793 18.5729 15.0512C19.3896 14.3886 20.0238 13.691 20.4451 13.091C20.656 12.7906 20.8039 12.5284 20.8956 12.3196C20.986 12.1137 20.9984 12.0128 20.9998 12.001L20.9999 12.0001L20.9998 11.9989C20.9981 11.9861 20.9852 11.8856 20.8954 11.682C20.8033 11.4732 20.6547 11.211 20.4429 10.9104C20.0199 10.3101 19.3835 9.6122 18.5651 8.9493C16.9246 7.6202 14.6407 6.5 12.0037 6.5C9.394 6.5 7.1077 7.6193 5.4564 8.9507C4.6331 9.6145 3.9906 10.3132 3.5629 10.9143C3.3487 11.2151 3.1984 11.4775 3.1052 11.6861C3.0166 11.8846 3.0025 11.9838 3.0004 11.9986L3.0001 12.0001L3.0003 12.0013ZM12.0037 4.5C15.214 4.5 17.9283 5.8594 19.8241 7.3952C20.7739 8.1647 21.5402 8.9955 22.0778 9.7584C22.3463 10.1394 22.5676 10.5174 22.7252 10.8747C22.8758 11.2161 23 11.6089 23 12C23 12.39 22.8768 12.7823 22.7268 13.1237C22.5699 13.481 22.3496 13.859 22.0819 14.2402C21.5461 15.0034 20.7818 15.8345 19.8331 16.6043C17.9391 18.141 15.2246 19.5 12.0037 19.5C8.8042 19.5 6.0883 18.1402 4.189 16.6056C3.2372 15.8365 2.468 15.0061 1.9279 14.2436C1.6581 13.8627 1.4356 13.4848 1.2769 13.1273C1.1255 12.7861 1 12.3924 1 12C1 11.6062 1.1267 11.2117 1.2791 10.8706C1.4387 10.5131 1.6625 10.1353 1.9334 9.7546C2.4759 8.9924 3.2477 8.1624 4.201 7.3938C6.1027 5.8604 8.8183 4.5 12.0037 4.5ZM14 12C14 10.8954 13.1046 10 12 10C10.8954 10 10 10.8954 10 12C10 13.1046 10.8954 14 12 14C13.1046 14 14 13.1046 14 12ZM16 12C16 14.2091 14.2091 16 12 16C9.7909 16 8 14.2091 8 12C8 9.7909 9.7909 8 12 8C14.2091 8 16 9.7909 16 12Z" fill="white"/>
</svg>
