<svg width="24" height="24" viewBox="0 0 24 24" fill="none" xmlns="http://www.w3.org/2000/svg">
<path d="M3.24742 4.34151C3.58313 3.95784 4.14726 3.89244 4.55897 4.1707L4.6585 4.24744L20.6585 18.2474C21.0741 18.6111 21.1163 19.2429 20.7526 19.6585C20.4169 20.0422 19.8527 20.1076 19.441 19.8293L19.3415 19.7526L16.678 17.4223C15.312 18.0693 13.7335 18.5 12.0037 18.5C6.17877 18.5 2 13.5407 2 12C2 11.135 3.32652 9.19252 5.51559 7.65502L3.3415 5.75259C2.92586 5.38891 2.88374 4.75715 3.24742 4.34151ZM8 12C8 14.2092 9.79086 16 12 16C12.8369 16 13.6138 15.743 14.2561 15.3035L12.1815 13.4891C12.122 13.4963 12.0614 13.5 12 13.5C11.1773 13.5 10.5093 12.8377 10.5001 12.0172L8.42585 10.2021C8.15342 10.7426 8 11.3534 8 12ZM12.0037 5.50001C17.851 5.50001 22 10.4593 22 12C22 12.6358 21.2972 13.8539 20.0591 15.0653L15.9671 11.4843C15.7225 9.58429 14.1448 8.10176 12.2022 8.00504L11.984 8.00001L9.48428 5.81334C10.2814 5.61421 11.1243 5.50001 12.0037 5.50001Z" fill="black"/>
</svg>
