<svg width="24" height="24" viewBox="0 0 24 24" fill="none" xmlns="http://www.w3.org/2000/svg">
<path d="M3.7071 2.2929L7.0386 5.6244C8.4945 4.9501 10.1714 4.5 12.0037 4.5C15.214 4.5 17.9283 5.8594 19.8241 7.3952C20.7739 8.1647 21.5402 8.9955 22.0778 9.7584C22.3463 10.1394 22.5676 10.5174 22.7252 10.8747C22.8758 11.2161 23 11.6089 23 12C23 12.39 22.8768 12.7823 22.7268 13.1237C22.5699 13.481 22.3496 13.859 22.0819 14.2402C21.5461 15.0034 20.7818 15.8345 19.8331 16.6043C19.5082 16.8679 19.1592 17.1262 18.7876 17.3734L21.7071 20.2929C22.0976 20.6834 22.0976 21.3166 21.7071 21.7071C21.3166 22.0976 20.6834 22.0976 20.2929 21.7071L2.2929 3.7071C1.9024 3.3166 1.9024 2.6834 2.2929 2.2929C2.6834 1.9024 3.3166 1.9024 3.7071 2.2929ZM8.5642 7.15L9.968 8.5538C10.5635 8.2019 11.2582 8 12 8C14.2091 8 16 9.7909 16 12C16 12.7418 15.7981 13.4365 15.4462 14.032L17.3403 15.9261C17.7833 15.653 18.1953 15.3576 18.5729 15.0512C19.3896 14.3886 20.0238 13.691 20.4451 13.091C20.656 12.7906 20.8039 12.5284 20.8956 12.3196C20.986 12.1137 20.9984 12.0128 20.9998 12.001L20.9999 12.0001L20.9998 11.9989C20.9981 11.9861 20.9852 11.8856 20.8954 11.682C20.8033 11.4732 20.6547 11.211 20.4429 10.9104C20.0199 10.3101 19.3835 9.6122 18.5651 8.9493C16.9246 7.6202 14.6407 6.5 12.0037 6.5C10.7746 6.5 9.6173 6.7483 8.5642 7.15ZM13.9323 12.518C13.9764 12.3528 14 12.1792 14 12C14 10.8954 13.1046 10 12 10C11.8208 10 11.6472 10.0236 11.482 10.0677L13.9323 12.518ZM4.201 7.3938C4.268 7.3397 4.3361 7.2859 4.4052 7.2323L5.8325 8.6596C5.7037 8.7552 5.5783 8.8524 5.4564 8.9507C4.6331 9.6145 3.9906 10.3132 3.5629 10.9143C3.3487 11.2151 3.1984 11.4775 3.1052 11.6861C3.0166 11.8846 3.0025 11.9838 3.0004 11.9986L3.0001 12.0001L3.0003 12.0013C3.0022 12.0151 3.0158 12.115 3.1049 12.3159C3.1976 12.5246 3.347 12.7869 3.56 13.0876C3.9854 13.6882 4.625 14.3866 5.446 15.0499C7.0923 16.3801 9.3783 17.5 12.0037 17.5C12.8318 17.5 13.6241 17.3905 14.3722 17.1993L15.9711 18.7982C14.7671 19.2315 13.4354 19.5 12.0037 19.5C8.8042 19.5 6.0883 18.1402 4.189 16.6056C3.2372 15.8365 2.468 15.0061 1.9279 14.2436C1.6581 13.8627 1.4356 13.4848 1.2769 13.1273C1.1255 12.7861 1 12.3924 1 12C1 11.6062 1.1267 11.2117 1.2791 10.8706C1.4387 10.5131 1.6625 10.1353 1.9334 9.7546C2.4759 8.9924 3.2477 8.1624 4.201 7.3938ZM8 12C8 11.6413 8.0472 11.2936 8.1358 10.9629L10.543 13.3701C10.5711 13.4 10.6 13.4289 10.6299 13.457L13.0371 15.8642C12.7064 15.9528 12.3587 16 12 16C9.7909 16 8 14.2091 8 12Z" fill="white"/>
</svg>
