<svg width="24" height="24" viewBox="0 0 24 24" fill="none" xmlns="http://www.w3.org/2000/svg">
<path d="M11.7287 2.98525L12.2523 3.2715C14.1464 4.25651 16.3811 4.3716 18.3726 3.57612L19.6291 3.07426C20.2859 2.81192 21 3.29567 21 4.00292V14.0346C21 14.4457 20.7484 14.8149 20.3658 14.9653L19.1102 15.4589C16.5629 16.4602 13.7117 16.304 11.2947 15.0425L10.7571 14.7513C8.95846 13.8321 6.83238 13.7945 4.99997 14.6546L5 22C5 22.5523 4.55228 23 4 23C3.48716 23 3.06449 22.614 3.00673 22.1167L3 22V4.00004C3 3.91527 3.01055 3.83296 3.0304 3.75436L3.06956 3.63642C3.163 3.39124 3.35514 3.19096 3.59773 3.08424L3.94776 2.91072C6.40752 1.67907 9.30408 1.71223 11.7287 2.98525ZM5.00099 4.62269L5 12.4993L5.30118 12.4021C7.4186 11.7601 9.7209 11.9613 11.711 12.9929L12.2499 13.2849C14.148 14.2647 16.3817 14.3824 18.3786 13.5975L19 13.3532V5.4783L18.6964 5.58901C16.2569 6.4311 13.5744 6.22793 11.2876 5.02399L10.761 4.73622C8.96458 3.8081 6.83601 3.76453 5.00099 4.62269Z" fill="black"/>
</svg>
