<svg width="24" height="24" viewBox="0 0 24 24" fill="none" xmlns="http://www.w3.org/2000/svg">
<path d="M11.32 1.5697C11.5318 1.4663 11.7643 1.4126 12 1.4126C12.2357 1.4126 12.4682 1.4663 12.68 1.5697C12.973 1.734 13.2072 1.9857 13.35 2.2897C13.4626 2.5174 13.5628 2.7511 13.65 2.9897L17.41 12.1798C17.4599 12.3019 17.4853 12.4327 17.4846 12.5646C17.484 12.6965 17.4574 12.827 17.4063 12.9487C17.3552 13.0703 17.2807 13.1807 17.187 13.2736C17.0932 13.3664 16.9821 13.4399 16.86 13.4898C16.7379 13.5397 16.6071 13.565 16.4752 13.5644C16.3432 13.5638 16.2127 13.5371 16.0911 13.4861C15.9694 13.435 15.8591 13.3605 15.7662 13.2667C15.6734 13.173 15.5999 13.0619 15.55 12.9398L14.55 10.5598L9.4 10.5598L8.4 12.9398C8.3501 13.0619 8.2766 13.173 8.1838 13.2667C8.0909 13.3605 7.9806 13.435 7.8589 13.4861C7.7373 13.5371 7.6067 13.5638 7.4748 13.5644C7.3429 13.565 7.2121 13.5397 7.09 13.4898C6.9679 13.4399 6.8568 13.3664 6.763 13.2736C6.6693 13.1807 6.5948 13.0703 6.5437 12.9487C6.4926 12.827 6.466 12.6965 6.4654 12.5646C6.4647 12.4327 6.4901 12.3019 6.54 12.1798L10.33 3.0197C10.4172 2.7811 10.5174 2.5474 10.63 2.3197C10.7727 2.0016 11.0149 1.7384 11.32 1.5697ZM12 4.2297L10.22 8.5897L13.78 8.5897L12 4.2297ZM7.5 3.5897C6.75 3.5897 6.23 3.5997 5.79 3.6497C5.5341 3.6618 5.2829 3.7229 5.05 3.8297C4.6758 4.0211 4.3714 4.3255 4.18 4.6997C4.0644 4.9578 4.0031 5.2369 4 5.5197C4 5.9697 4 6.5497 4 7.4097L4 19.1798L5.32 17.7398L5.37 17.6798C5.6256 17.4059 5.9107 17.1611 6.22 16.9498C6.4915 16.7892 6.7844 16.668 7.09 16.5898C7.4559 16.5219 7.8282 16.495 8.2 16.5098L16.2 16.5098C17.09 16.5098 17.64 16.5098 18.09 16.5098C18.3728 16.5067 18.6519 16.4454 18.91 16.3298C19.2842 16.1384 19.5886 15.834 19.78 15.4598C19.8957 15.2017 19.9569 14.9226 19.96 14.6398C19.96 14.1898 19.96 13.6098 19.96 12.7498L19.96 7.3497C19.96 6.4597 19.96 5.9097 19.96 5.4597C19.9569 5.1769 19.8957 4.8978 19.78 4.6397C19.5886 4.2655 19.2842 3.9611 18.91 3.7697C18.6771 3.6629 18.4259 3.6018 18.17 3.5897C17.77 3.5897 17.25 3.5897 16.5 3.5897C16.2348 3.5897 15.9804 3.4844 15.7929 3.2968C15.6054 3.1093 15.5 2.8549 15.5 2.5897C15.5 2.3245 15.6054 2.0702 15.7929 1.8826C15.9804 1.6951 16.2348 1.5897 16.5 1.5897C17.23 1.5897 17.85 1.5897 18.36 1.6397C18.8676 1.6723 19.3638 1.8048 19.82 2.0297C20.5699 2.4151 21.1789 3.0276 21.56 3.7797C21.7944 4.272 21.9303 4.8053 21.96 5.3497C21.96 5.8797 21.96 6.5397 21.96 7.3497L21.96 12.8398C21.96 13.6398 21.96 14.2998 21.96 14.8398C21.9303 15.3842 21.7944 15.9175 21.56 16.4098C21.1867 17.1857 20.573 17.8205 19.81 18.2198C19.3178 18.4542 18.7844 18.5901 18.24 18.6198C17.71 18.6198 17.05 18.6198 16.24 18.6198L8.33 18.6198C8.0839 18.5958 7.8361 18.5958 7.59 18.6198C7.4896 18.6407 7.3944 18.6815 7.31 18.7398C7.1093 18.8788 6.9278 19.0435 6.77 19.2298L3.71 22.2998C3.5694 22.4385 3.3908 22.5325 3.1968 22.5699C3.0028 22.6073 2.8021 22.5863 2.62 22.5098C2.4374 22.4347 2.2811 22.3074 2.1707 22.1436C2.0604 21.9799 2.001 21.7872 2 21.5898L2 7.3397C2 6.5397 2 5.8797 2 5.3397C2.0422 4.7926 2.1917 4.2591 2.44 3.7697C2.8228 3.0213 3.4316 2.4125 4.18 2.0297C4.6362 1.8048 5.1324 1.6723 5.64 1.6397C6.15 1.5897 6.77 1.5897 7.5 1.5897C7.7652 1.5897 8.0196 1.6951 8.2071 1.8826C8.3946 2.0702 8.5 2.3245 8.5 2.5897C8.5 2.8549 8.3946 3.1093 8.2071 3.2968C8.0196 3.4844 7.7652 3.5897 7.5 3.5897Z" fill="black"/>
</svg>
