<svg width="21" height="17" viewBox="0 0 21 17" fill="none" xmlns="http://www.w3.org/2000/svg">
<path d="M12.1045 0.00259331C12.6121 0.028486 13.0191 0.303532 13.2989 0.519195C13.5922 0.745235 13.9381 1.06538 14.334 1.4313L19.9024 6.57779C20.1017 6.76206 20.2949 6.9398 20.4444 7.10318C20.6073 7.28135 20.7851 7.51088 20.8897 7.81607C21.0335 8.23597 21.0335 8.69197 20.8897 9.11197C20.7851 9.41716 20.6073 9.64669 20.4444 9.82486C20.2949 9.98824 20.1017 10.166 19.9024 10.3502L14.334 15.4967C13.9381 15.8627 13.5921 16.1828 13.2989 16.4088C13.0191 16.6245 12.6121 16.8996 12.1045 16.9254C11.4763 16.9574 10.8697 16.6918 10.4668 16.2086C10.1414 15.8182 10.0677 15.3329 10.0362 14.9811C10.0032 14.6124 10.003 14.1412 10.003 13.6022V12.9967C6.98324 13.1973 4.99482 14.2907 3.74319 15.3454L3.71878 15.3649C3.25952 15.7519 2.88515 16.0684 2.60061 16.2848C2.45675 16.3941 2.30482 16.5014 2.15726 16.5846C2.05 16.6451 1.77316 16.797 1.42679 16.7848C1.20118 16.7768 0.953556 16.723 0.716826 16.5856C0.480234 16.4482 0.311247 16.2599 0.192411 16.068C0.0247501 15.7971 0.00526259 15.5154 0.00100522 15.3776C-0.00406478 15.2128 0.0107121 15.0397 0.0303021 14.8805C0.0686653 14.569 0.144988 14.1536 0.23538 13.6598L0.24124 13.6266C0.588764 11.7285 1.34129 9.3239 2.99319 7.37857C4.52538 5.57432 6.77932 4.22904 10.003 3.99869V3.32584C10.003 2.78681 10.0032 2.31568 10.0362 1.94693C10.0677 1.59509 10.1414 1.10975 10.4668 0.71939C10.8697 0.236246 11.4763 -0.0294103 12.1045 0.00259331Z" fill="black"/>
</svg>
