<svg width="24" height="24" viewBox="0 0 24 24" fill="none" xmlns="http://www.w3.org/2000/svg">
<path fill-rule="evenodd" clip-rule="evenodd" d="M14.6426 2C15.7264 1.99999 16.6007 1.99978 17.3086 2.05762C18.0373 2.11715 18.6773 2.24328 19.2695 2.54492C20.2103 3.02429 20.9758 3.78966 21.4551 4.73047C21.7567 5.32266 21.8828 5.96271 21.9424 6.69141C22.0002 7.39925 22 8.27371 22 9.35742V14.6426C22 15.7264 22.0002 16.6008 21.9424 17.3086C21.8828 18.0373 21.7567 18.6773 21.4551 19.2695C20.9758 20.2103 20.2103 20.9758 19.2695 21.4551C18.6773 21.7567 18.0373 21.8828 17.3086 21.9424C16.6008 22.0002 15.7264 22 14.6426 22H9.35742C8.27371 22 7.39925 22.0002 6.69141 21.9424C5.96271 21.8828 5.32266 21.7567 4.73047 21.4551C3.78966 20.9758 3.02429 20.2103 2.54492 19.2695C2.24328 18.6773 2.11715 18.0373 2.05762 17.3086C1.99978 16.6007 1.99999 15.7264 2 14.6426V9.35742C1.99999 8.27366 1.99978 7.39927 2.05762 6.69141C2.11716 5.9627 2.24326 5.32266 2.54492 4.73047C3.02429 3.78966 3.78966 3.02429 4.73047 2.54492C5.32266 2.24326 5.9627 2.11716 6.69141 2.05762C7.39927 1.99978 8.27366 1.99999 9.35742 2H14.6426ZM9.40039 4C8.26396 4 7.47129 4.0004 6.85449 4.05078C6.24932 4.10022 5.90106 4.19296 5.6377 4.32715C5.07347 4.61472 4.61472 5.07347 4.32715 5.6377C4.19297 5.90105 4.10022 6.24932 4.05078 6.85449C4.0004 7.47129 4 8.26395 4 9.40039V14.5996C4 15.736 4.00041 16.5287 4.05078 17.1455C4.10022 17.7506 4.19297 18.0989 4.32715 18.3623C4.61472 18.9266 5.07346 19.3853 5.6377 19.6729C5.90106 19.8071 6.24932 19.8998 6.85449 19.9492C7.47129 19.9996 8.26396 20 9.40039 20H11V4H9.40039ZM13 13V20H14.5996C15.736 20 16.5287 19.9996 17.1455 19.9492C17.7506 19.8998 18.0989 19.8071 18.3623 19.6729C18.9266 19.3853 19.3853 18.9266 19.6729 18.3623C19.8071 18.0989 19.8998 17.7506 19.9492 17.1455C19.9996 16.5287 20 15.736 20 14.5996V13H13ZM13 11H20V9.40039C20 8.26397 19.9996 7.47129 19.9492 6.85449C19.8998 6.24932 19.8071 5.90105 19.6729 5.6377C19.3853 5.07346 18.9266 4.61472 18.3623 4.32715C18.0989 4.19296 17.7506 4.10022 17.1455 4.05078C16.5287 4.00041 15.736 4 14.5996 4H13V11Z" fill="black"/>
</svg>
