<svg width="24" height="24" viewBox="0 0 24 24" fill="none" xmlns="http://www.w3.org/2000/svg">
<path fill-rule="evenodd" clip-rule="evenodd" d="M11.7119 2.4668C12.572 2.46689 13.324 2.93215 13.7285 3.625C13.9347 3.56534 14.1526 3.53323 14.3779 3.5332C15.6666 3.5332 16.7119 4.57852 16.7119 5.86719V10.0498C17.3599 9.30033 18.4559 9.05431 19.3828 9.51758C20.4441 10.0482 20.9007 11.32 20.4189 12.4043L18.1377 17.5361C17.0569 19.9674 14.6384 21.532 11.9814 21.5332H11.9336C11.4808 21.5333 11.203 21.5335 10.9609 21.5176C7.25534 21.2747 4.30343 18.3228 4.06055 14.6172C4.04469 14.3751 4.04491 14.0974 4.04492 13.6445V8C4.04499 6.71151 5.08946 5.66717 6.37793 5.66699C6.49324 5.66699 6.60693 5.67525 6.71777 5.69141C6.80746 4.48468 7.81527 3.5332 9.04492 3.5332C9.27059 3.5332 9.4889 3.56522 9.69531 3.625C10.0999 2.93223 10.8517 2.4668 11.7119 2.4668ZM11.7119 4.4668C11.5279 4.4668 11.3781 4.61586 11.3779 4.7998V11.4668C11.3779 12.0191 10.9302 12.4668 10.3779 12.4668C9.8258 12.4666 9.37793 12.019 9.37793 11.4668V5.86719C9.37793 5.68309 9.22902 5.5332 9.04492 5.5332C8.86083 5.5332 8.71192 5.68309 8.71192 5.86719V12C8.71192 12.5522 8.26406 12.9998 7.71192 13C7.15964 13 6.71192 12.5523 6.71192 12V8C6.71163 7.81615 6.56185 7.66699 6.37793 7.66699C6.19403 7.66717 6.04499 7.81608 6.04492 8V13.6006C6.04492 14.1111 6.04563 14.3182 6.05664 14.4863C6.23387 17.1904 8.38772 19.3442 11.0918 19.5215C11.26 19.5325 11.4675 19.5332 11.9785 19.5332C13.8499 19.5331 15.5519 18.4305 16.3105 16.7236L18.5908 11.5928C18.6385 11.4855 18.5933 11.3592 18.4883 11.3066C18.3798 11.2527 18.2485 11.2969 18.1943 11.4053L16.6064 14.5811C16.399 14.9958 15.9328 15.2129 15.4814 15.1064C15.0304 14.9997 14.7121 14.5973 14.7119 14.1338V5.86719C14.7119 5.68309 14.562 5.5332 14.3779 5.5332C14.194 5.53337 14.0449 5.68319 14.0449 5.86719V11.4668C14.0449 12.0191 13.5972 12.4668 13.0449 12.4668C12.4926 12.4668 12.0449 12.0191 12.0449 11.4668V4.7998C12.0447 4.61595 11.8958 4.46694 11.7119 4.4668Z" fill="black"/>
</svg>
