<svg width="24" height="24" viewBox="0 0 24 24" fill="none" xmlns="http://www.w3.org/2000/svg">
<path d="M12 1C18.0751 1 23 5.92487 23 12C23 18.0751 18.0751 23 12 23C5.92487 23 1 18.0751 1 12C1 5.92487 5.92487 1 12 1ZM12 3C7.02944 3 3 7.02944 3 12C3 16.9706 7.02944 21 12 21C16.9706 21 21 16.9706 21 12C21 7.02944 16.9706 3 12 3ZM11.9779 15.2942C12.6524 15.2942 13.1985 15.8125 13.1985 16.4733C13.1985 17.1239 12.6418 17.6524 11.9779 17.6524C11.3176 17.6524 10.7573 17.1169 10.7573 16.4733C10.7573 15.8194 11.3071 15.2942 11.9779 15.2942ZM12.3307 6.9C14.2796 6.9 15.7199 7.96861 15.7199 9.65625C15.7199 10.671 15.2885 11.3128 14.2963 12.0165L13.7963 12.3574C13.1715 12.7953 12.9391 13.1198 12.9391 13.5887V13.7133C12.9391 14.2033 12.5619 14.55 11.9987 14.55C11.4069 14.55 11.079 14.2282 11.079 13.6302V13.4954C11.079 12.5573 11.4873 11.9746 12.419 11.3276L12.762 11.0871C13.5111 10.547 13.7248 10.254 13.7248 9.73926C13.7248 8.999 13.1497 8.51113 12.2581 8.51113C11.6278 8.51113 11.1498 8.80622 10.798 9.38963L10.5277 9.73161L10.4429 9.82985C10.2453 10.0413 10.0433 10.1298 9.70557 10.1298C9.27041 10.1298 8.9 9.79174 8.9 9.31384C8.9 9.13743 8.92868 8.96537 8.98734 8.76593C9.3183 7.6785 10.624 6.9 12.3307 6.9Z" fill="black"/>
</svg>
