<svg width="24" height="24" viewBox="0 0 24 24" fill="none" xmlns="http://www.w3.org/2000/svg">
<path d="M7.1669 3.1699L16.8331 3.1699C17.365 3.1699 17.8137 3.1699 18.1812 3.1999C18.566 3.2314 18.9344 3.2998 19.2848 3.4784C19.8173 3.7497 20.2502 4.1826 20.5215 4.7151C20.7001 5.0655 20.7686 5.4339 20.8 5.8187C20.83 6.1863 20.83 6.635 20.83 7.1668L20.83 16.833C20.83 17.0351 20.83 17.2252 20.8284 17.4033C20.8301 17.4946 20.8301 17.5902 20.83 17.6924L20.83 17.9999L20.8121 17.9999C20.8088 18.0624 20.8048 18.1228 20.8 18.1811C20.7686 18.5659 20.7001 18.9343 20.5215 19.2847C20.2502 19.8172 19.8173 20.2502 19.2848 20.5215C18.9344 20.7 18.566 20.7685 18.1812 20.7999C17.8136 20.8299 17.3649 20.8299 16.8331 20.8299L7.1669 20.8299C6.6351 20.8299 6.1864 20.8299 5.8188 20.7999C5.434 20.7685 5.0656 20.7 4.7152 20.5215C4.1827 20.2502 3.7498 19.8172 3.4785 19.2847C3.2999 18.9343 3.2315 18.5659 3.2 18.1811C3.17 17.8136 3.17 17.3649 3.17 16.8331L3.17 7.1668C3.17 6.635 3.17 6.1863 3.2 5.8187C3.2315 5.4339 3.2999 5.0655 3.4785 4.7151C3.7498 4.1826 4.1827 3.7497 4.7152 3.4784C5.0656 3.2998 5.434 3.2314 5.8188 3.1999C6.1864 3.1699 6.635 3.1699 7.1669 3.1699ZM13.868 19.1699L16.8 19.1699C17.3737 19.1699 17.7541 19.1693 18.046 19.1454C18.3282 19.1224 18.4538 19.0818 18.5312 19.0424C18.7513 18.9302 18.9303 18.7512 19.0425 18.5311C19.0819 18.4537 19.1225 18.3281 19.1455 18.0459C19.1595 17.8741 19.1655 17.6716 19.1681 17.4171C19.166 17.3106 19.1619 17.2609 19.1541 17.214C19.14 17.1293 19.1166 17.0464 19.0844 16.9668C19.054 16.8918 19.0101 16.8151 18.8207 16.5061L16.8386 13.2723C16.4917 12.7063 16.2608 12.3311 16.0653 12.0691C15.8689 11.8059 15.7821 11.7624 15.7661 11.7555C15.5963 11.682 15.4037 11.682 15.234 11.7555C15.218 11.7624 15.1312 11.8059 14.9348 12.0691C14.7393 12.3311 14.5083 12.7063 14.1615 13.2723L12.2074 16.4605L13.868 19.1699ZM11.2339 14.8721L12.7666 12.3714C13.0875 11.8477 13.358 11.4065 13.6045 11.0762C13.8553 10.7402 14.1554 10.4134 14.5747 10.232C15.1652 9.9765 15.8349 9.9765 16.4253 10.232C16.8447 10.4134 17.1448 10.7402 17.3956 11.0762C17.6421 11.4065 17.9125 11.8477 18.2334 12.3714L19.17 13.8994L19.17 7.1999C19.17 6.6262 19.1694 6.2458 19.1455 5.9539C19.1225 5.6717 19.0819 5.5462 19.0425 5.4688C18.9303 5.2486 18.7513 5.0696 18.5312 4.9574C18.4538 4.918 18.3282 4.8775 18.046 4.8544C17.7541 4.8306 17.3737 4.8299 16.8 4.8299L7.2 4.8299C6.6262 4.8299 6.2459 4.8306 5.954 4.8544C5.6718 4.8775 5.5462 4.918 5.4688 4.9574C5.2487 5.0696 5.0697 5.2486 4.9575 5.4688C4.9181 5.5462 4.8776 5.6717 4.8545 5.9539C4.8307 6.2458 4.83 6.6262 4.83 7.1999L4.83 16.3996L5.7666 14.8714C6.0876 14.3477 6.358 13.9065 6.6045 13.5762C6.8553 13.2402 7.1554 12.9134 7.5747 12.732C8.1652 12.4765 8.8349 12.4765 9.4253 12.732C9.8447 12.9134 10.1448 13.2402 10.3956 13.5762C10.6421 13.9065 10.913 14.3485 11.2339 14.8721ZM5.2472 18.8956C5.3149 18.9524 5.3891 19.0018 5.4688 19.0424C5.5462 19.0818 5.6718 19.1224 5.954 19.1454C6.2459 19.1693 6.6262 19.1699 7.2 19.1699L11.9211 19.1699L9.8386 15.7723C9.4917 15.2063 9.2608 14.8311 9.0653 14.5691C8.8689 14.3059 8.7821 14.2624 8.7661 14.2555C8.5963 14.182 8.4037 14.182 8.234 14.2555C8.218 14.2624 8.1312 14.3059 7.9348 14.5691C7.7393 14.8311 7.5083 15.2063 7.1615 15.7723L5.2472 18.8956Z" fill="white"/>
</svg>
