<svg width="24" height="24" viewBox="0 0 24 24" fill="none" xmlns="http://www.w3.org/2000/svg">
<path d="M12 1C16.9706 1 21 5.02944 21 10C21 13.1375 19.2905 15.6873 16 17.5892V20C16 21.6569 14.6569 23 13 23H11C9.34315 23 8 21.6569 8 20V17.5895L7.69615 17.4094C4.60436 15.5292 3 13.0411 3 10C3 5.02944 7.02944 1 12 1ZM10 20C10 20.5523 10.4477 21 11 21H13C13.5523 21 14 20.5523 14 20H10ZM12 3C8.13401 3 5 6.13401 5 10C5 12.4959 6.43945 14.5111 9.46829 16.1164C9.79543 16.2898 10 16.6298 10 17V18H14V17C14 16.6299 14.2044 16.2901 14.5313 16.1166C17.5604 14.5095 19 12.4941 19 10C19 6.13401 15.866 3 12 3ZM12 10.8433L14.4348 9.17507C14.8904 8.8629 15.5128 8.97917 15.8249 9.43477C16.1131 9.85532 16.0362 10.418 15.6643 10.7476L15.5652 10.8249L13 12.582V15C13 15.5128 12.614 15.9355 12.1166 15.9933L12 16C11.4872 16 11.0645 15.614 11.0067 15.1166L11 15V12.583L8.43477 10.8249C8.01422 10.5368 7.88279 9.98428 8.11059 9.54265L8.17507 9.43477C8.46322 9.01422 9.01572 8.88279 9.45735 9.11059L9.56523 9.17507L12 10.8433Z" fill="black"/>
</svg>
