<svg width="24" height="24" viewBox="0 0 24 24" fill="none" xmlns="http://www.w3.org/2000/svg">
<path d="M12.4101 14.6155L10.33 12.56L10.36 12.53C12.1 10.59 13.34 8.36 14.07 6H16C16.5523 6 17 5.55228 17 5C17 4.44772 16.5523 4 16 4H10V3C10 2.44772 9.55228 2 9 2C8.44772 2 8 2.44772 8 3V4H1.995C1.44548 4 1 4.44548 1 4.995C1 5.54452 1.44548 5.99 1.995 5.99H12.17C11.5 7.92 10.44 9.75 9 11.35C8.29026 10.5639 7.6737 9.71964 7.15034 8.83488L6.969 8.51595C6.79288 8.1976 6.45777 8 6.09395 8H5.69C5.34409 8 5.06367 8.28042 5.06367 8.62633C5.06367 8.72555 5.08725 8.82335 5.13246 8.91167L5.22376 9.08634C5.88285 10.3157 6.70137 11.4829 7.67 12.56L3.2949 16.8749C2.93296 17.2319 2.90139 17.7973 3.20283 18.1906L3.29289 18.2929C3.68342 18.6834 4.31658 18.6834 4.70711 18.2929L9 14L11.3403 16.3403C11.6134 16.6134 12.0561 16.6134 12.3292 16.3403C12.4001 16.2694 12.455 16.184 12.49 16.09L12.6443 15.6759C12.7816 15.3072 12.69 14.8921 12.4101 14.6155ZM17.807 10H17.193C16.7762 10 16.403 10.2586 16.2567 10.6489L12.3511 21.0637C12.2167 21.422 12.3983 21.8215 12.7567 21.9559C12.8345 21.9851 12.9169 22 13 22H13.3059C13.7233 22 14.0968 21.7408 14.2428 21.3498L15.12 19H19.87L20.7561 21.3525C20.9029 21.7421 21.2756 22 21.6919 22H22C22.3827 22 22.693 21.6897 22.693 21.307C22.693 21.2239 22.6781 21.1415 22.6489 21.0637L18.7433 10.6489C18.597 10.2586 18.2238 10 17.807 10ZM17.5 12.67L19.12 17H15.88L17.5 12.67Z" fill="black"/>
</svg>
