<svg width="24" height="24" viewBox="0 0 24 24" fill="none" xmlns="http://www.w3.org/2000/svg">
<path d="M6.67814 10.331C7.03739 10.6903 7.06589 11.2595 6.76289 11.6525L6.67814 11.7463L5.17814 13.2463C4.44136 13.9726 4.01869 14.9588 4.00084 15.9933C3.98299 17.0277 4.37138 18.028 5.08266 18.7793C5.79394 19.5306 6.77142 19.9732 7.8053 20.012C8.83918 20.0508 9.84707 19.6827 10.6126 18.9868L10.7686 18.8368L12.2686 17.3368C12.4473 17.151 12.6908 17.0413 12.9484 17.0307C13.206 17.02 13.4577 17.1092 13.6511 17.2796C13.8446 17.45 13.9647 17.6885 13.9866 17.9453C14.0085 18.2022 13.9304 18.4576 13.7686 18.6583L13.6839 18.752L12.1839 20.252C11.0669 21.3685 9.55228 21.9956 7.97301 21.9956C6.39375 21.9956 4.87912 21.3685 3.76214 20.252C2.67632 19.1673 2.0516 17.705 2.01848 16.1706C1.98535 14.6362 2.54639 13.1483 3.58439 12.0178L3.76214 11.8303L5.26214 10.3303C5.35505 10.2373 5.46537 10.1636 5.58678 10.1133C5.7082 10.063 5.83834 10.0371 5.96976 10.0371C6.10119 10.0371 6.23133 10.063 6.35275 10.1133C6.47416 10.1636 6.58448 10.2373 6.67739 10.3303L6.67814 10.331ZM20.2411 3.77451C21.3269 4.8592 21.9516 6.3214 21.9849 7.85577C22.0182 9.39014 21.4574 10.878 20.4196 12.0088L20.2411 12.1963L18.7411 13.6963C18.5624 13.8821 18.3189 13.9917 18.0614 14.0024C17.8038 14.013 17.5521 13.9238 17.3586 13.7534C17.1652 13.583 17.045 13.3445 17.0231 13.0877C17.0013 12.8308 17.0793 12.5754 17.2411 12.3748L17.3259 12.281L18.8259 10.781C19.5627 10.0547 19.9853 9.06844 20.0032 8.03398C20.021 6.99953 19.6326 5.9993 18.9214 5.24797C18.2101 4.49664 17.2326 4.05409 16.1987 4.0153C15.1648 3.97652 14.157 4.34459 13.3914 5.04051L13.2354 5.19051L11.7354 6.69051C11.5571 6.87811 11.313 6.98929 11.0544 7.00071C10.7958 7.01212 10.5428 6.92287 10.3487 6.75171C10.1545 6.58055 10.0342 6.3408 10.0131 6.08282C9.99197 5.82485 10.0716 5.56873 10.2354 5.36826L10.3201 5.27451L11.8201 3.77451C14.1451 1.44951 17.9161 1.44951 20.2411 3.77451Z" fill="black"/>
<path d="M14.7937 10.6284C14.9435 10.4358 15.0176 10.195 15.002 9.95155C14.9864 9.70807 14.8821 9.47874 14.709 9.30688C14.616 9.21392 14.5057 9.14018 14.3843 9.08988C14.2629 9.03957 14.1328 9.01367 14.0013 9.01367C13.8699 9.01367 13.7398 9.03957 13.6183 9.08988C13.4969 9.14018 13.3866 9.21392 13.2937 9.30688L9.2902 13.3096L9.20545 13.4034C9.05565 13.596 8.98155 13.8367 8.99716 14.0802C9.01278 14.3237 9.11702 14.553 9.2902 14.7249C9.38311 14.8178 9.49343 14.8916 9.61485 14.9419C9.73626 14.9922 9.8664 15.0181 9.99783 15.0181C10.1293 15.0181 10.2594 14.9922 10.3808 14.9419C10.5022 14.8916 10.6125 14.8178 10.7055 14.7249L14.709 10.7214L14.7937 10.6284Z" fill="black"/>
</svg>
