<svg width="28" height="28" viewBox="0 0 28 28" fill="none" xmlns="http://www.w3.org/2000/svg">
<path d="M16.2559 25.3301C16.8244 25.2178 17.3766 25.5877 17.4893 26.1562C17.6018 26.7251 17.2319 27.2781 16.6631 27.3906C15.801 27.5612 14.9103 27.6504 14 27.6504C13.0897 27.6504 12.1989 27.5612 11.3369 27.3906C10.7682 27.278 10.3983 26.725 10.5107 26.1562C10.6234 25.5875 11.1763 25.2175 11.7451 25.3301C12.4736 25.4741 13.2274 25.5498 14 25.5498C14.7727 25.5498 15.5273 25.4742 16.2559 25.3301Z" fill="black"/>
<path d="M2.93848 20.1279C3.42032 19.8056 4.072 19.9352 4.39453 20.417C5.23803 21.6769 6.3231 22.762 7.58301 23.6055C8.06476 23.9281 8.19434 24.5797 7.87207 25.0615C7.54946 25.5434 6.89692 25.6732 6.41504 25.3506C4.92694 24.3543 3.64567 23.0731 2.64941 21.585C2.32697 21.1032 2.45666 20.4505 2.93848 20.1279Z" fill="black"/>
<path d="M23.6055 20.417C23.928 19.9353 24.5797 19.8058 25.0615 20.1279C25.5433 20.4505 25.6731 21.1032 25.3506 21.585C24.3544 23.0731 23.0731 24.3543 21.585 25.3506C21.1031 25.6731 20.4505 25.5434 20.1279 25.0615C19.8057 24.5797 19.9352 23.9281 20.417 23.6055C21.6769 22.762 22.762 21.6769 23.6055 20.417Z" fill="black"/>
<path d="M13.9961 6.75391C14.5179 6.75394 14.9413 7.1774 14.9414 7.69922V8.36719C16.5019 8.60577 17.6973 9.95384 17.6973 11.5811C17.697 12.1028 17.2737 12.5254 16.752 12.5254C16.2303 12.5252 15.8078 12.1027 15.8076 11.5811C15.8076 10.8293 15.198 10.2199 14.4463 10.2197H13.6895C12.8584 10.2199 12.1846 10.8935 12.1846 11.7246V12.1094C12.1846 12.6313 12.608 13.0547 13.1299 13.0547H14.8623C16.428 13.0547 17.6973 14.324 17.6973 15.8896V16.2744C17.6972 17.931 16.5108 19.3104 14.9414 19.6094V20.2998C14.9412 20.8215 14.5178 21.2441 13.9961 21.2441C13.4743 21.2441 13.051 20.8215 13.0508 20.2998V19.624C11.4867 19.3615 10.2951 18.0009 10.2949 16.3623C10.2949 15.8406 10.7176 15.4172 11.2393 15.417C11.7612 15.417 12.1846 15.8404 12.1846 16.3623C12.1848 17.145 12.8199 17.7793 13.6025 17.7793H14.3018C15.1329 17.7793 15.8076 17.1056 15.8076 16.2744V15.8896C15.8076 15.3678 15.3842 14.9444 14.8623 14.9443H13.1299C11.5642 14.9443 10.2949 13.6751 10.2949 12.1094V11.7246C10.2949 10.0681 11.4812 8.68859 13.0508 8.38965V7.69922C13.0509 7.17737 13.4742 6.75391 13.9961 6.75391Z" fill="black"/>
<path d="M14.5039 0.359375C14.5088 0.359552 14.5137 0.359193 14.5186 0.359375C14.5822 0.361751 14.6456 0.366873 14.709 0.370117C14.8108 0.375334 14.9124 0.380255 15.0137 0.387695C15.132 0.396378 15.2498 0.407267 15.3672 0.418945C15.4151 0.423711 15.463 0.427357 15.5107 0.432617C15.6258 0.445289 15.7403 0.461048 15.8545 0.476562C15.8984 0.482526 15.9426 0.487761 15.9863 0.494141C15.9906 0.494761 15.9948 0.495424 15.999 0.496094C17.3277 0.69107 18.5934 1.07813 19.7686 1.62695C19.7768 1.63056 19.7858 1.63386 19.7939 1.6377C19.8041 1.64246 19.8141 1.64756 19.8242 1.65234C19.9184 1.69686 20.0115 1.74345 20.1045 1.79004C20.1635 1.81959 20.2227 1.84853 20.2812 1.87891C20.3485 1.91383 20.4149 1.95032 20.4814 1.98633C20.567 2.03256 20.6529 2.07798 20.7373 2.12598C20.7958 2.15924 20.8532 2.19441 20.9111 2.22852C20.9932 2.27681 21.0753 2.32505 21.1562 2.375C21.2111 2.40882 21.265 2.44394 21.3193 2.47852C21.4044 2.53265 21.4895 2.58662 21.5732 2.64258C21.6529 2.69578 21.7311 2.75085 21.8096 2.80566C21.8644 2.84396 21.9194 2.88182 21.9736 2.9209C22.0422 2.9703 22.1092 3.02163 22.1768 3.07227C22.2469 3.12484 22.3176 3.17659 22.3867 3.23047C22.4358 3.26878 22.4836 3.3087 22.5322 3.34766C22.6108 3.41066 22.6895 3.4734 22.7666 3.53809C22.8014 3.56732 22.8356 3.59738 22.8701 3.62695C22.9492 3.69462 23.029 3.76163 23.1064 3.83105C23.1123 3.83629 23.1174 3.84232 23.123 3.84766C24.0581 4.68848 24.8757 5.65668 25.5498 6.72461V3.7627C25.5498 3.1828 26.0207 2.71289 26.6006 2.71289C27.1803 2.71315 27.6504 3.18295 27.6504 3.7627V9.27539C27.6502 9.85496 27.1801 10.3249 26.6006 10.3252H21.0879C20.5081 10.3252 20.0383 9.85512 20.0381 9.27539C20.0381 8.69549 20.508 8.22461 21.0879 8.22461H24.002C23.9545 8.1426 23.9078 8.06022 23.8584 7.97949L23.8564 7.97656C23.2442 6.97696 22.4836 6.07894 21.6064 5.31055C20.8162 4.61817 19.9322 4.03097 18.9746 3.57324C17.8561 3.0387 16.6382 2.67924 15.3564 2.5293C15.1973 2.5107 15.0372 2.49449 14.876 2.48242C14.7331 2.47171 14.5895 2.46445 14.4453 2.45898L14 2.4502C13.318 2.4502 12.6512 2.51205 12.0029 2.625C10.3788 2.90817 8.87097 3.52808 7.55566 4.41406C6.63364 5.03525 5.80672 5.7865 5.09961 6.64062C4.92021 6.85735 4.75037 7.0819 4.58691 7.31152C4.52994 7.39155 4.47099 7.47023 4.41602 7.55176C3.53125 8.86419 2.91247 10.3689 2.62793 11.9893C2.5134 12.6418 2.4502 13.3132 2.4502 14C2.4502 14.7726 2.52584 15.5264 2.66992 16.2549C2.78246 16.8238 2.41261 17.3767 1.84375 17.4893C1.27495 17.6018 0.722987 17.2318 0.610352 16.6631C0.439809 15.801 0.349609 14.9103 0.349609 14C0.34961 13.8979 0.351279 13.796 0.353516 13.6943C0.360794 13.3631 0.380666 13.0349 0.411133 12.71C0.424141 12.5714 0.438926 12.4333 0.456055 12.2959C0.46382 12.2336 0.472842 12.1715 0.481445 12.1094C0.503948 11.9471 0.527499 11.7855 0.555664 11.625C0.887833 9.73171 1.61114 7.97324 2.6377 6.43457C2.64177 6.42819 2.64518 6.42136 2.64941 6.41504C2.71583 6.31583 2.78361 6.21746 2.85254 6.12012C3.49157 5.21774 4.23704 4.39581 5.07129 3.67383C5.12458 3.62772 5.1794 3.58338 5.2334 3.53809C5.27714 3.50139 5.32103 3.46486 5.36523 3.42871C5.48076 3.33425 5.59816 3.24207 5.7168 3.15137C5.84965 3.04977 5.98348 2.9493 6.12012 2.85254C6.21746 2.78361 6.31583 2.71583 6.41504 2.64941C6.42136 2.64518 6.42819 2.64177 6.43457 2.6377C7.97324 1.61115 9.73171 0.887836 11.625 0.555664C11.7096 0.540806 11.7947 0.527937 11.8799 0.514648C11.8978 0.511854 11.9157 0.508584 11.9336 0.505859C12.0073 0.494662 12.0812 0.484622 12.1553 0.474609C12.2031 0.468149 12.2509 0.461042 12.2988 0.455078C12.3628 0.44712 12.427 0.440662 12.4912 0.433594C12.5326 0.429047 12.5738 0.423122 12.6152 0.418945C12.6704 0.413378 12.7259 0.409204 12.7812 0.404297C12.9593 0.388538 13.1384 0.37604 13.3184 0.367188C13.3314 0.366546 13.3444 0.365839 13.3574 0.365234C13.5704 0.355364 13.7846 0.349611 14 0.349609L14.5039 0.359375Z" fill="black"/>
<path d="M26.6006 12.9502C27.1802 12.9505 27.6504 13.4203 27.6504 14C27.6504 14.9103 27.5611 15.801 27.3906 16.6631C27.2781 17.2318 26.7251 17.6019 26.1562 17.4893C25.5875 17.3767 25.2176 16.8237 25.3301 16.2549C25.4742 15.5264 25.5498 14.7726 25.5498 14C25.5498 13.4201 26.0207 12.9502 26.6006 12.9502Z" fill="black"/>
</svg>
