<svg width="24" height="24" viewBox="0 0 24 24" fill="none" xmlns="http://www.w3.org/2000/svg">
<path fill-rule="evenodd" clip-rule="evenodd" d="M12 1C15.0376 1 17.5 3.46243 17.5 6.5V8.15039C17.7826 8.21232 18.0543 8.30201 18.3164 8.43555C19.0689 8.81903 19.681 9.4311 20.0645 10.1836C20.3117 10.669 20.4102 11.186 20.4561 11.748C20.5003 12.2892 20.5 12.9538 20.5 13.7588V16.2412C20.5 17.0462 20.5003 17.7108 20.4561 18.252C20.4102 18.814 20.3117 19.331 20.0645 19.8164C19.681 20.5689 19.0689 21.181 18.3164 21.5645C17.831 21.8117 17.314 21.9102 16.752 21.9561C16.2108 22.0003 15.5462 22 14.7412 22H9.25879C8.4538 22 7.78925 22.0003 7.24805 21.9561C6.68599 21.9102 6.16889 21.8117 5.68359 21.5645C4.93107 21.181 4.31901 20.5689 3.93555 19.8164C3.68827 19.331 3.58988 18.814 3.54395 18.252C3.49974 17.7108 3.49999 17.0462 3.5 16.2412V13.7588C3.49999 12.9538 3.49974 12.2892 3.54395 11.748C3.58988 11.186 3.68827 10.669 3.93555 10.1836C4.31901 9.43111 4.93108 8.81903 5.68359 8.43555C5.94569 8.30201 6.2174 8.21232 6.5 8.15039V6.5C6.5 3.46243 8.96243 1 12 1ZM9.29981 10C8.44337 10 7.86118 10.0013 7.41113 10.0381C6.97271 10.0739 6.7482 10.1381 6.5918 10.2178C6.21554 10.4095 5.90951 10.7156 5.71777 11.0918C5.63808 11.2482 5.57293 11.4727 5.53711 11.9111C5.50036 12.3612 5.5 12.9434 5.5 13.7998V16.2002C5.5 17.0566 5.50036 17.6388 5.53711 18.0889C5.57293 18.5273 5.63808 18.7518 5.71777 18.9082C5.90951 19.2844 6.21554 19.5905 6.5918 19.7822C6.7482 19.8619 6.97271 19.9261 7.41113 19.9619C7.86118 19.9987 8.44337 20 9.29981 20H14.7002C15.5566 20 16.1388 19.9987 16.5889 19.9619C17.0273 19.9261 17.2518 19.8619 17.4082 19.7822C17.7844 19.5905 18.0905 19.2844 18.2822 18.9082C18.3619 18.7518 18.4261 18.5273 18.4619 18.0889C18.4987 17.6388 18.5 17.0566 18.5 16.2002V13.7998C18.5 12.9434 18.4987 12.3612 18.4619 11.9111C18.4261 11.4727 18.3619 11.2482 18.2822 11.0918C18.0905 10.7156 17.7844 10.4095 17.4082 10.2178C17.2518 10.1381 17.0273 10.0739 16.5889 10.0381C16.1388 10.0013 15.5566 10 14.7002 10H9.29981ZM12 3C10.067 3 8.5 4.567 8.5 6.5V8.00195C8.73771 8.00031 8.99049 8 9.25879 8H14.7412C15.0095 8 15.2623 8.00031 15.5 8.00195V6.5C15.5 4.567 13.933 3 12 3Z" fill="black"/>
</svg>
