<svg width="24" height="24" viewBox="0 0 24 24" fill="none" xmlns="http://www.w3.org/2000/svg">
<path d="M6 2H11C13.2091 2 15 3.79086 15 6C15 6.55228 14.5523 7 14 7C13.4872 7 13.0645 6.61396 13.0067 6.11662L12.9945 5.85074C12.922 4.86762 12.1388 4.08214 11.1567 4.00604L11 4H6C4.94564 4 4.08183 4.81588 4.00549 5.85074L4 6V18C4 19.0544 4.81588 19.9182 5.85074 19.9945L6 20H11C12.0544 20 12.9182 19.1841 12.9945 18.1493L13.0067 17.8834C13.0645 17.386 13.4872 17 14 17C14.5523 17 15 17.4477 15 18C15 20.1422 13.316 21.8911 11.1996 21.9951L11 22H6C3.8578 22 2.10892 20.316 2.0049 18.1996L2 18V6C2 3.8578 3.68397 2.10892 5.80036 2.0049L6 2ZM18.7071 7.29289L22.7071 11.2929C22.7425 11.3283 22.7747 11.3657 22.8037 11.4047L22.8753 11.5159L22.9288 11.6287L22.9642 11.734L22.989 11.8515L22.9983 11.9407V12.0593L22.9932 12.1175L22.9726 12.2335L22.9401 12.3417L22.9063 12.4232L22.854 12.5207L22.7803 12.6254L22.7071 12.7071L18.7071 16.7071C18.3166 17.0976 17.6834 17.0976 17.2929 16.7071C16.9024 16.3166 16.9024 15.6834 17.2929 15.2929L19.585 13H13C12.4872 13 12.0645 12.614 12.0067 12.1166L12 12C12 11.4872 12.386 11.0645 12.8834 11.0067L13 11H19.585L17.2929 8.70711C16.9024 8.31658 16.9024 7.68342 17.2929 7.29289C17.6834 6.90237 18.3166 6.90237 18.7071 7.29289Z" fill="black"/>
</svg>
