<svg width="24" height="24" viewBox="0 0 24 24" fill="none" xmlns="http://www.w3.org/2000/svg">
<path d="M3 17.46V20.5C3 20.78 3.22 21 3.5 21H6.54C6.67 21 6.8 20.95 6.89 20.85L17.4563 10.2934C17.6301 10.12 17.6495 9.85065 17.5146 9.65572L17.4564 9.58645L14.4136 6.54355C14.2183 6.34829 13.9017 6.34829 13.7064 6.54355L3.15 17.1C3.05 17.2 3 17.32 3 17.46ZM20.71 7.04C21.1 6.65 21.1 6.02 20.71 5.63L18.37 3.29C17.98 2.9 17.35 2.9 16.96 3.29L15.4836 4.76645C15.2883 4.96171 15.2883 5.27829 15.4836 5.47355L18.5264 8.51645C18.7217 8.71171 19.0383 8.71171 19.2336 8.51645L20.71 7.04Z" fill="black"/>
</svg>
