<svg width="36" height="36" viewBox="0 0 36 36" fill="none" xmlns="http://www.w3.org/2000/svg">
<path d="M27.75 2.51758C29.8211 2.51758 31.5 4.19651 31.5 6.26758V29.7322C31.5 30.6019 31.1977 31.4447 30.6447 32.1161C29.3281 33.7148 26.9648 33.9435 25.3661 32.6269L18 26.5596V29.2499C18 31.6464 16.1266 33.6054 13.7644 33.7422L13.5 33.7499C11.1035 33.7499 9.14451 31.8765 9.00764 29.5143L9 29.2499L8.99972 25.3498C5.5765 24.6548 3 21.6282 3 17.9999C3 13.8577 6.35786 10.4999 10.5 10.4999H16.7119L25.3661 3.37284C26.0375 2.81992 26.8802 2.51758 27.75 2.51758ZM12 25.4991V29.2499C12 30.0783 12.6716 30.7499 13.5 30.7499C14.2693 30.7499 14.9033 30.1708 14.9899 29.4248L15 29.2499V25.4991H12ZM27.75 5.51758C27.576 5.51758 27.4075 5.57805 27.2732 5.68863L18.619 12.8157C18.0818 13.258 17.4077 13.4999 16.7119 13.4999H10.5C8.01472 13.4999 6 15.5146 6 17.9999C6 20.4851 8.01472 22.4999 10.5 22.4999H16.7119C17.4077 22.4999 18.0818 22.7417 18.619 23.1841L27.2732 30.3111C27.593 30.5744 28.0656 30.5287 28.3289 30.2089C28.4395 30.0747 28.5 29.9061 28.5 29.7322V6.26758C28.5 5.85336 28.1642 5.51758 27.75 5.51758Z" fill="black"/>
</svg>
