<svg width="36" height="36" viewBox="0 0 36 36" fill="none" xmlns="http://www.w3.org/2000/svg">
<path d="M12 19.5C16.9844 19.5 20.6295 20.7506 22.8336 23.3549C23.5867 24.2448 24 25.3729 24 26.5388V27.75C24 29.8211 22.3211 31.5 20.25 31.5H3.75C1.67893 31.5 0 29.8211 0 27.75V26.5388C0 25.3729 0.413287 24.2448 1.16643 23.3549C3.37047 20.7506 7.01564 19.5 12 19.5ZM26.9273 21.0504L27.1025 21.0521C30.332 21.2704 32.8221 22.1815 34.5196 23.8438C35.3875 24.6936 35.9082 25.8309 35.989 27.0353L36 27.3652V28.125C36 29.9113 34.6123 31.3735 32.8561 31.4922L32.625 31.5H28.5C27.6716 31.5 27 30.8284 27 30C27 29.2307 27.5791 28.5967 28.3251 28.5101L28.5 28.5H32.625C32.8025 28.5 32.9512 28.3766 32.9901 28.211L33 28.125V27.3652C33 26.8467 32.7912 26.35 32.4207 25.9873C31.2962 24.8861 29.4736 24.2192 26.9001 24.0453C26.0736 23.9894 25.4488 23.274 25.5047 22.4475C25.5566 21.68 26.1771 21.0865 26.9273 21.0504ZM12 22.5C7.81695 22.5 5.00307 23.4654 3.45643 25.2929C3.16172 25.6411 3 26.0826 3 26.5388V27.75C3 28.1642 3.33579 28.5 3.75 28.5H20.25C20.6642 28.5 21 28.1642 21 27.75V26.5388C21 26.0826 20.8383 25.6412 20.5436 25.2929C18.9969 23.4654 16.1831 22.5 12 22.5ZM25.5 7.5C28.3995 7.5 30.75 9.85051 30.75 12.75C30.75 15.6495 28.3995 18 25.5 18C22.6005 18 20.25 15.6495 20.25 12.75C20.25 9.85051 22.6005 7.5 25.5 7.5ZM12 4.5C15.3137 4.5 18 7.18629 18 10.5C18 13.8137 15.3137 16.5 12 16.5C8.68629 16.5 6 13.8137 6 10.5C6 7.18629 8.68629 4.5 12 4.5ZM25.5 10.5C24.2574 10.5 23.25 11.5074 23.25 12.75C23.25 13.9926 24.2574 15 25.5 15C26.7426 15 27.75 13.9926 27.75 12.75C27.75 11.5074 26.7426 10.5 25.5 10.5ZM12 7.5C10.3431 7.5 9 8.84315 9 10.5C9 12.1569 10.3431 13.5 12 13.5C13.6569 13.5 15 12.1569 15 10.5C15 8.84315 13.6569 7.5 12 7.5Z" fill="black"/>
</svg>
