<svg width="36" height="36" viewBox="0 0 36 36" fill="none" xmlns="http://www.w3.org/2000/svg">
<path d="M18 18C23.8609 18 28.073 19.5546 30.5028 22.7682C31.1499 23.6241 31.5 24.6677 31.5 25.7407V27.4286C31.5 29.6772 29.6772 31.5 27.4286 31.5H8.57143C6.32284 31.5 4.5 29.6772 4.5 27.4286V25.7407C4.5 24.6678 4.8501 23.6242 5.49717 22.7683C7.92695 19.5546 12.1391 18 18 18ZM18 21C12.9926 21 9.66714 22.2274 7.89018 24.5776C7.637 24.9125 7.5 25.3209 7.5 25.7407V27.4286C7.5 28.0203 7.97969 28.5 8.57143 28.5H27.4286C28.0203 28.5 28.5 28.0203 28.5 27.4286V25.7407C28.5 25.3208 28.363 24.9125 28.1098 24.5776C26.3328 22.2273 23.0074 21 18 21ZM18 3C21.3137 3 24 5.68629 24 9C24 12.3137 21.3137 15 18 15C14.6863 15 12 12.3137 12 9C12 5.68629 14.6863 3 18 3ZM18 6C16.3431 6 15 7.34315 15 9C15 10.6569 16.3431 12 18 12C19.6569 12 21 10.6569 21 9C21 7.34315 19.6569 6 18 6Z" fill="black"/>
</svg>
