<svg width="24" height="24" viewBox="0 0 24 24" fill="none" xmlns="http://www.w3.org/2000/svg">
<path d="M12 10C12.5523 10 13 10.4477 13 11V13H15C15.5523 13 16 13.4477 16 14C16 14.5523 15.5523 15 15 15H13V17C13 17.5523 12.5523 18 12 18C11.4477 18 11 17.5523 11 17V15H9C8.44772 15 8 14.5523 8 14C8.00003 13.4477 8.44774 13 9 13H11V11C11 10.4477 11.4477 10 12 10Z" fill="black"/>
<path fill-rule="evenodd" clip-rule="evenodd" d="M15 2C15.9208 2.00064 16.6802 2.00628 17.3086 2.05762C18.0373 2.11715 18.6773 2.2433 19.2695 2.54492C20.2103 3.02429 20.9758 3.78966 21.4551 4.73047C21.7568 5.32266 21.8828 5.9627 21.9424 6.69141C22.0002 7.39926 22 8.27369 22 9.35742V14.6426C22 15.7262 22.0002 16.6007 21.9424 17.3086C21.8828 18.0374 21.7569 18.6782 21.4551 19.2705C20.9758 20.2112 20.2102 20.9757 19.2695 21.4551C18.6773 21.7567 18.0374 21.8829 17.3086 21.9424C16.6008 22.0002 15.7264 22 14.6426 22H9.35742C8.27371 22 7.39925 22.0002 6.69141 21.9424C5.96268 21.8829 5.32268 21.7567 4.73047 21.4551C3.78977 20.9757 3.0243 20.2112 2.54492 19.2705C2.24313 18.6782 2.11717 18.0374 2.05762 17.3086C1.99979 16.6007 1.99999 15.7263 2 14.6426V9.35742C1.99999 8.27364 1.99978 7.39929 2.05762 6.69141C2.11716 5.96269 2.24324 5.32267 2.54492 4.73047C3.02429 3.78966 3.78966 3.02429 4.73047 2.54492C5.32265 2.24328 5.96271 2.11715 6.69141 2.05762C7.39928 1.99979 8.27367 1.99999 9.35742 2H15ZM14.5 4C13.9874 4 13.877 4.00516 13.8047 4.01953C13.4082 4.0985 13.0985 4.40825 13.0195 4.80469C13.0051 4.87692 13 4.98749 13 5.5V5.58398C13.0003 5.96451 13.0005 6.2922 12.9424 6.58496C12.7056 7.77503 11.775 8.70566 10.585 8.94238C10.2922 9.00057 9.9645 9.0003 9.58398 9H6C5.52038 9 5.21061 9.00043 4.97363 9.0166C4.74572 9.03215 4.65879 9.05894 4.61719 9.07617C4.37227 9.17765 4.17768 9.37228 4.07617 9.61719C4.05894 9.6588 4.03216 9.74579 4.0166 9.97363C4.00043 10.2106 4 10.5204 4 11V14.5996C4 15.736 4.00041 16.5287 4.05078 17.1455C4.10022 17.7507 4.19297 18.0989 4.32715 18.3623C4.61472 18.9266 5.07345 19.3853 5.6377 19.6729C5.90106 19.8071 6.24932 19.8997 6.85449 19.9492C7.47129 19.9995 8.26395 20 9.40039 20H14.5996C15.736 20 16.5287 19.9995 17.1455 19.9492C17.7506 19.8997 18.0989 19.8071 18.3623 19.6729C18.9266 19.3853 19.3853 18.9266 19.6729 18.3623C19.8071 18.0989 19.8998 17.7507 19.9492 17.1455C19.9996 16.5287 20 15.736 20 14.5996V9.40039C20 8.2639 19.9996 7.4713 19.9492 6.85449C19.8998 6.24932 19.8071 5.90106 19.6729 5.6377C19.3853 5.07349 18.9265 4.61471 18.3623 4.32715C18.0989 4.19296 17.7506 4.10023 17.1455 4.05078C16.5287 4.00041 15.736 4 14.5996 4H14.5ZM9.40039 4C8.26397 4 7.47129 4.00041 6.85449 4.05078C6.24932 4.10023 5.90106 4.19296 5.6377 4.32715C5.07347 4.61471 4.61473 5.0735 4.32715 5.6377C4.19297 5.90106 4.10022 6.24932 4.05078 6.85449C4.04277 6.95256 4.03598 7.05546 4.03027 7.16309C4.29782 7.07663 4.56823 7.03987 4.83789 7.02148C5.15103 7.00013 5.52935 6.99998 5.96777 7H9.5C10.0126 7 10.123 6.99484 10.1953 6.98047C10.5918 6.90148 10.9015 6.59182 10.9805 6.19531C10.9949 6.12306 11 6.01258 11 5.5V5.41602C10.9997 5.03549 10.9995 4.7078 11.0576 4.41504C11.0859 4.27285 11.1245 4.13404 11.1719 4H9.40039Z" fill="black"/>
</svg>
