<svg width="24" height="24" viewBox="0 0 24 24" fill="none" xmlns="http://www.w3.org/2000/svg">
<path d="M5.7072 3.2929L9.4142 7L11.6541 7L15.7936 3.7475C17.4996 2.4071 20 3.6224 20 5.7919L20 16.708C20 16.9796 19.9608 17.2362 19.8889 17.4747L21.7071 19.2929C22.0976 19.6834 22.0976 20.3166 21.7071 20.7071C21.3166 21.0976 20.6834 21.0976 20.2929 20.7071L4.2929 4.7071C3.9024 4.3166 3.9024 3.6834 4.2929 3.2929C4.6835 2.9024 5.3166 2.9024 5.7072 3.2929ZM11.4142 9L18 15.5858L18 5.7919C18 5.2913 17.4229 5.0108 17.0293 5.3201L12.6469 8.7634C12.4519 8.9167 12.211 9 11.9629 9L11.4142 9ZM4 11.25C4 9.6767 4.8549 8.303 6.1255 7.5683L7.6407 9.0835C6.6941 9.3491 6 10.2185 6 11.25C6 12.4926 7.0074 13.5 8.25 13.5L11.9629 13.5C11.996 13.5 12.0289 13.5015 12.0616 13.5044L17.8316 19.2744C17.154 19.3923 16.4202 19.2448 15.7936 18.7525L13 16.5574L13 17C13 18.6568 11.6568 20 10 20C8.3431 20 7 18.6568 7 17L7 15.3132C5.2628 14.7794 4 13.1622 4 11.25ZM11 15.5L9 15.5L9 17C9 17.5522 9.4477 18 10 18C10.5522 18 11 17.5522 11 17L11 15.5Z" fill="black"/>
</svg>
