<svg width="24" height="24" viewBox="0 0 24 24" fill="none" xmlns="http://www.w3.org/2000/svg">
<path d="M6 3H20C21.5977 3 22.9037 4.24892 22.9949 5.82373L23 6V8C23 8.51284 22.614 8.93551 22.1166 8.99327L22 9H19V18C19 19.5977 17.7511 20.9037 16.1763 20.9949L16 21H4C2.34315 21 1 19.6569 1 18V16C1 15.4477 1.44772 15 2 15H3V6C3 4.40232 4.24892 3.09634 5.82373 3.00509L6 3ZM13 17H3V18C3 18.5523 3.44772 19 4 19H13.1709C13.0602 18.6868 13 18.3501 13 18V17ZM17.1707 5H6C5.48716 5 5.06449 5.38604 5.00673 5.88338L5 6V15H14C14.5523 15 15 15.4477 15 16V18C15 18.5243 15.4055 18.9589 15.8875 18.9952L16.0132 18.9999C16.5204 18.9933 16.9365 18.6092 16.9934 18.1157L17 18V6C17 5.71949 17.0385 5.44797 17.1105 5.19045L17.1707 5ZM20 5L19.8834 5.00673C19.4243 5.06005 19.06 5.4243 19.0067 5.88338L19 6V7H21V6C21 5.48716 20.614 5.06449 20.1166 5.00673L20 5Z" fill="black"/>
</svg>
