<svg width="24" height="24" viewBox="0 0 24 24" fill="none" xmlns="http://www.w3.org/2000/svg">
<path d="M19.05 22.0001H18.86C14.4767 21.7303 10.3434 19.8673 7.23806 16.762C4.13277 13.6567 2.26983 9.52331 2 5.14006C1.98091 4.74771 2.042 4.35559 2.17955 3.98765C2.3171 3.61971 2.52821 3.28367 2.8 3.00006C3.07732 2.68994 3.41611 2.4409 3.79485 2.26874C4.17359 2.09659 4.584 2.00509 5 2.00006H6.74C7.4801 1.99529 8.19584 2.26428 8.74962 2.7553C9.3034 3.24632 9.65613 3.92471 9.74 4.66006L10 7.18006C10.0524 7.62998 10.0023 8.08594 9.85334 8.51371C9.70439 8.94149 9.46051 9.32999 9.14 9.65006L6.46 12.6501C7.71692 14.6181 9.38939 16.2872 11.36 17.5401L14.36 14.8401C14.6797 14.526 15.0657 14.2874 15.4897 14.1421C15.9137 13.9967 16.3648 13.9482 16.81 14.0001L19.35 14.2901C20.0835 14.3763 20.7595 14.73 21.2485 15.2835C21.7375 15.8371 22.005 16.5515 22 17.2901V19.0001C21.9964 19.4178 21.9055 19.8301 21.7333 20.2107C21.5611 20.5912 21.3114 20.9316 21 21.2101C20.4734 21.7108 19.7766 21.9931 19.05 22.0001ZM13.23 18.5401C15.0458 19.3814 17.0026 19.8765 19 20.0001C19.125 20.0047 19.2497 19.9841 19.3665 19.9394C19.4833 19.8947 19.59 19.8269 19.68 19.7401C19.7818 19.6457 19.8628 19.5312 19.9179 19.4038C19.973 19.2764 20.0009 19.1389 20 19.0001V17.2601C20.0018 17.0144 19.913 16.7767 19.7507 16.5922C19.5884 16.4078 19.3639 16.2896 19.12 16.2601L16.58 16.0001C16.4311 15.9823 16.28 15.9982 16.1381 16.0467C15.9962 16.0951 15.8669 16.1749 15.76 16.2801L13.23 18.5401ZM5 4.00006C4.85877 3.99899 4.71892 4.02784 4.58965 4.08472C4.46037 4.1416 4.34462 4.22521 4.25 4.33006C4.16618 4.41972 4.10093 4.52508 4.05802 4.64007C4.01512 4.75506 3.99539 4.87741 4 5.00006C4.1236 6.99745 4.61874 8.95426 5.46 10.7701L7.71 8.27006C7.82273 8.15974 7.90778 8.02432 7.95818 7.87486C8.00858 7.72539 8.02291 7.56612 8 7.41006L7.74 4.89006C7.71281 4.64434 7.59556 4.4174 7.41089 4.25305C7.22622 4.08869 6.98721 3.99856 6.74 4.00006H5Z" fill="black"/>
</svg>
