<svg width="24" height="24" viewBox="0 0 24 24" fill="none" xmlns="http://www.w3.org/2000/svg">
<path d="M8.5505 2L15.4495 2L15.4805 2C15.9301 2 16.3116 2 16.6092 2.0175C16.8838 2.0336 17.2553 2.0689 17.5821 2.2402C18.5218 2.733 18.9463 3.8494 18.5713 4.8421C18.4409 5.1872 18.1867 5.4604 17.9922 5.6549C17.7814 5.8656 17.4962 6.1191 17.1602 6.4178L17.137 6.4384L16.2148 7.2581C16.1329 7.331 16.0915 7.368 16.0622 7.396L16.0594 7.3986L16.0598 7.4025C16.0633 7.4428 16.07 7.498 16.0836 7.6067L16.3473 9.7164C16.392 10.0736 16.4037 10.144 16.4207 10.2024C16.465 10.355 16.545 10.4949 16.6541 10.6104C16.6958 10.6546 16.7507 10.7004 17.0359 10.9199L17.7158 11.4429L17.7417 11.4628C18.2865 11.8818 18.7299 12.2229 19.0542 12.503C19.354 12.762 19.6971 13.0856 19.8746 13.4853C20.4039 14.6771 19.9283 16.0754 18.7822 16.6973C18.3977 16.906 17.9284 16.9532 17.533 16.9757C17.1051 17 16.5457 17 15.8584 17L15.8583 17L15.8257 17L13 17L13 22C13 22.5523 12.5523 23 12 23C11.4477 23 11 22.5523 11 22L11 17L8.1743 17L8.1417 17L8.1416 17C7.4543 17 6.8949 17 6.467 16.9757C6.0716 16.9532 5.6023 16.906 5.2178 16.6973C4.0717 16.0754 3.5961 14.6771 4.1253 13.4853C4.3029 13.0856 4.646 12.762 4.9458 12.503C5.2701 12.2229 5.7136 11.8818 6.2584 11.4627L6.2584 11.4627L6.2842 11.4429L6.964 10.9199C7.2493 10.7004 7.3041 10.6546 7.3459 10.6104C7.455 10.4949 7.535 10.355 7.5793 10.2024C7.5963 10.144 7.608 10.0736 7.6527 9.7164L7.9164 7.6067C7.93 7.498 7.9367 7.4428 7.9402 7.4025L7.9406 7.3986L7.9378 7.396C7.9085 7.368 7.8671 7.331 7.7852 7.2581L6.863 6.4384L6.8399 6.4178L6.8398 6.4178C6.5038 6.1191 6.2186 5.8656 6.0078 5.6549C5.8133 5.4604 5.5591 5.1872 5.4287 4.8421C5.0537 3.8494 5.4782 2.733 6.4179 2.2402C6.7447 2.0689 7.1162 2.0336 7.3908 2.0175C7.6883 2 8.0699 2 8.5195 2L8.5195 2L8.5505 2ZM12.0014 15L15.8257 15C16.5534 15 17.0554 14.9996 17.4194 14.9789C17.6847 14.9638 17.7994 14.9398 17.8327 14.9329C17.8392 14.9315 17.8426 14.9308 17.8434 14.9309C18.0567 14.8056 18.1462 14.5425 18.0536 14.3131C18.0528 14.3127 18.0506 14.31 18.0463 14.305C18.0241 14.2792 17.9478 14.1902 17.7468 14.0165C17.4709 13.7782 17.0732 13.4718 16.4964 13.0281L15.8165 12.5051L15.7722 12.471L15.7721 12.471C15.5555 12.3046 15.365 12.1582 15.2002 11.9838C14.8729 11.6373 14.6328 11.2178 14.4999 10.76C14.4331 10.5296 14.4034 10.2911 14.3697 10.02L14.3628 9.9645L14.0991 7.8548L14.0936 7.812L14.0936 7.812C14.0736 7.6547 14.0486 7.4576 14.0623 7.2594C14.0894 6.8701 14.2296 6.4973 14.4659 6.1868C14.5863 6.0287 14.735 5.8971 14.8538 5.7919L14.8861 5.7633L15.8082 4.9436C16.1738 4.6187 16.4141 4.4045 16.5782 4.2405C16.647 4.1717 16.6863 4.1269 16.7068 4.1024C16.7074 4.0763 16.6977 4.0509 16.6799 4.0318C16.6484 4.0271 16.5892 4.0197 16.4921 4.014C16.2604 4.0004 15.9385 4 15.4495 4L8.5505 4C8.0615 4 7.7396 4.0004 7.5079 4.014C7.4108 4.0197 7.3516 4.0271 7.3201 4.0318C7.3023 4.0509 7.2926 4.0763 7.2932 4.1024C7.3137 4.1269 7.353 4.1717 7.4218 4.2405C7.5859 4.4045 7.8262 4.6187 8.1917 4.9436L9.1139 5.7633L9.1462 5.7919C9.265 5.8971 9.4137 6.0287 9.5341 6.1868C9.7704 6.4973 9.9106 6.8701 9.9377 7.2594C9.9514 7.4576 9.9264 7.6547 9.9063 7.812L9.9009 7.8548L9.6372 9.9645L9.6303 10.02C9.5966 10.2911 9.5669 10.5296 9.5 10.76C9.3672 11.2178 9.1271 11.6373 8.7998 11.9838C8.635 12.1582 8.4444 12.3046 8.2278 12.471L8.1835 12.5051L7.5036 13.0281C6.9268 13.4718 6.5291 13.7782 6.2532 14.0165C6.0522 14.1902 5.9759 14.2792 5.9537 14.305C5.9494 14.31 5.9471 14.3127 5.9464 14.3131C5.8538 14.5425 5.9433 14.8056 6.1566 14.9309C6.1574 14.9308 6.1608 14.9315 6.1673 14.9329C6.2006 14.9398 6.3153 14.9638 6.5805 14.9789C6.9446 14.9996 7.4466 15 8.1743 15L11.9986 15C11.9991 15 11.9995 15 12 15C12.0005 15 12.0009 15 12.0014 15Z" fill="black"/>
</svg>
