<svg width="24" height="24" viewBox="0 0 24 24" fill="none" xmlns="http://www.w3.org/2000/svg">
<path d="M15.5076 5.43111C15.636 5.50813 15.7544 5.60059 15.8602 5.70644L18.2937 8.13988C19.0087 8.85488 19.0087 10.0141 18.2937 10.7291C18.1878 10.835 18.0694 10.9274 17.941 11.0044L16.027 12.1528C16.2818 13.6728 15.6636 15.172 14.2485 16.5871C13.9244 16.9112 13.3989 16.9112 13.0747 16.5871L10.8299 14.3429L7.58682 17.5869C7.2897 17.8841 6.82335 17.9088 6.49802 17.6612L6.41302 17.5869C6.1159 17.2898 6.09114 16.8235 6.33874 16.4981L6.41302 16.4131L9.65692 13.1689L7.41302 10.9254C7.08889 10.6013 7.08889 10.0757 7.41302 9.75159C8.75736 8.40726 10.1776 7.78214 11.6195 7.94141L11.8473 7.97308L12.9957 6.05909C13.5159 5.19203 14.6405 4.91087 15.5076 5.43111Z" fill="black"/>
</svg>
