<svg width="32" height="32" viewBox="0 0 32 32" fill="none" xmlns="http://www.w3.org/2000/svg">
<path d="M2.6599 12.5331C2.6599 9.5463 2.6599 8.0528 3.2412 6.912C3.7525 5.9085 4.5684 5.0926 5.5719 4.5813C6.7127 4 8.2062 4 11.193 4L20.7928 4C23.7797 4 25.2731 4 26.4139 4.5813C27.4174 5.0926 28.2333 5.9085 28.7446 6.912C29.3259 8.0528 29.3259 9.5463 29.3259 12.5331L29.3259 15.4664C29.3259 18.4533 29.3259 19.9467 28.7446 21.0875C28.2333 22.091 27.4174 22.9069 26.4139 23.4182C25.2731 23.9995 23.7797 23.9995 20.7928 23.9995L11.0937 23.9995C10.4415 23.9995 10.1153 23.9995 9.8085 24.0732C9.5364 24.1385 9.2762 24.2462 9.0377 24.3924C8.7686 24.5574 8.538 24.788 8.0768 25.2491L6.3017 27.0243C5.1593 28.1666 4.5882 28.7377 4.0978 28.7763C3.6723 28.8098 3.2565 28.6376 2.9794 28.313C2.6599 27.939 2.6599 27.1313 2.6599 25.5158L2.6599 12.5331ZM17.7729 10.6699L17.7729 12.0002C17.6334 11.9998 17.4849 11.9998 17.3262 11.9998L14.6596 11.9998C14.5009 11.9998 14.3524 11.9998 14.213 12.0002L14.213 10.6699C14.213 9.6877 15.0085 8.8911 15.9907 8.8899C16.9746 8.8887 17.7729 9.686 17.7729 10.6699ZM12.4397 10.6699L12.4397 12.1534C12.3938 12.1684 12.3493 12.1848 12.3058 12.2028C11.6525 12.4734 11.1333 12.9926 10.8627 13.6459C10.6597 14.136 10.6597 14.7572 10.6597 15.9997C10.6597 17.2422 10.6597 17.8634 10.8627 18.3535C11.1333 19.0069 11.6525 19.526 12.3058 19.7966C12.7959 19.9996 13.4171 19.9996 14.6596 19.9996L17.3262 19.9996C18.5687 19.9996 19.1899 19.9996 19.68 19.7966C20.3334 19.526 20.8525 19.0069 21.1231 18.3535C21.3261 17.8634 21.3261 17.2422 21.3261 15.9997C21.3261 14.7572 21.3261 14.136 21.1231 13.6459C20.8525 12.9926 20.3334 12.4734 19.68 12.2028C19.6365 12.1848 19.592 12.1684 19.5462 12.1534L19.5462 10.6699C19.5462 8.7057 17.9526 7.1142 15.9884 7.1166C14.0278 7.1191 12.4397 8.7092 12.4397 10.6699Z" fill="white"/>
</svg>
