<svg width="120" height="120" viewBox="0 0 120 120" fill="none" xmlns="http://www.w3.org/2000/svg">
<path d="M60 28.9333C78.4095 28.9333 93.3333 42.5005 93.3333 59.2364C93.3333 75.9723 78.4095 89.5394 60 89.5394C57.1775 89.5394 54.437 89.2205 51.8196 88.6202C51.3245 88.5066 50.7624 89.0259 49.8239 89.8927C48.689 90.9411 47.0037 92.4978 44.221 94.0583C40.6659 96.0521 35.7402 95.8791 34.9066 95.5294C34.1073 95.1942 34.7225 94.5278 35.8059 93.3543C36.5554 92.5424 37.5289 91.4878 38.4133 90.1321C40.5759 86.8169 39.6823 82.8701 38.7121 82.1598C31.1252 76.6053 26.6667 68.7814 26.6667 59.2364C26.6667 42.5005 41.5905 28.9333 60 28.9333ZM52.2938 46.8103L52.1636 47.5489C51.9718 48.6367 52.6981 49.674 53.7859 49.8658C54.8737 50.0576 55.911 49.3313 56.1028 48.2435L56.233 47.5049C56.6886 44.9214 59.1522 43.1963 61.7357 43.6519C64.3192 44.1074 66.0443 46.571 65.5887 49.1545L64.2934 56.5005C64.0094 56.5 63.7119 56.5 63.4 56.5L56.6 56.5C53.2397 56.5 51.5595 56.5 50.2761 57.154C49.1471 57.7292 48.2292 58.6471 47.654 59.7761C47 61.0595 47 62.7397 47 66.1L47 67.9C47 71.2603 47 72.9405 47.654 74.2239C48.2292 75.3529 49.1471 76.2708 50.2761 76.846C51.5595 77.5 53.2397 77.5 56.6 77.5L63.4 77.5C66.7603 77.5 68.4405 77.5 69.7239 76.846C70.8529 76.2708 71.7708 75.3529 72.346 74.2239C73 72.9405 73 71.2603 73 67.9L73 66.1C73 62.7397 73 61.0595 72.346 59.7761C71.7708 58.6471 70.8529 57.7292 69.7239 57.154C69.311 56.9436 68.857 56.8009 68.3192 56.7041L69.5279 49.8491C70.3671 45.0901 67.1894 40.5518 62.4303 39.7126C57.6712 38.8735 53.133 42.0512 52.2938 46.8103Z" fill="white"/>
</svg>
