<svg width="24" height="24" viewBox="0 0 24 24" fill="none" xmlns="http://www.w3.org/2000/svg">
<path d="M12 2C14.7614 2 17 4.2386 17 7L17 9.5359C17.7584 9.9737 18.3567 10.6514 18.6955 11.4693C19 12.2044 19 13.1362 19 15C19 16.8638 19 17.7956 18.6955 18.5307C18.2895 19.5108 17.5108 20.2895 16.5307 20.6955C15.7956 21 14.8638 21 13 21L11 21C9.1362 21 8.2043 21 7.4693 20.6955C6.4892 20.2895 5.7105 19.5108 5.3045 18.5307C5 17.7956 5 16.8638 5 15C5 13.1362 5 12.2044 5.3045 11.4693C5.6433 10.6514 6.2416 9.9737 7 9.5359L7 7C7 4.2386 9.2386 2 12 2ZM15 9.0269L15 7C15 5.3431 13.6569 4 12 4C10.3431 4 9 5.3431 9 7L9 9.0269C9.5252 9 10.1703 9 11 9L13 9C13.8297 9 14.4748 9 15 9.0269Z" fill="black"/>
</svg>
