<svg width="24" height="24" viewBox="0 0 24 24" fill="none" xmlns="http://www.w3.org/2000/svg">
<path d="M10.3256 6.1767C9.794 5.5973 8.9243 5.003 7.501 5.005L7.4996 5.005C6.0164 5.005 4 6.3377 4 9C4 11.1687 5.4212 13.3194 7.2734 15.1652C9.0618 16.9475 11.0788 18.2738 12 18.8382C12.9212 18.2738 14.9382 16.9475 16.7267 15.1652C18.5788 13.3194 20 11.1687 20 9C20 6.3388 17.9846 5.0071 16.4986 5.005C15.0756 5.003 14.2059 5.5973 13.6744 6.1767C13.4009 6.4748 13.2132 6.7748 13.0953 6.9982C13.0367 7.1091 12.9967 7.1985 12.9729 7.2558C12.961 7.2843 12.9532 7.3046 12.9493 7.3152L12.9464 7.3231C12.8083 7.7276 12.428 8 12 8C11.572 8 11.1917 7.7277 11.0536 7.3231L11.0507 7.3152C11.0468 7.3046 11.039 7.2843 11.0271 7.2558C11.0033 7.1985 10.9633 7.1091 10.9047 6.9982C10.7868 6.7748 10.5991 6.4748 10.3256 6.1767ZM12 5.0552C12.0631 4.9787 12.1299 4.9017 12.2006 4.8246C13.0441 3.9052 14.4244 3.0021 16.5014 3.005C19.0154 3.0086 22 5.1613 22 9C22 11.997 20.0856 14.6414 18.1384 16.5819C16.1584 18.5551 13.9512 19.9914 12.9939 20.5747C12.3793 20.9492 11.6205 20.9492 11.006 20.5746C10.0488 19.9914 7.8416 18.5551 5.8616 16.5819C3.9144 14.6414 2 11.997 2 9C2 5.163 4.9831 3.0054 7.4989 3.005C7.4987 3.005 7.4984 3.005 7.4982 3.005L7.4996 4.005L7.4996 3.005C7.4994 3.005 7.4991 3.005 7.4989 3.005C9.5756 3.0023 10.9559 3.9053 11.7993 4.8246C11.87 4.9017 11.9369 4.9787 12 5.0552Z" fill="black"/>
</svg>
