<svg width="24" height="24" viewBox="0 0 24 24" fill="none" xmlns="http://www.w3.org/2000/svg">
<path d="M12 1C18.0751 1 23 5.92487 23 12C23 18.0751 18.0751 23 12 23C5.92487 23 1 18.0751 1 12C1 5.92487 5.92487 1 12 1ZM12 3C7.02944 3 3 7.02944 3 12C3 16.9706 7.02944 21 12 21C16.9706 21 21 16.9706 21 12C21 7.02944 16.9706 3 12 3ZM12 5C12.5128 5 12.9355 5.38604 12.9933 5.88338L13 6V11.5576L17.0727 15.2601C17.4813 15.6316 17.5114 16.264 17.1399 16.6727C16.797 17.0499 16.2317 17.1046 15.8254 16.8186L15.7273 16.7399L11.6547 13.0375C11.284 12.7006 11.055 12.2386 11.0087 11.7443L11 11.5576V6C11 5.44772 11.4477 5 12 5Z" fill="black"/>
</svg>
