<svg width="24" height="24" viewBox="0 0 24 24" fill="none" xmlns="http://www.w3.org/2000/svg">
<path d="M17 2C19.2091 2 21 3.79086 21 6V20.2544C21 21.3589 20.1046 22.2544 19 22.2544C18.5226 22.2544 18.0609 22.0836 17.6984 21.7729L12 16.8885L6.30158 21.7729C5.46293 22.4917 4.20033 22.3946 3.48149 21.5559C3.17078 21.1934 3 20.7318 3 20.2544V6C3 3.79086 4.79086 2 7 2H17ZM17 4H7C5.89543 4 5 4.89543 5 6V20.2544L10.6984 15.37C11.4474 14.728 12.5526 14.728 13.3016 15.37L19 20.2544V6C19 4.89543 18.1046 4 17 4Z" fill="black"/>
</svg>
