<svg width="24" height="24" viewBox="0 0 24 24" fill="none" xmlns="http://www.w3.org/2000/svg">
<path d="M2.65383 2.92608L4.1458 9.77863C4.26701 10.3354 4.73555 10.749 5.30301 10.8002L16.1964 11.7837C16.3159 11.7945 16.4041 11.9001 16.3933 12.0197C16.3839 12.1243 16.301 12.2072 16.1964 12.2167L5.30296 13.2005C4.73553 13.2518 4.26701 13.6654 4.1458 14.2221L2.65386 21.0742C2.55168 21.5434 2.84926 22.0066 3.31852 22.1088C3.50628 22.1497 3.7023 22.1272 3.87595 22.0449L23.4111 12.7859C23.8451 12.5802 24.0301 12.0617 23.8244 11.6277C23.7385 11.4463 23.5924 11.3003 23.4111 11.2144L3.87592 1.95531C3.44195 1.74963 2.92341 1.93468 2.71772 2.36865C2.63542 2.5423 2.61295 2.73831 2.65383 2.92608Z" fill="black"/>
</svg>
