<svg width="19" height="14" viewBox="0 0 19 14" fill="none" xmlns="http://www.w3.org/2000/svg">
<path d="M9.9999 0.399902C13.645 0.399902 16.5999 3.35482 16.5999 6.9999C16.5999 10.645 13.645 13.5999 9.9999 13.5999C6.35482 13.5999 3.3999 10.645 3.3999 6.9999C3.3999 3.35482 6.35482 0.399902 9.9999 0.399902ZM9.9999 1.5999C7.01756 1.5999 4.5999 4.01756 4.5999 6.9999C4.5999 9.98224 7.01756 12.3999 9.9999 12.3999C12.9822 12.3999 15.3999 9.98224 15.3999 6.9999C15.3999 4.01756 12.9822 1.5999 9.9999 1.5999ZM9.44587 7.34002L9.42475 7.30307L9.37742 7.18763L9.35752 7.0994L9.35181 7.04977L9.3499 3.4999C9.3499 3.14092 9.64092 2.8499 9.9999 2.8499C10.3263 2.8499 10.5964 3.09041 10.6429 3.40385L10.6499 3.4999V6.7309L12.4595 8.54028C12.688 8.76874 12.7108 9.12495 12.5281 9.37895L12.4595 9.45952C12.2311 9.68798 11.8749 9.71082 11.6209 9.52806L11.5403 9.45952L9.50831 7.42517L9.47548 7.38407L9.44587 7.34002Z" fill="black"/>
</svg>
