<svg width="19" height="14" viewBox="0 0 19 14" fill="none" xmlns="http://www.w3.org/2000/svg">
<path d="M9.9999 0.399902C13.645 0.399902 16.5999 3.35482 16.5999 6.9999C16.5999 10.645 13.645 13.5999 9.9999 13.5999C6.35482 13.5999 3.3999 10.645 3.3999 6.9999C3.3999 3.35482 6.35482 0.399902 9.9999 0.399902ZM9.9999 9.2499C9.58569 9.2499 9.2499 9.58569 9.2499 9.9999C9.2499 10.4141 9.58569 10.7499 9.9999 10.7499C10.4141 10.7499 10.7499 10.4141 10.7499 9.9999C10.7499 9.58569 10.4141 9.2499 9.9999 9.2499ZM9.9999 2.8499C9.64092 2.8499 9.3499 3.14092 9.3499 3.4999V7.4999C9.3499 7.85889 9.64092 8.1499 9.9999 8.1499C10.3589 8.1499 10.6499 7.85889 10.6499 7.4999V3.4999C10.6499 3.14092 10.3589 2.8499 9.9999 2.8499Z" fill="black"/>
</svg>
