<svg width="24" height="24" viewBox="0 0 24 24" fill="none" xmlns="http://www.w3.org/2000/svg">
<path d="M6.43817 12.0002L6.13597 11.9536C5.24795 11.8167 4.53564 11.1476 4.34353 10.2699L2.98298 4.05382C2.89829 3.66687 2.94489 3.26274 3.11542 2.90523C3.53927 2.01663 4.60322 1.63987 5.49181 2.06372L22.9498 10.3909C23.3184 10.5668 23.6155 10.8638 23.7913 11.2324C24.2152 12.121 23.8384 13.185 22.9498 13.6088L5.49185 21.9362C5.13433 22.1068 4.73018 22.1534 4.34323 22.0687C3.38149 21.8582 2.7725 20.9079 2.98301 19.9461L4.34354 13.7305C4.53565 12.8528 5.24786 12.1838 6.13579 12.0468L6.43817 12.0002ZM5.03171 4.06012L6.29727 9.84224C6.31264 9.91246 6.36963 9.96599 6.44067 9.97694L11.8985 10.8183C12.5511 10.9189 12.9986 11.5295 12.898 12.1821C12.8185 12.6976 12.4141 13.1021 11.8986 13.1816L6.44066 14.0234C6.36963 14.0344 6.31265 14.0879 6.29728 14.1581L5.03171 19.9398L21.6774 11.9999L5.03171 4.06012Z" fill="black"/>
</svg>
