<svg width="24" height="24" viewBox="0 0 24 24" fill="none" xmlns="http://www.w3.org/2000/svg">
<path d="M12.0001 10C13.1046 10.0001 14.0001 10.8955 14.0001 12C14.0001 13.1045 13.1046 13.9999 12.0001 14C10.8955 14 10.0001 13.1046 10.0001 12C10.0002 10.8954 10.8956 10 12.0001 10Z" fill="black"/>
<path fill-rule="evenodd" clip-rule="evenodd" d="M12.6173 1C12.8375 0.99998 13.0548 0.999676 13.2404 1.01368C13.4465 1.02923 13.6848 1.06588 13.9308 1.17579C14.2778 1.33081 14.5737 1.5808 14.7853 1.89649C14.9354 2.12038 15.0123 2.34926 15.0626 2.54981C15.1079 2.73027 15.1445 2.9443 15.1818 3.16114L15.1867 3.18848L15.3859 4.35157C15.9 4.58486 16.3883 4.86935 16.8419 5.20118L17.88 4.81543L17.9074 4.80469C18.1156 4.72732 18.3209 4.65145 18.5011 4.59961C18.7011 4.54209 18.9393 4.4925 19.2101 4.51075C19.5919 4.53655 19.9588 4.67063 20.2677 4.89649C20.4866 5.05666 20.637 5.24728 20.7531 5.41993C20.8576 5.57549 20.9657 5.76586 21.0753 5.95899L21.09 5.98438L21.7013 7.06153L21.716 7.08594C21.8228 7.27404 21.9275 7.46023 22.006 7.62598C22.0931 7.8103 22.1782 8.0318 22.2052 8.2959C22.2432 8.66895 22.1773 9.04533 22.0138 9.38282C21.898 9.6218 21.7418 9.80097 21.5968 9.94434C21.4665 10.0732 21.3043 10.2115 21.1398 10.3516L21.1183 10.3701L20.2199 11.1338C20.2506 11.4148 20.2687 11.7037 20.2687 12C20.2687 12.2962 20.2506 12.5853 20.2199 12.8662L21.1173 13.6299L21.1388 13.6475C21.3035 13.7875 21.4665 13.9258 21.5968 14.0547C21.7419 14.1981 21.8981 14.3773 22.0138 14.6162C22.1774 14.9536 22.2432 15.3301 22.2052 15.7031C22.1782 15.9673 22.0932 16.1897 22.006 16.374C21.9277 16.5397 21.8226 16.7251 21.716 16.9131L21.7013 16.9375L21.09 18.0156L21.0753 18.041C20.9657 18.2341 20.8576 18.4246 20.7531 18.5801C20.637 18.7527 20.4866 18.9434 20.2677 19.1035C19.9588 19.3294 19.5919 19.4635 19.2101 19.4893C18.9391 19.5076 18.7002 19.4579 18.5001 19.4004C18.3201 19.3485 18.1154 19.2726 17.9074 19.1953L17.88 19.1846L16.8419 18.7988C16.3883 19.1306 15.9 19.4151 15.3859 19.6484L15.1867 20.8115L15.1818 20.8389C15.1445 21.0557 15.1079 21.2698 15.0626 21.4502C15.0123 21.6508 14.9354 21.8796 14.7853 22.1035C14.5737 22.4193 14.2778 22.6692 13.9308 22.8242C13.6848 22.9342 13.4465 22.9707 13.2404 22.9863C13.0548 23.0003 12.8375 23 12.6173 23H11.383C11.1628 23 10.9454 23.0003 10.7599 22.9863C10.5538 22.9707 10.3154 22.9341 10.0695 22.8242C9.72252 22.6692 9.42658 22.4191 9.21499 22.1035C9.06504 21.8797 8.98794 21.6517 8.93765 21.4512C8.89238 21.2707 8.85583 21.0568 8.81851 20.8398L8.61343 19.6484C8.0996 19.4152 7.6121 19.1306 7.15835 18.7988L6.12027 19.1846L6.09292 19.1953C5.88491 19.2726 5.68021 19.3485 5.50015 19.4004C5.30014 19.458 5.06201 19.5075 4.79116 19.4893C4.40935 19.4636 4.04249 19.3293 3.73355 19.1035C3.51438 18.9433 3.36342 18.7528 3.24722 18.5801C3.14258 18.4246 3.0346 18.2341 2.92495 18.041L2.91031 18.0156L2.298 16.9375L2.28433 16.9131C2.17751 16.7251 2.07172 16.5398 1.99331 16.374C1.90609 16.1896 1.82106 15.9673 1.79409 15.7031C1.75611 15.3301 1.82302 14.9537 1.98648 14.6162C2.10222 14.3774 2.25752 14.198 2.40249 14.0547C2.5329 13.9258 2.69573 13.7875 2.8605 13.6475L2.88199 13.6289L3.77945 12.8652C3.74877 12.585 3.73159 12.2965 3.73159 12C3.73159 11.7036 3.74878 11.415 3.77945 11.1348L2.88199 10.3701L2.8605 10.3516C2.69574 10.2114 2.53289 10.0733 2.40249 9.94434C2.25753 9.80101 2.10219 9.62169 1.98648 9.38282C1.82305 9.04534 1.756 8.66892 1.79409 8.2959C1.82108 8.03197 1.90617 7.81022 1.99331 7.62598C2.07175 7.46022 2.17746 7.27405 2.28433 7.08594L2.298 7.06153L2.91031 5.98438L2.92495 5.95899C3.03466 5.76578 3.14253 5.57554 3.24722 5.41993C3.36343 5.24717 3.51432 5.05675 3.73355 4.89649C4.0425 4.67068 4.40934 4.53644 4.79116 4.51075C5.06198 4.49259 5.30014 4.54206 5.50015 4.59961C5.6802 4.65145 5.88493 4.72735 6.09292 4.80469L6.12027 4.81543L7.15835 5.20118C7.61211 4.86943 8.09959 4.58486 8.61343 4.35157L8.81851 3.16016C8.85583 2.94321 8.89238 2.72934 8.93765 2.54883C8.98794 2.34839 9.06502 2.12024 9.21499 1.89649C9.42658 1.58088 9.72251 1.33079 10.0695 1.17579C10.3154 1.0659 10.5538 1.02922 10.7599 1.01368C10.9454 0.999676 11.1628 0.99998 11.383 1H12.6173ZM11.4113 3C11.1514 3 11.0113 3.0002 10.9103 3.00782C10.9006 3.00855 10.8922 3.01002 10.8849 3.01075C10.8829 3.01787 10.8805 3.02656 10.8781 3.03614C10.8534 3.13433 10.8293 3.27185 10.7853 3.52735L10.4914 5.23438C10.431 5.58525 10.1883 5.87767 9.85464 6.00196C9.16486 6.25865 8.53255 6.628 7.98452 7.09473C7.70869 7.32967 7.32708 7.39772 6.98745 7.27149L5.423 6.68946C5.17756 6.59823 5.04473 6.54977 4.94644 6.52149C4.93691 6.51875 4.92823 6.51653 4.92105 6.51465C4.91675 6.52072 4.91194 6.52791 4.9064 6.53614C4.84927 6.62107 4.77905 6.74368 4.64956 6.97168L4.03726 8.04981C3.91122 8.27174 3.84441 8.39164 3.80191 8.48145C3.79785 8.49004 3.79407 8.4974 3.79116 8.50391C3.7962 8.50914 3.80184 8.51564 3.80874 8.52247C3.8794 8.59231 3.98359 8.68131 4.17788 8.84668L5.49429 9.96778C5.76289 10.1964 5.89145 10.5498 5.83218 10.8975C5.76883 11.2693 5.73159 11.6344 5.73159 12C5.73159 12.3657 5.76883 12.7308 5.83218 13.1025C5.89145 13.4503 5.76287 13.8035 5.49429 14.0322L4.17788 15.1523C3.98332 15.318 3.87945 15.4077 3.80874 15.4775C3.80201 15.4842 3.79611 15.4899 3.79116 15.4951C3.7941 15.5017 3.79776 15.5099 3.80191 15.5186C3.84442 15.6084 3.91117 15.7282 4.03726 15.9502L4.64956 17.0283C4.77904 17.2563 4.84927 17.379 4.9064 17.4639C4.90902 17.4678 4.91187 17.4712 4.91421 17.4746C4.9168 17.4784 4.91879 17.4821 4.92105 17.4854C4.92821 17.4835 4.93694 17.4813 4.94644 17.4785C5.04481 17.4502 5.17819 17.4019 5.42398 17.3106L6.98745 16.7285C7.32708 16.6022 7.70869 16.6704 7.98452 16.9053C8.53255 17.372 9.16486 17.7413 9.85464 17.9981C10.1883 18.1223 10.431 18.4147 10.4914 18.7656L10.7853 20.4727C10.8294 20.7286 10.8534 20.8666 10.8781 20.9648C10.8795 20.9705 10.8807 20.9758 10.882 20.9805C10.8828 20.9835 10.8841 20.9865 10.8849 20.9893C10.8922 20.99 10.9006 20.9915 10.9103 20.9922C11.0113 20.9998 11.1514 21 11.4113 21H12.589C12.8489 21 12.989 20.9998 13.09 20.9922C13.0997 20.9915 13.1081 20.99 13.1154 20.9893C13.1173 20.9822 13.1199 20.9742 13.1222 20.9648C13.1468 20.8666 13.171 20.7285 13.215 20.4727L13.5089 18.7656C13.5694 18.4146 13.8118 18.1223 14.1457 17.9981C14.8361 17.7413 15.4676 17.3717 16.0148 16.9053C16.2905 16.6701 16.6721 16.6025 17.0119 16.7285L18.5763 17.3106C18.8221 17.402 18.9555 17.4502 19.0539 17.4785C19.0634 17.4813 19.072 17.4835 19.0793 17.4854C19.0835 17.4793 19.0884 17.4721 19.0939 17.4639C19.151 17.3789 19.2213 17.2564 19.3507 17.0283L19.9621 15.9502C20.0883 15.7279 20.1559 15.6085 20.1984 15.5186C20.2025 15.5098 20.2061 15.5018 20.2091 15.4951C20.2061 15.4919 20.2022 15.489 20.1984 15.4854C20.196 15.483 20.1933 15.4801 20.1906 15.4775C20.1199 15.4077 20.0159 15.3178 19.8214 15.1523L18.505 14.0322C18.2362 13.8032 18.1082 13.4496 18.1681 13.1016C18.2317 12.7319 18.2687 12.3667 18.2687 12C18.2687 11.6333 18.2317 11.2681 18.1681 10.8984C18.1083 10.5504 18.2362 10.1968 18.505 9.96778L19.8214 8.84668C20.0156 8.68139 20.12 8.59229 20.1906 8.52247C20.1976 8.51564 20.2041 8.50913 20.2091 8.50391C20.2062 8.49728 20.2026 8.48924 20.1984 8.48047C20.1559 8.39065 20.0881 8.27081 19.9621 8.04883L19.3507 6.97168C19.2213 6.74365 19.1511 6.62107 19.0939 6.53614C19.0901 6.5305 19.0864 6.52512 19.0832 6.52051C19.0818 6.5185 19.0805 6.51648 19.0793 6.51465C19.0721 6.51654 19.0634 6.51875 19.0539 6.52149C18.9555 6.54979 18.8221 6.59812 18.5763 6.68946L17.0119 7.27149C16.6721 7.39759 16.2905 7.32985 16.0148 7.09473C15.4676 6.62829 14.8361 6.25868 14.1457 6.00196C13.8118 5.87777 13.5694 5.58545 13.5089 5.23438L13.215 3.52735C13.1711 3.27186 13.1468 3.13435 13.1222 3.03614C13.1198 3.02656 13.1174 3.01787 13.1154 3.01075C13.1081 3.01003 13.0997 3.00855 13.09 3.00782C12.989 3.0002 12.8489 3 12.589 3H11.4113Z" fill="black"/>
</svg>
