<svg width="24" height="24" viewBox="0 0 24 24" fill="none" xmlns="http://www.w3.org/2000/svg">
<path d="M12 3.8299C7.4878 3.8299 3.83 7.4878 3.83 11.9999C3.83 16.5121 7.4878 20.1699 12 20.1699C12.171 20.1699 12.3407 20.1647 12.5091 20.1543C9.8919 18.3886 8.17 15.396 8.17 11.9999C8.17 8.6038 9.8919 5.6112 12.5091 3.8455C12.3407 3.8352 12.171 3.8299 12 3.8299ZM20.1001 13.0736L14.0308 19.1429C14.3418 19.3161 14.6654 19.4696 14.9997 19.6017C17.7086 18.5318 19.7086 16.056 20.1001 13.0736ZM20.0751 10.751C19.9648 10.0315 19.7606 9.343 19.4754 8.6983L11.382 16.7917C11.7508 17.3003 12.1768 17.7647 12.6506 18.1755L20.0751 10.751ZM17.3493 5.8245L9.9249 13.2488C10.0352 13.9682 10.2394 14.6568 10.5246 15.3015L18.618 7.2082C18.2491 6.6996 17.8231 6.2352 17.3493 5.8245ZM15.969 4.8571C15.6579 4.6838 15.3342 4.5303 14.9997 4.3982C12.2903 5.4684 10.2913 7.9449 9.8999 10.9262L15.969 4.8571ZM2.17 11.9999C2.17 6.571 6.571 2.1699 12 2.1699C17.429 2.1699 21.83 6.571 21.83 11.9999C21.83 17.4289 17.429 21.8299 12 21.8299C6.571 21.8299 2.17 17.4289 2.17 11.9999Z" fill="white"/>
</svg>
