<svg width="24" height="24" viewBox="0 0 24 24" fill="none" xmlns="http://www.w3.org/2000/svg">
<path d="M5.0193 17.5313C4.7989 17.9352 4.6619 18.1882 4.5792 18.3797C4.54 18.4702 4.5253 18.5208 4.5199 18.5425C4.528 18.5737 4.5448 18.6021 4.5684 18.6241C4.59 18.6298 4.6415 18.6411 4.7397 18.6501C4.9474 18.6691 5.2351 18.67 5.6953 18.67L11.17 18.67L11.17 6.255L5.0193 17.5313ZM13.6562 18.67L17.5034 14.8228L16.5672 13.1065L12.83 16.8438L12.83 18.67L13.6562 18.67ZM16.0038 18.67L18.3047 18.67C18.7649 18.67 19.0526 18.6691 19.2603 18.6501C19.3585 18.6411 19.41 18.6298 19.4316 18.6241C19.4552 18.6021 19.472 18.5737 19.48 18.5425C19.4747 18.5208 19.46 18.4702 19.4208 18.3797C19.3381 18.1882 19.2011 17.9352 18.9807 17.5313L18.3319 16.3418L16.0038 18.67ZM12.83 11.8438L12.83 14.4962L15.7387 11.5875L14.8025 9.8712L12.83 11.8438ZM13.974 8.3522L12.83 6.255L12.83 9.4962L13.974 8.3522ZM11.2395 3.4238C11.7225 3.2031 12.2775 3.2031 12.7605 3.4238C13.1278 3.5916 13.3671 3.892 13.5415 4.152C13.7151 4.4109 13.902 4.7535 14.1153 5.1447L14.1153 5.1448L14.1154 5.1448L14.1154 5.1449L14.1333 5.1777L20.438 16.7364L20.4555 16.7683L20.4555 16.7683L20.4556 16.7685C20.6531 17.1307 20.828 17.4512 20.9446 17.7211C21.0635 17.9963 21.1786 18.34 21.1319 18.7221C21.0697 19.2308 20.7971 19.6901 20.3803 19.9883C20.0672 20.2122 19.7103 20.2758 19.4119 20.3032C19.119 20.33 18.7539 20.33 18.3413 20.33L18.3412 20.33L18.3412 20.33L18.3412 20.33L18.3411 20.33L18.3047 20.33L5.6953 20.33L5.6589 20.33L5.6588 20.33L5.6588 20.33L5.6588 20.33L5.6587 20.33C5.2461 20.33 4.881 20.33 4.5881 20.3032C4.2897 20.2758 3.9327 20.2122 3.6197 19.9883C3.2029 19.6901 2.9303 19.2308 2.8681 18.7221C2.8213 18.34 2.9365 17.9963 3.0554 17.7211C3.172 17.4512 3.3469 17.1306 3.5445 16.7684L3.5445 16.7683L3.562 16.7364L9.8667 5.1777L9.8846 5.1449C10.098 4.7537 10.2849 4.4109 10.4585 4.152C10.6329 3.892 10.8722 3.5916 11.2395 3.4238Z" fill="white"/>
</svg>
