<svg width="24" height="24" viewBox="0 0 24 24" fill="none" xmlns="http://www.w3.org/2000/svg">
<path d="M19.7929 8.79298L14.7929 13.793C14.6054 13.9805 14.5001 14.2348 14.5001 14.5C14.5001 14.7652 14.6054 15.0195 14.7929 15.207C14.9805 15.3945 15.2348 15.4998 15.5 15.4998C15.7651 15.4998 16.0195 15.3945 16.207 15.207L21.207 10.207C21.3945 10.0195 21.4998 9.76519 21.4998 9.50001C21.4998 9.23483 21.3945 8.98051 21.207 8.79298C21.0195 8.60549 20.7651 8.50016 20.5 8.50016C20.2348 8.50016 19.9805 8.60549 19.7929 8.79298Z" fill="black"/>
<path d="M14.7929 8.79298C14.6054 8.98051 14.5001 9.23483 14.5001 9.50001C14.5001 9.76519 14.6054 10.0195 14.7929 10.207L19.7929 15.207C19.9805 15.3945 20.2348 15.4998 20.5 15.4998C20.7651 15.4998 21.0195 15.3945 21.207 15.207C21.3945 15.0195 21.4998 14.7652 21.4998 14.5C21.4998 14.2348 21.3945 13.9805 21.207 13.793L16.207 8.79298C16.0195 8.60549 15.7651 8.50016 15.5 8.50016C15.2348 8.50016 14.9805 8.60549 14.7929 8.79298Z" fill="black"/>
<path fill-rule="evenodd" clip-rule="evenodd" d="M3 12.0007C3 11.0688 3 10.6029 3.15224 10.2354C3.35523 9.74531 3.74458 9.35597 4.23463 9.15298C4.60218 9.00074 5.06812 9.00074 6 9.00074H6.6461C6.77645 9.00074 6.84162 9.00074 6.90247 8.98521C6.9564 8.97144 7.00765 8.94877 7.05412 8.91812C7.10654 8.88354 7.15038 8.83532 7.23806 8.73887L9.77287 5.95057C10.4649 5.18932 10.811 4.80869 11.1107 4.77502C11.3705 4.74584 11.6282 4.84546 11.8008 5.04183C12 5.26838 12 5.78279 12 6.81159V17.1899C12 18.2187 12 18.7331 11.8008 18.9596C11.6282 19.156 11.3705 19.2556 11.1107 19.2264C10.811 19.1928 10.4649 18.8121 9.77288 18.0509L7.23806 15.2626C7.15038 15.1661 7.10654 15.1179 7.05412 15.0833C7.00765 15.0527 6.9564 15.03 6.90247 15.0163C6.84162 15.0007 6.77645 15.0007 6.6461 15.0007H6C5.06812 15.0007 4.60218 15.0007 4.23463 14.8485C3.74458 14.6455 3.35523 14.2561 3.15224 13.7661C3 13.3986 3 12.9326 3 12.0007Z" fill="black"/>
<path fill-rule="evenodd" clip-rule="evenodd" d="M10.9961 6.09736C10.8667 6.23444 10.71 6.40639 10.5128 6.62326L7.978 9.41156C7.97303 9.41702 7.96733 9.42338 7.96093 9.43053C7.89853 9.50019 7.76955 9.64418 7.60472 9.7529C7.46533 9.84484 7.31156 9.91286 7.14977 9.95415C6.95844 10.003 6.76514 10.0016 6.67162 10.0009C6.66203 10.0008 6.65349 10.0007 6.64611 10.0007H6C5.52038 10.0007 5.21074 10.0013 4.97376 10.0174C4.74576 10.033 4.65893 10.0596 4.61732 10.0769C4.37229 10.1784 4.17762 10.373 4.07612 10.6181C4.05888 10.6597 4.03227 10.7465 4.01671 10.9745C4.00054 11.2115 4 11.5211 4 12.0007C4 12.4804 4.00054 12.79 4.01671 13.027C4.03227 13.255 4.05888 13.3418 4.07612 13.3834C4.17762 13.6284 4.37229 13.8231 4.61732 13.9246C4.65893 13.9419 4.74576 13.9685 4.97376 13.984C5.21074 14.0002 5.52038 14.0007 6 14.0007H6.64611C6.65349 14.0007 6.66203 14.0007 6.67163 14.0006C6.76514 13.9999 6.95844 13.9985 7.14977 14.0473C7.31156 14.0886 7.46532 14.1566 7.60472 14.2486C7.76955 14.3573 7.89853 14.5013 7.96093 14.5709C7.96733 14.5781 7.97303 14.5845 7.978 14.5899L10.5128 17.3782C10.71 17.5951 10.8667 17.767 10.9961 17.9041C10.9997 17.7156 11 17.483 11 17.1899V6.8116C11 6.51851 10.9997 6.28589 10.9961 6.09736ZM10.9991 3.78128C11.5837 3.71562 12.1635 3.93977 12.5519 4.38161C12.8832 4.75849 12.9453 5.24034 12.9713 5.53902C13.0001 5.86848 13 6.29103 13 6.76794V17.2335C13 17.7105 13.0001 18.133 12.9713 18.4625C12.9453 18.7611 12.8832 19.243 12.5519 19.6199C12.1635 20.0617 11.5837 20.2859 10.9991 20.2202C10.5004 20.1642 10.1304 19.8494 9.91019 19.6459C9.66732 19.4215 9.38312 19.1088 9.06234 18.7559L6.55763 16.0007H5.96801C5.52936 16.0007 5.15088 16.0008 4.83762 15.9794C4.50779 15.9569 4.17788 15.9074 3.85195 15.7724C3.11687 15.4679 2.53284 14.8839 2.22836 14.1488C2.09336 13.8229 2.04386 13.4929 2.02135 13.1631C1.99998 12.8499 1.99999 12.4714 2 12.0327V11.9688C1.99999 11.5301 1.99998 11.1516 2.02135 10.8384C2.04386 10.5085 2.09336 10.1786 2.22836 9.8527C2.53284 9.11761 3.11687 8.53359 3.85195 8.22911C4.17788 8.0941 4.50779 8.0446 4.83762 8.0221C5.15088 8.00072 5.52937 8.00073 5.96802 8.00075H6.55763L9.06232 5.24559C9.3831 4.89269 9.66732 4.58002 9.91019 4.35556C10.1304 4.15207 10.5004 3.83729 10.9991 3.78128Z" fill="black"/>
</svg>
