<svg width="24" height="24" viewBox="0 0 24 24" fill="none" xmlns="http://www.w3.org/2000/svg">
<path d="M19.5798 3.08L3.14982 19.51C3.23982 19.85 3.41982 20.16 3.65982 20.41C3.90982 20.65 4.21982 20.83 4.55982 20.92L20.9998 4.49C20.8098 3.8 20.2698 3.26 19.5798 3.08ZM11.9498 3L3.06982 11.88V14.71L14.7798 3H11.9498ZM5.06982 3C3.96982 3 3.06982 3.9 3.06982 5V7L7.06982 3H5.06982ZM19.0698 21C19.6198 21 20.1198 20.78 20.4798 20.41C20.8498 20.05 21.0698 19.55 21.0698 19V17L17.0698 21H19.0698ZM9.35982 21H12.1898L21.0698 12.12V9.29L9.35982 21Z" fill="black"/>
</svg>
