<svg width="24" height="24" viewBox="0 0 24 24" fill="none" xmlns="http://www.w3.org/2000/svg">
<path d="M12 1C18.0751 1 23 5.92487 23 12C23 18.0751 18.0751 23 12 23C5.92487 23 1 18.0751 1 12C1 5.92487 5.92487 1 12 1ZM14.8449 3.45889L12.5145 4.85749C12.2374 5.02375 11.8999 5.04453 11.6077 4.91984L11.4855 4.85749L9.1551 3.45889C7.43778 4.03063 5.95049 5.10582 4.86829 6.5094C4.89892 6.55976 4.92407 6.6136 4.94404 6.67031L4.97014 6.75746L5.47014 8.75746C5.54469 9.05564 5.47756 9.36891 5.29322 9.60897L5.20711 9.70711L3.20711 11.7071C3.14452 11.7697 3.07571 11.8222 3.00266 11.8648L3 12C3 14.3049 3.86644 16.4074 5.29137 17.9997L7.49985 18C7.85111 18 8.17662 18.1843 8.35734 18.4855L9.68521 20.6995C10.4238 20.8955 11.1997 21 12 21C12.8003 21 13.5762 20.8955 14.3148 20.6995L15.6425 18.4855C15.8006 18.2219 16.0696 18.0479 16.3697 18.0085L16.5 18L18.7086 17.9997C20.1336 16.4074 21 14.3049 21 12L20.9983 11.8653C20.9249 11.8227 20.8558 11.77 20.7929 11.7071L18.7929 9.70711C18.5445 9.45873 18.4447 9.09824 18.5299 8.75746L19.0299 6.75746C19.0522 6.6683 19.0858 6.58495 19.1288 6.50856C18.117 5.19349 16.7465 4.16631 15.1642 3.57195L14.8449 3.45889ZM12.6 7.2L16.6 10.2C16.973 10.4797 17.1032 10.9801 16.9138 11.4061L14.9138 15.9061C14.7533 16.2673 14.3952 16.5 14 16.5H10C9.60481 16.5 9.24669 16.2673 9.08619 15.9061L7.08619 11.4061C6.89684 10.9801 7.02702 10.4797 7.4 10.2L11.4 7.2C11.7556 6.93333 12.2444 6.93333 12.6 7.2ZM12 9.25L9.2374 11.3219L10.6499 14.5H13.3501L14.7626 11.3219L12 9.25Z" fill="black"/>
</svg>
