<svg width="24" height="24" viewBox="0 0 24 24" fill="none" xmlns="http://www.w3.org/2000/svg">
<path d="M8.75 8C9.44036 8 10 8.67157 10 9.5C10 10.3284 9.44036 11 8.75 11C8.05964 11 7.5 10.3284 7.5 9.5C7.5 8.67157 8.05964 8 8.75 8Z" fill="black"/>
<path d="M15.25 8C15.9404 8 16.5 8.67157 16.5 9.5C16.5 10.3284 15.9404 11 15.25 11C14.5596 11 14 10.3284 14 9.5C14 8.67157 14.5596 8 15.25 8Z" fill="black"/>
<path fill-rule="evenodd" clip-rule="evenodd" d="M12.5938 1.25C14.0191 1.25 15.1418 1.2497 16.0488 1.31348C16.9731 1.37849 17.7489 1.51361 18.4668 1.82129C20.1348 2.53608 21.4639 3.86529 22.1787 5.5332C22.4863 6.25118 22.6215 7.02691 22.6865 7.95117C22.7428 8.75174 22.7492 9.72058 22.75 10.917V11.8438C22.75 11.9677 22.7496 12.0896 22.748 12.2061C22.7426 12.8468 22.7195 13.3305 22.623 13.8008C22.4644 14.5735 22.1598 15.3093 21.7256 15.9678C21.3782 16.4944 20.9248 16.9483 20.2246 17.6484L20.1484 17.7236L17.7236 20.1484L17.6484 20.2246C16.9484 20.9249 16.4944 21.3782 15.9678 21.7256C15.3093 22.1598 14.5735 22.4644 13.8008 22.623C13.3284 22.72 12.8423 22.7428 12.1973 22.748C12.0834 22.7496 11.9648 22.75 11.8438 22.75H10.917C9.72059 22.7492 8.75174 22.7428 7.95117 22.6865C7.02691 22.6215 6.25118 22.4863 5.5332 22.1787C3.86529 21.4639 2.53608 20.1348 1.82129 18.4668C1.51361 17.7489 1.37849 16.9731 1.31348 16.0488C1.2497 15.1418 1.25 14.0191 1.25 12.5938V11.9121C1.24999 10.251 1.24995 8.94303 1.33594 7.89062C1.42364 6.81717 1.6061 5.92172 2.02051 5.1084C2.69799 3.77886 3.77886 2.69799 5.1084 2.02051C5.92172 1.6061 6.81717 1.42364 7.89062 1.33594C8.94303 1.24995 10.251 1.24999 11.9121 1.25H12.5938ZM11.957 3.25C10.2418 3.25 9.01515 3.25057 8.05371 3.3291C7.10413 3.40669 6.50095 3.55504 6.0166 3.80176C5.06324 4.28752 4.28752 5.06324 3.80176 6.0166C3.55504 6.50095 3.40669 7.10413 3.3291 8.05371C3.25057 9.01515 3.25 10.2418 3.25 11.957V12.5557C3.25 14.0273 3.25033 15.0796 3.30859 15.9082C3.36618 16.7271 3.47655 17.2524 3.65918 17.6787C4.17167 18.8746 5.12542 19.8283 6.32129 20.3408C6.74764 20.5234 7.27287 20.6337 8.0918 20.6914C8.85309 20.7449 9.8031 20.7495 11.0938 20.75H11.6045C11.8536 20.7498 12.0658 20.749 12.25 20.7471C12.3257 20.7454 12.3872 20.7427 12.4404 20.7383C12.4758 20.7354 12.5 20.7328 12.5146 20.7305C12.518 20.7276 12.5215 20.7241 12.5244 20.7207C12.5267 20.7061 12.5293 20.682 12.5322 20.6465C12.5429 20.516 12.5439 20.3364 12.5439 20.0166V18.4277C12.3646 18.4427 12.1831 18.4502 12 18.4502C9.49041 18.4502 7.31757 17.0161 6.25195 14.9277C6.01369 14.4604 6.19885 13.8888 6.66602 13.6504C7.13336 13.4119 7.70586 13.5971 7.94434 14.0645C8.6981 15.5417 10.232 16.5498 12 16.5498C12.1846 16.5498 12.3666 16.5388 12.5449 16.5176C12.5467 16.1355 12.5533 15.7975 12.5771 15.5059C12.6118 15.0829 12.6878 14.6695 12.8896 14.2734C13.1932 13.6775 13.6775 13.1932 14.2734 12.8896C14.6695 12.6878 15.0829 12.6117 15.5059 12.5771C15.9082 12.5442 16.3983 12.5439 16.9717 12.5439H20.0166C20.3362 12.5439 20.516 12.5428 20.6465 12.5322C20.682 12.5293 20.7061 12.5267 20.7207 12.5244C20.7241 12.5215 20.7276 12.518 20.7305 12.5146C20.7329 12.5 20.7354 12.4758 20.7383 12.4404C20.7425 12.3881 20.7454 12.3278 20.7471 12.2539C20.7495 12.0307 20.75 11.7659 20.75 11.4443C20.75 9.97271 20.7496 8.92039 20.6914 8.0918C20.6337 7.27287 20.5234 6.74764 20.3408 6.32129C19.8283 5.12542 18.8746 4.17167 17.6787 3.65918C17.2524 3.47655 16.7271 3.36618 15.9082 3.30859C15.0796 3.25033 14.0273 3.25 12.5557 3.25H11.957ZM17.0107 14.5439C16.3875 14.5439 15.98 14.5449 15.6689 14.5703C15.3696 14.5948 15.2479 14.6366 15.1807 14.6709C14.9612 14.7827 14.7828 14.9613 14.6709 15.1807C14.6366 15.248 14.5948 15.3696 14.5703 15.6689C14.5449 15.98 14.5439 16.3875 14.5439 17.0107V20.249C14.654 20.1898 14.7616 20.1256 14.8662 20.0566C15.2026 19.8348 15.5084 19.5356 16.3096 18.7344L18.7344 16.3096C19.5356 15.5084 19.8348 15.2026 20.0566 14.8662C20.1256 14.7616 20.1898 14.654 20.249 14.5439H17.0107Z" fill="black"/>
</svg>
