<svg width="24" height="24" viewBox="0 0 24 24" fill="none" xmlns="http://www.w3.org/2000/svg">
<path d="M1.7071 2.2929L3.243 3.8288C3.3993 3.7255 3.5619 3.6307 3.73 3.545C4.3223 3.2432 4.9625 3.1174 5.6914 3.0578C6.3992 3 7.2733 3 8.3571 3L8.3572 3L8.4 3L13.8 3L13.9378 3C14.9781 2.9996 15.6978 2.9994 16.3731 3.1922C16.9692 3.3625 17.5285 3.6421 18.0224 4.0169C18.5818 4.4414 19.0134 5.0172 19.6373 5.8497L19.72 5.96L21.64 8.52L21.7513 8.6683C22.4172 9.5546 22.9181 10.2214 23.1182 10.9817C23.2939 11.6492 23.2939 12.3508 23.1182 13.0183C22.9181 13.7786 22.4172 14.4454 21.7513 15.3318L21.64 15.48L19.72 18.04L19.6373 18.1503C19.293 18.6098 19.0072 18.9911 18.7261 19.3119L19.7071 20.2929C20.0976 20.6834 20.0976 21.3166 19.7071 21.7071C19.3166 22.0976 18.6834 22.0976 18.2929 21.7071L0.2929 3.7071C-0.0976 3.3166 -0.0976 2.6834 0.2929 2.2929C0.6834 1.9024 1.3166 1.9024 1.7071 2.2929ZM4.7077 5.2934L17.3078 17.8936C17.5032 17.6587 17.7522 17.3304 18.12 16.84L20.04 14.28C20.868 13.176 21.0967 12.8412 21.1841 12.5091C21.272 12.1754 21.272 11.8246 21.1841 11.4909C21.0967 11.1588 20.868 10.824 20.04 9.72L18.12 7.16C17.3812 6.175 17.1218 5.8441 16.8134 5.6101C16.5171 5.3853 16.1815 5.2175 15.8238 5.1153C15.4516 5.009 15.0313 5 13.8 5L8.4 5C7.2634 5 6.4711 5.0008 5.8542 5.0512C5.3009 5.0964 4.9628 5.1773 4.7077 5.2934ZM13.8 21L8.4 21L8.3572 21L8.3571 21C7.2733 21 6.3992 21 5.6914 20.9422C4.9625 20.8826 4.3223 20.7568 3.73 20.455C2.7892 19.9757 2.0243 19.2108 1.545 18.27C1.2432 17.6777 1.1174 17.0375 1.0578 16.3086C1 15.6008 1 14.7267 1 13.6429L1 13.6428L1 13.6L1 10.4L1 10.3572L1 10.3571C1 9.2733 1 8.3992 1.0578 7.6914C1.1026 7.1428 1.185 6.6444 1.3517 6.1788L3.0494 7.8765C3.0008 8.4901 3 9.277 3 10.4L3 13.6C3 14.7366 3.0008 15.5289 3.0512 16.1458C3.1006 16.7509 3.1928 17.0986 3.327 17.362C3.6146 17.9265 4.0735 18.3854 4.638 18.673C4.9014 18.8072 5.2491 18.8994 5.8542 18.9488C6.4711 18.9992 7.2634 19 8.4 19L13.8 19C13.9333 19 14.0572 18.9999 14.1725 18.9996L16.0568 20.8839C15.4684 21.0006 14.8179 21.0003 13.9378 21L13.9378 21L13.8 21ZM17 12C17 13.1046 16.1046 14 15 14C13.8954 14 13 13.1046 13 12C13 10.8954 13.8954 10 15 10C16.1046 10 17 10.8954 17 12Z" fill="black"/>
</svg>
