<svg width="24" height="24" viewBox="0 0 24 24" fill="none" xmlns="http://www.w3.org/2000/svg">
<path d="M12 6.16992C12.4584 6.16992 12.8301 6.54161 12.8301 7V10.751C13.2337 11.0199 13.5 11.4787 13.5 12C13.4999 12.8284 12.8284 13.5 12 13.5C11.1716 13.5 10.5001 12.8284 10.5 12C10.5 11.4784 10.766 11.0187 11.1699 10.75V7C11.1699 6.54174 11.5418 6.17014 12 6.16992Z" fill="black"/>
<path fill-rule="evenodd" clip-rule="evenodd" d="M12 1.16992C12.4584 1.16992 12.8301 1.54161 12.8301 2V3.20801C14.6453 3.37724 16.3016 4.09605 17.6299 5.19629L18.4131 4.41309C18.7371 4.08901 19.2628 4.08912 19.5869 4.41309C19.911 4.73723 19.911 5.26278 19.5869 5.58691L18.8037 6.37012C20.0696 7.8983 20.8301 9.86057 20.8301 12C20.83 16.8767 16.8767 20.8301 12 20.8301C7.12356 20.8299 3.16997 16.8765 3.16992 12C3.16992 7.4034 6.68268 3.62656 11.1699 3.20801V2C11.1699 1.54174 11.5418 1.17014 12 1.16992ZM12 4.83008C8.04031 4.83029 4.83008 8.04027 4.83008 12C4.83013 15.9597 8.04035 19.1697 12 19.1699C15.9599 19.1699 19.1699 15.9599 19.1699 12C19.1699 8.04014 15.9599 4.83008 12 4.83008Z" fill="black"/>
</svg>
