<svg width="36" height="18" viewBox="0 0 36 18" fill="none" xmlns="http://www.w3.org/2000/svg">
<path d="M9.24707 0C9.3982 1.61804e-05 9.54786 0.030519 9.6875 0.0898438C9.82719 0.149217 9.95463 0.236014 10.0615 0.345703L17.6621 8.16992C17.7692 8.27959 17.8541 8.41031 17.9121 8.55371C17.97 8.69701 18 8.85074 18 9.00586C18 9.16104 17.9701 9.31467 17.9121 9.45801C17.8541 9.6014 17.7692 9.73214 17.6621 9.8418L10.0498 17.6533C9.59927 18.1156 8.8714 18.1156 8.4209 17.6533C7.97044 17.191 7.9704 16.432 8.4209 15.9697L14.0576 10.1855H1.15527C0.52003 10.1855 0.000149004 9.65185 0 9C0 8.34802 0.519939 7.81445 1.15527 7.81445H14.0576L8.43262 2.01758C8.32567 1.90783 8.2405 1.77719 8.18262 1.63379C8.12485 1.49052 8.0957 1.33669 8.0957 1.18164C8.09574 1.02652 8.12477 0.872805 8.18262 0.729492C8.2405 0.586099 8.32567 0.455451 8.43262 0.345703C8.5395 0.236078 8.66702 0.149192 8.80664 0.0898438C8.94625 0.0305626 9.09597 0 9.24707 0Z" fill="black"/>
<path fill-rule="evenodd" clip-rule="evenodd" d="M36 18H32.416L30.8174 13.7842H23.166L21.5703 18H18L25.4385 0H28.5342L36 18ZM24.0967 11.3242H29.8838L26.9873 3.68848L24.0967 11.3242Z" fill="black"/>
</svg>
