<svg width="24" height="24" viewBox="0 0 24 24" fill="none" xmlns="http://www.w3.org/2000/svg">
<path d="M11.293 10.793C11.6835 10.4025 12.3166 10.4025 12.7071 10.793L15.7071 13.793C16.0975 14.1835 16.0975 14.8166 15.7071 15.2071C15.3166 15.5976 14.6835 15.5976 14.293 15.2071L12 12.9141L9.70705 15.2071C9.31653 15.5976 8.68351 15.5976 8.29299 15.2071C7.90255 14.8166 7.90249 14.1835 8.29299 13.793L11.293 10.793Z" fill="black"/>
<path fill-rule="evenodd" clip-rule="evenodd" d="M14.9375 1.00003C15.9778 0.999672 16.6978 0.999576 17.3731 1.19241C17.9691 1.36264 18.5286 1.64194 19.0225 2.01663C19.5819 2.44115 20.0137 3.01716 20.6377 3.84964L20.7197 3.95999L20.8399 4.12015L20.8897 4.18558C21.1984 4.59699 21.4311 4.90846 21.6006 5.25882C21.7502 5.56814 21.8599 5.89525 21.9258 6.23245C22.0005 6.61446 22.0002 7.00406 22 7.51858V14.6426C22 15.7262 22.0002 16.6007 21.9424 17.3086C21.8828 18.0374 21.7569 18.6782 21.4551 19.2705C20.9758 20.2112 20.2103 20.9758 19.2696 21.4551C18.6774 21.7568 18.0374 21.8828 17.3086 21.9424C16.6008 22.0002 15.7264 22 14.6426 22H9.35744C8.27371 22 7.39928 22.0002 6.69143 21.9424C5.9627 21.8828 5.3227 21.7568 4.73049 21.4551C3.78979 20.9758 3.02432 20.2112 2.54494 19.2705C2.24316 18.6782 2.11719 18.0374 2.05764 17.3086C1.99982 16.6007 2.00001 15.7263 2.00002 14.6426V7.51858C1.99982 7.00406 1.99956 6.61446 2.07424 6.23245C2.14018 5.89524 2.24985 5.56815 2.39944 5.25882C2.56891 4.90841 2.80248 4.59707 3.11135 4.18558L3.16018 4.12015L3.28029 3.95999L3.36233 3.84964C3.98625 3.01715 4.41809 2.44115 4.97756 2.01663C5.47141 1.64191 6.03089 1.36265 6.62697 1.19241C7.30227 0.999547 8.02218 0.999672 9.06252 1.00003H14.9375ZM9.40041 7.00003C8.26394 7.00003 7.47132 7.00044 6.85451 7.05081C6.24934 7.10026 5.90108 7.19299 5.63772 7.32718C5.07352 7.61475 4.61474 8.07352 4.32717 8.63772C4.19298 8.90107 4.10025 9.24935 4.0508 9.85452C4.00042 10.4714 4.00002 11.2639 4.00002 12.4004V14.6006C4.00002 15.7368 4.00044 16.5289 4.0508 17.1455C4.10025 17.7507 4.19298 18.099 4.32717 18.3623C4.61473 18.9266 5.07352 19.3853 5.63772 19.6729C5.90108 19.8071 6.24934 19.8998 6.85451 19.9492C7.47132 19.9996 8.26393 20 9.40041 20H14.5996C15.736 20 16.5287 19.9996 17.1455 19.9492C17.7506 19.8998 18.0989 19.8071 18.3623 19.6729C18.9266 19.3853 19.3853 18.9266 19.6729 18.3623C19.8071 18.099 19.8998 17.7507 19.9492 17.1455C19.9996 16.5289 20 15.7368 20 14.6006V12.4004C20 11.2639 19.9996 10.4714 19.9492 9.85452C19.8998 9.24935 19.8071 8.90107 19.6729 8.63772C19.3853 8.0735 18.9266 7.61473 18.3623 7.32718C18.0989 7.19299 17.7506 7.10026 17.1455 7.05081C16.5287 7.00045 15.736 7.00003 14.5996 7.00003H9.40041ZM9.20022 3.00003C7.96892 3.00003 7.54802 3.00895 7.1758 3.11526C6.81826 3.21742 6.48278 3.3856 6.18654 3.61038C5.87824 3.84437 5.61856 4.1753 4.8799 5.16019L4.75979 5.32034C4.65317 5.4625 4.56793 5.57705 4.49904 5.67093C4.57473 5.62721 4.65231 5.58478 4.73049 5.54495C5.32268 5.24329 5.96272 5.11719 6.69143 5.05765C7.39931 4.99981 8.27365 5.00002 9.35744 5.00003H14.6426C15.7263 5.00002 16.6007 4.99981 17.3086 5.05765C18.0373 5.11718 18.6775 5.24331 19.2696 5.54495C19.3478 5.58478 19.4253 5.62721 19.501 5.67093C19.4321 5.57703 19.3469 5.46254 19.2403 5.32034L19.1201 5.16019C18.3814 4.17523 18.1219 3.84437 17.8135 3.61038C17.5173 3.38558 17.1818 3.21742 16.8242 3.11526C16.452 3.00895 16.0311 3.00003 14.7998 3.00003H9.20022Z" fill="black"/>
</svg>
