<svg width="24" height="24" viewBox="0 0 24 24" fill="none" xmlns="http://www.w3.org/2000/svg">
<path d="M8.5505 2L15.4495 2L15.4805 2L15.4805 2L15.4806 2C15.9302 2 16.3117 2 16.6092 2.0175C16.8838 2.0336 17.2553 2.0689 17.5821 2.2402C18.5218 2.733 18.9463 3.8494 18.5713 4.8421C18.4409 5.1872 18.1867 5.4604 17.9922 5.6549C17.7814 5.8656 17.4962 6.1191 17.1602 6.4178L17.137 6.4384L16.2148 7.2581C16.1329 7.331 16.0915 7.368 16.0622 7.396L16.0594 7.3986L16.0598 7.4025C16.0633 7.4428 16.07 7.498 16.0836 7.6067L16.3473 9.7164C16.392 10.0736 16.4037 10.144 16.4207 10.2024C16.465 10.355 16.545 10.4949 16.6541 10.6104C16.6958 10.6546 16.7507 10.7004 17.036 10.9199L17.7158 11.4429L17.7417 11.4628C18.2865 11.8818 18.7299 12.2229 19.0542 12.503C19.354 12.762 19.6971 13.0856 19.8747 13.4853C20.4039 14.6771 19.9283 16.0754 18.7822 16.6973C18.6291 16.7804 18.4626 16.8379 18.2926 16.8784L21.7071 20.2929C22.0976 20.6834 22.0976 21.3166 21.7071 21.7071C21.3166 22.0976 20.6834 22.0976 20.2929 21.7071L2.2929 3.7071C1.9024 3.3166 1.9024 2.6834 2.2929 2.2929C2.6834 1.9024 3.3166 1.9024 3.7071 2.2929L5.3036 3.8894C5.3727 3.2072 5.7746 2.5776 6.4179 2.2402C6.7447 2.0689 7.1162 2.0336 7.3908 2.0175C7.6883 2 8.0699 2 8.5195 2L8.5195 2L8.5195 2L8.5195 2L8.5505 2ZM16.4136 14.9994C16.8379 14.998 17.1629 14.9935 17.4194 14.9789C17.6847 14.9638 17.7994 14.9398 17.8327 14.9329C17.8392 14.9315 17.8426 14.9308 17.8434 14.9309C18.0567 14.8056 18.1462 14.5425 18.0536 14.3131C18.0528 14.3127 18.0506 14.31 18.0463 14.305C18.0241 14.2792 17.9478 14.1902 17.7468 14.0165C17.4709 13.7782 17.0732 13.4718 16.4964 13.0281L15.8165 12.5051L15.7722 12.471L15.7721 12.471C15.5555 12.3046 15.365 12.1582 15.2002 11.9838C14.8729 11.6373 14.6328 11.2178 14.4999 10.76C14.4331 10.5296 14.4034 10.2911 14.3697 10.02L14.3628 9.9645L14.0991 7.8548L14.0937 7.812L14.0937 7.812C14.0736 7.6547 14.0486 7.4576 14.0623 7.2594C14.0894 6.8701 14.2297 6.4973 14.4659 6.1868C14.5863 6.0287 14.735 5.8971 14.8538 5.7919L14.8861 5.7633L15.8083 4.9436C16.1738 4.6187 16.4141 4.4045 16.5782 4.2405C16.647 4.1717 16.6863 4.1269 16.7068 4.1024C16.7074 4.0763 16.6977 4.0509 16.68 4.0318C16.6484 4.0271 16.5892 4.0197 16.4921 4.014C16.2604 4.0004 15.9385 4 15.4495 4L8.5505 4C8.0615 4 7.7396 4.0004 7.5079 4.014C7.4108 4.0197 7.3516 4.0271 7.3201 4.0318C7.3023 4.0509 7.2926 4.0763 7.2932 4.1024C7.3137 4.1269 7.353 4.1717 7.4218 4.2405C7.5859 4.4045 7.8262 4.6187 8.1918 4.9436L9.1139 5.7633L9.1462 5.7919C9.265 5.8971 9.4137 6.0287 9.5341 6.1868C9.7704 6.4973 9.9106 6.8701 9.9377 7.2594C9.9514 7.4576 9.9264 7.6547 9.9063 7.812L9.9009 7.8548L9.8307 8.4165L16.4136 14.9994ZM7.3459 10.6104C7.4186 10.5334 7.4784 10.4456 7.5233 10.3504L8.9656 11.7927C8.9132 11.8586 8.8578 11.9223 8.7998 11.9838C8.635 12.1582 8.4444 12.3046 8.2278 12.471L8.1835 12.5051L7.5036 13.0281C6.9268 13.4718 6.5291 13.7782 6.2532 14.0165C6.0522 14.1902 5.9759 14.2792 5.9537 14.305C5.9494 14.31 5.9472 14.3127 5.9464 14.3131C5.8538 14.5425 5.9433 14.8056 6.1566 14.9309C6.1574 14.9308 6.1608 14.9315 6.1673 14.9329C6.2006 14.9398 6.3153 14.9638 6.5806 14.9789C6.9446 14.9996 7.4466 15 8.1743 15L11.9986 15L12 15L12.0014 15L12.1729 15L14.1729 17L13 17L13 22C13 22.5523 12.5523 23 12 23C11.4477 23 11 22.5523 11 22L11 17L8.1743 17L8.1417 17L8.1416 17L8.1416 17L8.1416 17C7.4543 17 6.8949 17 6.467 16.9757C6.0716 16.9532 5.6023 16.906 5.2178 16.6973C4.0717 16.0754 3.5961 14.6771 4.1254 13.4853C4.3029 13.0856 4.646 12.762 4.9458 12.503C5.2701 12.2229 5.7136 11.8818 6.2584 11.4627L6.2584 11.4627L6.2842 11.4429L6.9641 10.9199C7.2493 10.7004 7.3042 10.6546 7.3459 10.6104Z" fill="black"/>
</svg>
