<svg width="24" height="24" viewBox="0 0 24 24" fill="none" xmlns="http://www.w3.org/2000/svg">
<path d="M6 2H18C20.1422 2 21.8911 3.68397 21.9951 5.80036L22 6V10C22 10.5523 21.5523 11 21 11C20.4872 11 20.0645 10.614 20.0067 10.1166L20 10V6C20 4.94564 19.1841 4.08183 18.1493 4.00549L18 4H6C4.94564 4 4.08183 4.81588 4.00549 5.85074L4 6V19.5858L6.20503 17.3808C6.41399 17.1718 6.68678 17.0413 6.97758 17.0083L7.12426 17H13C13.5523 17 14 17.4477 14 18C14 18.5128 13.614 18.9355 13.1166 18.9933L13 19H7.41421L3.87782 22.5364C3.44824 22.966 2.75176 22.966 2.32218 22.5364C2.14536 22.3596 2.03496 22.1288 2.00702 21.8827L2 21.7586V6C2 3.8578 3.68397 2.10892 5.80036 2.0049L6 2ZM19 12C21.2091 12 23 13.7909 23 16C23 18.2091 21.2091 20 19 20C16.7909 20 15 18.2091 15 16C15 13.7909 16.7909 12 19 12ZM19 14C17.8954 14 17 14.8954 17 16C17 17.1046 17.8954 18 19 18C20.1046 18 21 17.1046 21 16C21 14.8954 20.1046 14 19 14Z" fill="black"/>
</svg>
