<svg width="24" height="24" viewBox="0 0 24 24" fill="none" xmlns="http://www.w3.org/2000/svg">
<path d="M12 1C18.0751 1 23 5.92487 23 12C23 15.2535 21.3575 17.4078 19.0416 17.5042C17.5448 17.5665 16.2419 16.7298 15.5433 15.3661C14.655 16.3039 13.3958 16.8889 12 16.8889C9.29994 16.8889 7.11111 14.7001 7.11111 12C7.11111 9.29994 9.29994 7.11111 12 7.11111C13.1311 7.11111 14.1725 7.49524 15.0008 8.14015L15 8C15 7.44772 15.4477 7 16 7C16.5128 7 16.9355 7.38604 16.9933 7.88338L17 8V13C17 14.5881 17.9058 15.5498 18.9584 15.506C20.0913 15.4588 21 14.2669 21 12C21 7.02944 16.9706 3 12 3C7.02944 3 3 7.02944 3 12C3 16.9706 7.02944 21 12 21C12.7993 21 13.5839 20.896 14.3403 20.693C14.8737 20.5498 15.4222 20.8661 15.5654 21.3995C15.7086 21.9329 15.3923 22.4814 14.8589 22.6246C13.9338 22.8729 12.9748 23 12 23C5.92487 23 1 18.0751 1 12C1 5.92487 5.92487 1 12 1ZM12 9.11111C10.4045 9.11111 9.11111 10.4045 9.11111 12C9.11111 13.5955 10.4045 14.8889 12 14.8889C13.5955 14.8889 14.8889 13.5955 14.8889 12C14.8889 10.4045 13.5955 9.11111 12 9.11111Z" fill="black"/>
</svg>
