<svg width="24" height="24" viewBox="0 0 24 24" fill="none" xmlns="http://www.w3.org/2000/svg">
<path fill-rule="evenodd" clip-rule="evenodd" d="M12.2412 3.5C13.0462 3.49999 13.7109 3.49973 14.252 3.54395C14.814 3.58987 15.3311 3.68827 15.8164 3.93555C16.5689 4.31901 17.181 4.93107 17.5645 5.68359C17.8117 6.1689 17.9102 6.68599 17.9561 7.24805C17.9847 7.59759 17.9944 7.99905 17.998 8.45606L19.9541 6.57813C21.1002 5.47786 23 6.29378 23 7.87695V16.123C23 17.709 21.0972 18.5203 19.9531 17.4219L17.998 15.5439C17.9944 16.0009 17.9847 16.4025 17.9561 16.752C17.9102 17.314 17.8117 17.831 17.5645 18.3164C17.181 19.0689 16.5689 19.681 15.8164 20.0645C15.3311 20.3117 14.814 20.4101 14.252 20.4561C13.7109 20.5003 13.0462 20.5 12.2412 20.5H6.75879C5.95383 20.5 5.28924 20.5003 4.74805 20.4561C4.18599 20.4102 3.6689 20.3117 3.18359 20.0645C2.43108 19.681 1.81901 19.0689 1.43555 18.3164C1.18828 17.831 1.08988 17.314 1.04395 16.752C0.999731 16.2108 0.999981 15.5462 1 14.7412V9.25879C0.999981 8.45383 0.999731 7.78923 1.04395 7.24805C1.08988 6.68599 1.18827 6.1689 1.43555 5.68359C1.81901 4.93109 2.43109 4.31901 3.18359 3.93555C3.66891 3.68826 4.18599 3.58987 4.74805 3.54395C5.28924 3.49973 5.95383 3.49999 6.75879 3.5H12.2412ZM6.79981 5.5C5.94341 5.5 5.36116 5.50035 4.91113 5.53711C4.47271 5.57293 4.2482 5.63808 4.0918 5.71777C3.71554 5.90951 3.40951 6.21555 3.21777 6.5918C3.13808 6.7482 3.07293 6.97271 3.03711 7.41113C3.00034 7.86117 3 8.44341 3 9.29981V14.7002C3 15.5566 3.00035 16.1388 3.03711 16.5889C3.07293 17.0273 3.13808 17.2518 3.21777 17.4082C3.40951 17.7844 3.71553 18.0905 4.0918 18.2822C4.2482 18.3619 4.47272 18.4271 4.91113 18.4629C5.36117 18.4997 5.94342 18.5 6.79981 18.5H12.2002C13.0566 18.5 13.6388 18.4997 14.0889 18.4629C14.5273 18.4271 14.7518 18.3619 14.9082 18.2822C15.2844 18.0905 15.5905 17.7845 15.7822 17.4082C15.8619 17.2518 15.927 17.0273 15.9629 16.5889C15.9996 16.1388 16 15.5566 16 14.7002V9.29981C16 8.44341 15.9996 7.86117 15.9629 7.41113C15.927 6.97271 15.8619 6.7482 15.7822 6.5918C15.5905 6.21554 15.2844 5.90951 14.9082 5.71777C14.7518 5.63808 14.5273 5.57293 14.0889 5.53711C13.6388 5.50035 13.0566 5.5 12.2002 5.5H6.79981ZM18.3076 10.9316C18.1118 11.1196 18.0005 11.3786 18 11.6504V12.3496C18.0005 12.6212 18.1116 12.8813 18.3076 13.0693L21 15.6543V8.34668L18.3076 10.9316Z" fill="black"/>
</svg>
