<svg width="24" height="24" viewBox="0 0 24 24" fill="none" xmlns="http://www.w3.org/2000/svg">
<path fill-rule="evenodd" clip-rule="evenodd" d="M12 3C14.7955 3 16.1933 3.00034 17.2959 3.45703C18.7661 4.066 19.934 5.23393 20.543 6.7041C20.9996 7.80672 21 9.2044 21 12C21 14.7956 20.9996 16.1933 20.543 17.2959C19.934 18.7661 18.7661 19.934 17.2959 20.543C16.1933 20.9996 14.7956 21 12 21C9.2044 21 7.80672 20.9996 6.7041 20.543C5.23393 19.934 4.066 18.7661 3.45703 17.2959C3.00034 16.1933 3 14.7955 3 12C3 9.2044 3.00034 7.80672 3.45703 6.7041C4.066 5.23393 5.23393 4.066 6.7041 3.45703C7.80672 3.00034 9.2044 3 12 3ZM12 5C8.13401 5 5 8.13401 5 12C5 15.866 8.13401 19 12 19C15.866 19 19 15.866 19 12C19 8.13401 15.866 5 12 5Z" fill="black"/>
</svg>
