<svg width="24" height="24" viewBox="0 0 24 24" fill="none" xmlns="http://www.w3.org/2000/svg">
<path fill-rule="evenodd" clip-rule="evenodd" d="M20 2C21.1046 2 22 2.89543 22 4V20C22 21.1046 21.1046 22 20 22H4C2.89543 22 2 21.1046 2 20V4C2 2.89543 2.89543 2 4 2H20ZM5.99512 7.8252C5.62509 7.8252 5.3252 8.12509 5.3252 8.49512V17.9805C5.32545 18.3503 5.62524 18.6504 5.99512 18.6504H17.9805C18.3501 18.6501 18.6501 18.3501 18.6504 17.9805V8.49512C18.6504 8.12524 18.3503 7.82545 17.9805 7.8252H5.99512Z" fill="black"/>
</svg>
